<?xml version="1.0" encoding="us-ascii" standalone="no"?><svg xmlns="http://www.w3.org/2000/svg" xmlns:xlink="http://www.w3.org/1999/xlink" contentStyleType="text/css" height="812px" preserveAspectRatio="none" style="width:1104px;height:812px;background:#FFFFFF;" version="1.1" viewBox="0 0 1104 812" width="1104px" zoomAndPan="magnify"><defs/><g><rect fill="#DDDDDD" height="800.7813" style="stroke:#181818;stroke-width:0.5;" width="370" x="331" y="6"/><text fill="#000000" font-family="monospace" font-size="13" font-weight="bold" lengthAdjust="spacing" textLength="56" x="458" y="18.0669">asyncio</text><text fill="#000000" font-family="sans-serif" font-size="13" font-weight="bold" lengthAdjust="spacing" textLength="55" x="519" y="18.0669">module</text><rect fill="#DDDDDD" height="800.7813" style="stroke:#181818;stroke-width:0.5;" width="257" x="703" y="6"/><text fill="#000000" font-family="monospace" font-size="13" font-weight="bold" lengthAdjust="spacing" textLength="32" x="785.5" y="18.0669">http</text><text fill="#000000" font-family="sans-serif" font-size="13" font-weight="bold" lengthAdjust="spacing" textLength="55" x="822.5" y="18.0669">module</text><rect fill="#FFFFFF" height="605.6563" style="stroke:#181818;stroke-width:1.0;" width="10" x="378.5" y="157.8281"/><rect fill="#A8CDE2" height="576.5234" style="stroke:#181818;stroke-width:1.0;" width="10" x="383.5" y="186.9609"/><rect fill="#FFEDCC" height="271.1953" style="stroke:#181818;stroke-width:1.0;" width="10" x="388.5" y="492.2891"/><rect fill="#A8CDE2" height="547.3906" style="stroke:#181818;stroke-width:1.0;" width="10" x="500" y="216.0938"/><rect fill="#FFEDCC" height="242.0625" style="stroke:#181818;stroke-width:1.0;" width="10" x="505" y="521.4219"/><rect fill="#A8CDE2" height="518.2578" style="stroke:#181818;stroke-width:1.0;" width="10" x="632.5" y="245.2266"/><rect fill="#FFEDCC" height="212.9297" style="stroke:#181818;stroke-width:1.0;" width="10" x="637.5" y="550.5547"/><rect fill="#FFFFFF" height="605.6563" style="stroke:#181818;stroke-width:1.0;" width="10" x="755" y="157.8281"/><rect fill="#A8CDE2" height="489.125" style="stroke:#181818;stroke-width:1.0;" width="10" x="760" y="274.3594"/><rect fill="#FFEDCC" height="183.7969" style="stroke:#181818;stroke-width:1.0;" width="10" x="765" y="579.6875"/><rect fill="#A8CDE2" height="459.9922" style="stroke:#181818;stroke-width:1.0;" width="10" x="884.5" y="303.4922"/><rect fill="#FFEDCC" height="154.6641" style="stroke:#181818;stroke-width:1.0;" width="10" x="889.5" y="608.8203"/><rect fill="#A8CDE2" height="43.1328" style="stroke:#181818;stroke-width:1.0;" width="10" x="1001.5" y="420.0234"/><rect fill="#FFEDCC" height="38.1328" style="stroke:#181818;stroke-width:1.0;" width="10" x="1001.5" y="725.3516"/><rect fill="#FFFFFF" height="314.3281" style="stroke:#181818;stroke-width:1.0;" width="10" x="1072.5" y="449.1563"/><line style="stroke:#181818;stroke-width:0.5;stroke-dasharray:5.0,5.0;" x1="142" x2="142" y1="56.4297" y2="772.4844"/><line style="stroke:#181818;stroke-width:0.5;stroke-dasharray:5.0,5.0;" x1="218" x2="218" y1="56.4297" y2="772.4844"/><line style="stroke:#181818;stroke-width:0.5;stroke-dasharray:5.0,5.0;" x1="383" x2="383" y1="56.4297" y2="772.4844"/><line style="stroke:#181818;stroke-width:0.5;stroke-dasharray:5.0,5.0;" x1="505" x2="505" y1="56.4297" y2="772.4844"/><line style="stroke:#181818;stroke-width:0.5;stroke-dasharray:5.0,5.0;" x1="637" x2="637" y1="56.4297" y2="772.4844"/><line style="stroke:#181818;stroke-width:0.5;stroke-dasharray:5.0,5.0;" x1="760" x2="760" y1="56.4297" y2="772.4844"/><line style="stroke:#181818;stroke-width:0.5;stroke-dasharray:5.0,5.0;" x1="889" x2="889" y1="56.4297" y2="772.4844"/><line style="stroke:#181818;stroke-width:0.5;stroke-dasharray:5.0,5.0;" x1="1006" x2="1006" y1="56.4297" y2="772.4844"/><line style="stroke:#181818;stroke-width:0.5;stroke-dasharray:5.0,5.0;" x1="1077" x2="1077" y1="56.4297" y2="772.4844"/><rect fill="#A8CDE2" height="30.2969" rx="2.5" ry="2.5" style="stroke:#181818;stroke-width:0.5;" width="66" x="109" y="25.1328"/><text fill="#000000" font-family="sans-serif" font-size="14" lengthAdjust="spacing" textLength="52" x="116" y="45.1279">Client A</text><rect fill="#A8CDE2" height="30.2969" rx="2.5" ry="2.5" style="stroke:#181818;stroke-width:0.5;" width="66" x="109" y="771.4844"/><text fill="#000000" font-family="sans-serif" font-size="14" lengthAdjust="spacing" textLength="52" x="116" y="791.4795">Client A</text><rect fill="#FFEDCC" height="30.2969" rx="2.5" ry="2.5" style="stroke:#181818;stroke-width:0.5;" width="67" x="185" y="25.1328"/><text fill="#000000" font-family="sans-serif" font-size="14" lengthAdjust="spacing" textLength="53" x="192" y="45.1279">Client B</text><rect fill="#FFEDCC" height="30.2969" rx="2.5" ry="2.5" style="stroke:#181818;stroke-width:0.5;" width="67" x="185" y="771.4844"/><text fill="#000000" font-family="sans-serif" font-size="14" lengthAdjust="spacing" textLength="53" x="192" y="791.4795">Client B</text><rect fill="#E2E2F0" height="30.2969" rx="2.5" ry="2.5" style="stroke:#181818;stroke-width:0.5;" width="97" x="335" y="25.1328"/><text fill="#000000" font-family="sans-serif" font-size="14" font-weight="bold" lengthAdjust="spacing" textLength="83" x="342" y="45.1279">EventLoop</text><rect fill="#E2E2F0" height="30.2969" rx="2.5" ry="2.5" style="stroke:#181818;stroke-width:0.5;" width="97" x="335" y="771.4844"/><text fill="#000000" font-family="sans-serif" font-size="14" font-weight="bold" lengthAdjust="spacing" textLength="83" x="342" y="791.4795">EventLoop</text><rect fill="#E2E2F0" height="30.2969" rx="2.5" ry="2.5" style="stroke:#181818;stroke-width:0.5;" width="126" x="442" y="25.1328"/><text fill="#000000" font-family="sans-serif" font-size="14" font-weight="bold" lengthAdjust="spacing" textLength="112" x="449" y="45.1279">StreamReader</text><rect fill="#E2E2F0" height="30.2969" rx="2.5" ry="2.5" style="stroke:#181818;stroke-width:0.5;" width="126" x="442" y="771.4844"/><text fill="#000000" font-family="sans-serif" font-size="14" font-weight="bold" lengthAdjust="spacing" textLength="112" x="449" y="791.4795">StreamReader</text><rect fill="#E2E2F0" height="30.2969" rx="2.5" ry="2.5" style="stroke:#181818;stroke-width:0.5;" width="119" x="578" y="25.1328"/><text fill="#000000" font-family="sans-serif" font-size="14" font-weight="bold" lengthAdjust="spacing" textLength="105" x="585" y="45.1279">StreamWriter</text><rect fill="#E2E2F0" height="30.2969" rx="2.5" ry="2.5" style="stroke:#181818;stroke-width:0.5;" width="119" x="578" y="771.4844"/><text fill="#000000" font-family="sans-serif" font-size="14" font-weight="bold" lengthAdjust="spacing" textLength="105" x="585" y="791.4795">StreamWriter</text><rect fill="#E2E2F0" height="30.2969" rx="2.5" ry="2.5" style="stroke:#181818;stroke-width:0.5;" width="106" x="707" y="25.1328"/><text fill="#000000" font-family="sans-serif" font-size="14" font-weight="bold" lengthAdjust="spacing" textLength="92" x="714" y="45.1279">RESTServer</text><rect fill="#E2E2F0" height="30.2969" rx="2.5" ry="2.5" style="stroke:#181818;stroke-width:0.5;" width="106" x="707" y="771.4844"/><text fill="#000000" font-family="sans-serif" font-size="14" font-weight="bold" lengthAdjust="spacing" textLength="92" x="714" y="791.4795">RESTServer</text><rect fill="#E2E2F0" height="30.2969" rx="2.5" ry="2.5" style="stroke:#181818;stroke-width:0.5;" width="133" x="823" y="25.1328"/><text fill="#000000" font-family="sans-serif" font-size="14" font-weight="bold" lengthAdjust="spacing" textLength="119" x="830" y="45.1279">HTTPResponse</text><rect fill="#E2E2F0" height="30.2969" rx="2.5" ry="2.5" style="stroke:#181818;stroke-width:0.5;" width="133" x="823" y="771.4844"/><text fill="#000000" font-family="sans-serif" font-size="14" font-weight="bold" lengthAdjust="spacing" textLength="119" x="830" y="791.4795">HTTPResponse</text><rect fill="#E2E2F0" height="30.2969" rx="2.5" ry="2.5" style="stroke:#181818;stroke-width:0.5;" width="81" x="966" y="25.1328"/><text fill="#000000" font-family="sans-serif" font-size="14" font-weight="bold" lengthAdjust="spacing" textLength="67" x="973" y="45.1279">PWMLED</text><rect fill="#E2E2F0" height="30.2969" rx="2.5" ry="2.5" style="stroke:#181818;stroke-width:0.5;" width="81" x="966" y="771.4844"/><text fill="#000000" font-family="sans-serif" font-size="14" font-weight="bold" lengthAdjust="spacing" textLength="67" x="973" y="791.4795">PWMLED</text><rect fill="#E2E2F0" height="30.2969" rx="2.5" ry="2.5" style="stroke:#181818;stroke-width:0.5;" width="41" x="1057" y="25.1328"/><text fill="#000000" font-family="sans-serif" font-size="14" lengthAdjust="spacing" textLength="27" x="1064" y="45.1279">LED</text><rect fill="#E2E2F0" height="30.2969" rx="2.5" ry="2.5" style="stroke:#181818;stroke-width:0.5;" width="41" x="1057" y="771.4844"/><text fill="#000000" font-family="sans-serif" font-size="14" lengthAdjust="spacing" textLength="27" x="1064" y="791.4795">LED</text><rect fill="#FFFFFF" height="605.6563" style="stroke:#181818;stroke-width:1.0;" width="10" x="378.5" y="157.8281"/><rect fill="#A8CDE2" height="576.5234" style="stroke:#181818;stroke-width:1.0;" width="10" x="383.5" y="186.9609"/><rect fill="#FFEDCC" height="271.1953" style="stroke:#181818;stroke-width:1.0;" width="10" x="388.5" y="492.2891"/><rect fill="#A8CDE2" height="547.3906" style="stroke:#181818;stroke-width:1.0;" width="10" x="500" y="216.0938"/><rect fill="#FFEDCC" height="242.0625" style="stroke:#181818;stroke-width:1.0;" width="10" x="505" y="521.4219"/><rect fill="#A8CDE2" height="518.2578" style="stroke:#181818;stroke-width:1.0;" width="10" x="632.5" y="245.2266"/><rect fill="#FFEDCC" height="212.9297" style="stroke:#181818;stroke-width:1.0;" width="10" x="637.5" y="550.5547"/><rect fill="#FFFFFF" height="605.6563" style="stroke:#181818;stroke-width:1.0;" width="10" x="755" y="157.8281"/><rect fill="#A8CDE2" height="489.125" style="stroke:#181818;stroke-width:1.0;" width="10" x="760" y="274.3594"/><rect fill="#FFEDCC" height="183.7969" style="stroke:#181818;stroke-width:1.0;" width="10" x="765" y="579.6875"/><rect fill="#A8CDE2" height="459.9922" style="stroke:#181818;stroke-width:1.0;" width="10" x="884.5" y="303.4922"/><rect fill="#FFEDCC" height="154.6641" style="stroke:#181818;stroke-width:1.0;" width="10" x="889.5" y="608.8203"/><rect fill="#A8CDE2" height="43.1328" style="stroke:#181818;stroke-width:1.0;" width="10" x="1001.5" y="420.0234"/><rect fill="#FFEDCC" height="38.1328" style="stroke:#181818;stroke-width:1.0;" width="10" x="1001.5" y="725.3516"/><rect fill="#FFFFFF" height="314.3281" style="stroke:#181818;stroke-width:1.0;" width="10" x="1072.5" y="449.1563"/><path d="M5,71.4297 L5,96.4297 L280,96.4297 L280,81.4297 L270,71.4297 L5,71.4297 " fill="#FEFFDD" style="stroke:#181818;stroke-width:0.5;"/><path d="M270,71.4297 L270,81.4297 L280,81.4297 L270,71.4297 " fill="#FEFFDD" style="stroke:#181818;stroke-width:0.5;"/><text fill="#000000" font-family="sans-serif" font-size="13" lengthAdjust="spacing" textLength="254" x="11" y="88.4966">HTTP request includes &#171;resource state&#187;</text><path d="M81,106.5625 L81,131.5625 L356,131.5625 L356,116.5625 L346,106.5625 L81,106.5625 " fill="#FEFFDD" style="stroke:#181818;stroke-width:0.5;"/><path d="M346,106.5625 L346,116.5625 L356,116.5625 L346,106.5625 " fill="#FEFFDD" style="stroke:#181818;stroke-width:0.5;"/><text fill="#000000" font-family="sans-serif" font-size="13" lengthAdjust="spacing" textLength="254" x="87" y="123.6294">HTTP request includes &#171;resource state&#187;</text><polygon fill="#181818" points="399.5,153.8281,389.5,157.8281,399.5,161.8281,395.5,157.8281" style="stroke:#181818;stroke-width:1.0;"/><line style="stroke:#181818;stroke-width:1.0;" x1="393.5" x2="754" y1="157.8281" y2="157.8281"/><text fill="#000000" font-family="sans-serif" font-size="13" lengthAdjust="spacing" textLength="40" x="405.5" y="152.7622">start()</text><polygon fill="#181818" points="371.5,182.9609,381.5,186.9609,371.5,190.9609,375.5,186.9609" style="stroke:#181818;stroke-width:1.0;"/><line style="stroke:#181818;stroke-width:1.0;" x1="142" x2="377.5" y1="186.9609" y2="186.9609"/><text fill="#000000" font-family="sans-serif" font-size="13" font-weight="bold" lengthAdjust="spacing" textLength="136" x="149" y="181.895">PUT /LED HTTP/1.1</text><polygon fill="#181818" points="488,212.0938,498,216.0938,488,220.0938,492,216.0938" style="stroke:#181818;stroke-width:1.0;"/><line style="stroke:#181818;stroke-width:1.0;" x1="393.5" x2="494" y1="216.0938" y2="216.0938"/><text fill="#000000" font-family="sans-serif" font-size="13" lengthAdjust="spacing" text-decoration="underline" textLength="19" x="400.5" y="211.0278">init</text><text fill="#000000" font-family="sans-serif" font-size="13" lengthAdjust="spacing" textLength="10" x="419.5" y="211.0278">()</text><polygon fill="#181818" points="620.5,241.2266,630.5,245.2266,620.5,249.2266,624.5,245.2266" style="stroke:#181818;stroke-width:1.0;"/><line style="stroke:#181818;stroke-width:1.0;" x1="393.5" x2="626.5" y1="245.2266" y2="245.2266"/><text fill="#000000" font-family="sans-serif" font-size="13" lengthAdjust="spacing" text-decoration="underline" textLength="19" x="400.5" y="240.1606">init</text><text fill="#000000" font-family="sans-serif" font-size="13" lengthAdjust="spacing" textLength="10" x="419.5" y="240.1606">()</text><polygon fill="#181818" points="748,270.3594,758,274.3594,748,278.3594,752,274.3594" style="stroke:#181818;stroke-width:1.0;"/><line style="stroke:#181818;stroke-width:1.0;" x1="393.5" x2="754" y1="274.3594" y2="274.3594"/><text fill="#000000" font-family="sans-serif" font-size="13" lengthAdjust="spacing" textLength="103" x="400.5" y="269.2935">dispatch_noun()</text><polygon fill="#181818" points="872.5,299.4922,882.5,303.4922,872.5,307.4922,876.5,303.4922" style="stroke:#181818;stroke-width:1.0;"/><line style="stroke:#181818;stroke-width:1.0;" x1="770" x2="878.5" y1="303.4922" y2="303.4922"/><text fill="#000000" font-family="sans-serif" font-size="13" lengthAdjust="spacing" text-decoration="underline" textLength="19" x="777" y="298.4263">init</text><text fill="#000000" font-family="sans-serif" font-size="13" lengthAdjust="spacing" textLength="10" x="796" y="298.4263">()</text><polygon fill="#181818" points="521,328.625,511,332.625,521,336.625,517,332.625" style="stroke:#181818;stroke-width:1.0;"/><polygon fill="#181818" points="748,328.625,758,332.625,748,336.625,752,332.625" style="stroke:#181818;stroke-width:1.0;"/><line style="stroke:#181818;stroke-width:1.0;" x1="515" x2="754" y1="332.625" y2="332.625"/><text fill="#000000" font-family="sans-serif" font-size="13" lengthAdjust="spacing" textLength="104" x="527" y="327.5591">HTTP &#171;headers&#187;</text><polygon fill="#181818" points="781,357.7578,771,361.7578,781,365.7578,777,361.7578" style="stroke:#181818;stroke-width:1.0;"/><polygon fill="#181818" points="872.5,357.7578,882.5,361.7578,872.5,365.7578,876.5,361.7578" style="stroke:#181818;stroke-width:1.0;"/><line style="stroke:#181818;stroke-width:1.0;" x1="775" x2="878.5" y1="361.7578" y2="361.7578"/><text fill="#000000" font-family="sans-serif" font-size="13" lengthAdjust="spacing" textLength="68" x="787" y="356.6919">&#171;headers&#187;</text><polygon fill="#181818" points="521,386.8906,511,390.8906,521,394.8906,517,390.8906" style="stroke:#181818;stroke-width:1.0;"/><polygon fill="#181818" points="748,386.8906,758,390.8906,748,394.8906,752,390.8906" style="stroke:#181818;stroke-width:1.0;"/><line style="stroke:#181818;stroke-width:1.0;" x1="515" x2="754" y1="390.8906" y2="390.8906"/><text fill="#000000" font-family="sans-serif" font-size="13" lengthAdjust="spacing" textLength="145" x="527" y="385.8247">JSON &#171;resource state&#187;</text><polygon fill="#181818" points="989.5,416.0234,999.5,420.0234,989.5,424.0234,993.5,420.0234" style="stroke:#181818;stroke-width:1.0;"/><line style="stroke:#181818;stroke-width:1.0;" x1="770" x2="995.5" y1="420.0234" y2="420.0234"/><text fill="#000000" font-family="sans-serif" font-size="13" lengthAdjust="spacing" textLength="179" x="777" y="414.9575">set_state(&#171;resource state&#187;)</text><polygon fill="#181818" points="1060.5,445.1563,1070.5,449.1563,1060.5,453.1563,1064.5,449.1563" style="stroke:#181818;stroke-width:1.0;"/><line style="stroke:#181818;stroke-width:1.0;" x1="1011.5" x2="1066.5" y1="449.1563" y2="449.1563"/><text fill="#000000" font-family="sans-serif" font-size="13" font-weight="bold" lengthAdjust="spacing" textLength="18" x="1018.5" y="444.0903">on</text><polygon fill="#181818" points="905.5,459.1563,895.5,463.1563,905.5,467.1563,901.5,463.1563" style="stroke:#181818;stroke-width:1.0;"/><line style="stroke:#181818;stroke-width:1.0;stroke-dasharray:2.0,2.0;" x1="899.5" x2="1005.5" y1="463.1563" y2="463.1563"/><polygon fill="#181818" points="376.5,488.2891,386.5,492.2891,376.5,496.2891,380.5,492.2891" style="stroke:#181818;stroke-width:1.0;"/><line style="stroke:#181818;stroke-width:1.0;" x1="218.5" x2="382.5" y1="492.2891" y2="492.2891"/><text fill="#000000" font-family="sans-serif" font-size="13" font-weight="bold" lengthAdjust="spacing" textLength="136" x="225.5" y="487.2231">PUT /LED HTTP/1.1</text><polygon fill="#181818" points="493,517.4219,503,521.4219,493,525.4219,497,521.4219" style="stroke:#181818;stroke-width:1.0;"/><line style="stroke:#181818;stroke-width:1.0;" x1="398.5" x2="499" y1="521.4219" y2="521.4219"/><text fill="#000000" font-family="sans-serif" font-size="13" lengthAdjust="spacing" text-decoration="underline" textLength="19" x="405.5" y="516.356">init</text><text fill="#000000" font-family="sans-serif" font-size="13" lengthAdjust="spacing" textLength="10" x="424.5" y="516.356">()</text><polygon fill="#181818" points="625.5,546.5547,635.5,550.5547,625.5,554.5547,629.5,550.5547" style="stroke:#181818;stroke-width:1.0;"/><line style="stroke:#181818;stroke-width:1.0;" x1="398.5" x2="631.5" y1="550.5547" y2="550.5547"/><text fill="#000000" font-family="sans-serif" font-size="13" lengthAdjust="spacing" text-decoration="underline" textLength="19" x="405.5" y="545.4888">init</text><text fill="#000000" font-family="sans-serif" font-size="13" lengthAdjust="spacing" textLength="10" x="424.5" y="545.4888">()</text><polygon fill="#181818" points="753,575.6875,763,579.6875,753,583.6875,757,579.6875" style="stroke:#181818;stroke-width:1.0;"/><line style="stroke:#181818;stroke-width:1.0;" x1="398.5" x2="759" y1="579.6875" y2="579.6875"/><text fill="#000000" font-family="sans-serif" font-size="13" lengthAdjust="spacing" textLength="103" x="405.5" y="574.6216">dispatch_noun()</text><polygon fill="#181818" points="877.5,604.8203,887.5,608.8203,877.5,612.8203,881.5,608.8203" style="stroke:#181818;stroke-width:1.0;"/><line style="stroke:#181818;stroke-width:1.0;" x1="775" x2="883.5" y1="608.8203" y2="608.8203"/><text fill="#000000" font-family="sans-serif" font-size="13" lengthAdjust="spacing" text-decoration="underline" textLength="19" x="782" y="603.7544">init</text><text fill="#000000" font-family="sans-serif" font-size="13" lengthAdjust="spacing" textLength="10" x="801" y="603.7544">()</text><polygon fill="#181818" points="526,633.9531,516,637.9531,526,641.9531,522,637.9531" style="stroke:#181818;stroke-width:1.0;"/><polygon fill="#181818" points="753,633.9531,763,637.9531,753,641.9531,757,637.9531" style="stroke:#181818;stroke-width:1.0;"/><line style="stroke:#181818;stroke-width:1.0;" x1="520" x2="759" y1="637.9531" y2="637.9531"/><text fill="#000000" font-family="sans-serif" font-size="13" lengthAdjust="spacing" textLength="104" x="532" y="632.8872">HTTP &#171;headers&#187;</text><polygon fill="#181818" points="786,663.0859,776,667.0859,786,671.0859,782,667.0859" style="stroke:#181818;stroke-width:1.0;"/><polygon fill="#181818" points="877.5,663.0859,887.5,667.0859,877.5,671.0859,881.5,667.0859" style="stroke:#181818;stroke-width:1.0;"/><line style="stroke:#181818;stroke-width:1.0;" x1="780" x2="883.5" y1="667.0859" y2="667.0859"/><text fill="#000000" font-family="sans-serif" font-size="13" lengthAdjust="spacing" textLength="68" x="792" y="662.02">&#171;headers&#187;</text><polygon fill="#181818" points="526,692.2188,516,696.2188,526,700.2188,522,696.2188" style="stroke:#181818;stroke-width:1.0;"/><polygon fill="#181818" points="753,692.2188,763,696.2188,753,700.2188,757,696.2188" style="stroke:#181818;stroke-width:1.0;"/><line style="stroke:#181818;stroke-width:1.0;" x1="520" x2="759" y1="696.2188" y2="696.2188"/><text fill="#000000" font-family="sans-serif" font-size="13" lengthAdjust="spacing" textLength="145" x="532" y="691.1528">JSON &#171;resource state&#187;</text><polygon fill="#181818" points="989.5,721.3516,999.5,725.3516,989.5,729.3516,993.5,725.3516" style="stroke:#181818;stroke-width:1.0;"/><line style="stroke:#181818;stroke-width:1.0;" x1="775" x2="995.5" y1="725.3516" y2="725.3516"/><text fill="#000000" font-family="sans-serif" font-size="13" lengthAdjust="spacing" textLength="179" x="782" y="720.2856">set_state(&#171;resource state&#187;)</text><line style="stroke:#EC7A6E;stroke-width:2.0;" x1="1054.5" x2="1064.5" y1="749.4844" y2="759.4844"/><line style="stroke:#EC7A6E;stroke-width:2.0;" x1="1054.5" x2="1064.5" y1="759.4844" y2="749.4844"/><line style="stroke:#EC7A6E;stroke-width:1.0;" x1="1011.5" x2="1059.5" y1="754.4844" y2="754.4844"/><text fill="#000000" font-family="sans-serif" font-size="13" font-weight="bold" lengthAdjust="spacing" textLength="21" x="1018.5" y="749.4185">off</text><!--SRC=[rLHDYzim5BpxLmZdiZMqkzkFRGaXaBI1Rjcs8KxPGob6jL-882kvaXos_xvFbcGhjWgRtdeoJvePIJEJr5HgLhAQSatIzmS6-5saX2fYXmMPq7Tb1I-JEe9S1iWbcUnsK9NbAJBBLaVSlHEYph8MliX_yn4ernBemmPe1TBZx1H7takcUwITaY5qiygtESXZ1xG34H9roQkh8VxZThlUWAe5L-0OVdISroFE-lxptUg3lyZwrW7V3828QH7uTOYRgoJvAHv9cbA5XZ2HfkH1LCq1JfXZjsA-U0U0LmH5lV9UwpekQvquMV9FxKMuqFXmuvWhGs8S8X9-DQ0qORmyD1KeCflXcXADB84eJP4qdxSgHc0ii_mt6HVUyxdrP6emKbyyIsYfsT70tQEwsNgN-2RtJ8pjsvPScZ3CLIwlNrndsO3N5J-nes5RvwUaA1XdkYZ2mzrcZ6R3-GlDRaPezZLJKZ5LKrtk2ouQFdvkp-mDyb76Z-mwFMJEmZUs6M4a-tPM9ei0rfzm2ebAVSg_Vecd6uQwliL8GHVjvaKC7jg6lxJUCXnG0UCqqGeUPecB3X3SEgaWLF8LMPvT4VUFTsv5nhGdLMH4Ut95FFFyYWoO_rj5EijC0xvFe7nBR-37OzULtGvJ_GC0]--></g></svg>