<?xml version="1.0" encoding="us-ascii" standalone="no"?><svg xmlns="http://www.w3.org/2000/svg" xmlns:xlink="http://www.w3.org/1999/xlink" contentStyleType="text/css" height="930px" preserveAspectRatio="none" style="width:1104px;height:930px;background:#FFFFFF;" version="1.1" viewBox="0 0 1104 930" width="1104px" zoomAndPan="magnify"><defs/><g><rect fill="#DDDDDD" height="918.1797" style="stroke:#181818;stroke-width:0.5;" width="370" x="331" y="6"/><text fill="#000000" font-family="monospace" font-size="13" font-weight="bold" lengthAdjust="spacing" textLength="56" x="458" y="18.0669">asyncio</text><text fill="#000000" font-family="sans-serif" font-size="13" font-weight="bold" lengthAdjust="spacing" textLength="55" x="519" y="18.0669">module</text><rect fill="#DDDDDD" height="918.1797" style="stroke:#181818;stroke-width:0.5;" width="257" x="703" y="6"/><text fill="#000000" font-family="monospace" font-size="13" font-weight="bold" lengthAdjust="spacing" textLength="32" x="785.5" y="18.0669">http</text><text fill="#000000" font-family="sans-serif" font-size="13" font-weight="bold" lengthAdjust="spacing" textLength="55" x="822.5" y="18.0669">module</text><rect fill="#FFFFFF" height="723.0547" style="stroke:#181818;stroke-width:1.0;" width="10" x="378.5" y="157.8281"/><rect fill="#A8CDE2" height="363.5938" style="stroke:#181818;stroke-width:1.0;" width="10" x="383.5" y="186.9609"/><rect fill="#FFEDCC" height="301.1953" style="stroke:#181818;stroke-width:1.0;" width="10" x="383.5" y="579.6875"/><rect fill="#A8CDE2" height="334.4609" style="stroke:#181818;stroke-width:1.0;" width="10" x="500" y="216.0938"/><rect fill="#FFEDCC" height="272.0625" style="stroke:#181818;stroke-width:1.0;" width="10" x="500" y="608.8203"/><rect fill="#A8CDE2" height="305.3281" style="stroke:#181818;stroke-width:1.0;" width="10" x="632.5" y="245.2266"/><rect fill="#FFEDCC" height="242.9297" style="stroke:#181818;stroke-width:1.0;" width="10" x="632.5" y="637.9531"/><rect fill="#FFFFFF" height="723.0547" style="stroke:#181818;stroke-width:1.0;" width="10" x="755" y="157.8281"/><rect fill="#A8CDE2" height="217.9297" style="stroke:#181818;stroke-width:1.0;" width="10" x="760" y="274.3594"/><rect fill="#FFEDCC" height="213.7969" style="stroke:#181818;stroke-width:1.0;" width="10" x="760" y="667.0859"/><rect fill="#A8CDE2" height="217.9297" style="stroke:#181818;stroke-width:1.0;" width="10" x="884.5" y="303.4922"/><rect fill="#FFEDCC" height="154.6641" style="stroke:#181818;stroke-width:1.0;" width="10" x="884.5" y="726.2188"/><rect fill="#A8CDE2" height="43.1328" style="stroke:#181818;stroke-width:1.0;" width="10" x="1001.5" y="420.0234"/><rect fill="#FFEDCC" height="38.1328" style="stroke:#181818;stroke-width:1.0;" width="10" x="1001.5" y="842.75"/><rect fill="#FFFFFF" height="247.9297" style="stroke:#181818;stroke-width:1.0;" width="10" x="1072.5" y="449.1563"/><rect fill="#FFFFFF" height="9" style="stroke:#181818;stroke-width:1.0;" width="10" x="1072.5" y="871.8828"/><line style="stroke:#181818;stroke-width:0.5;stroke-dasharray:5.0,5.0;" x1="142" x2="142" y1="56.4297" y2="889.8828"/><line style="stroke:#181818;stroke-width:0.5;stroke-dasharray:5.0,5.0;" x1="218" x2="218" y1="56.4297" y2="889.8828"/><line style="stroke:#181818;stroke-width:0.5;stroke-dasharray:5.0,5.0;" x1="383" x2="383" y1="56.4297" y2="889.8828"/><line style="stroke:#181818;stroke-width:0.5;stroke-dasharray:5.0,5.0;" x1="505" x2="505" y1="56.4297" y2="889.8828"/><line style="stroke:#181818;stroke-width:0.5;stroke-dasharray:5.0,5.0;" x1="637" x2="637" y1="56.4297" y2="889.8828"/><line style="stroke:#181818;stroke-width:0.5;stroke-dasharray:5.0,5.0;" x1="760" x2="760" y1="56.4297" y2="889.8828"/><line style="stroke:#181818;stroke-width:0.5;stroke-dasharray:5.0,5.0;" x1="889" x2="889" y1="56.4297" y2="889.8828"/><line style="stroke:#181818;stroke-width:0.5;stroke-dasharray:5.0,5.0;" x1="1006" x2="1006" y1="56.4297" y2="889.8828"/><line style="stroke:#181818;stroke-width:0.5;stroke-dasharray:5.0,5.0;" x1="1077" x2="1077" y1="56.4297" y2="889.8828"/><rect fill="#A8CDE2" height="30.2969" rx="2.5" ry="2.5" style="stroke:#181818;stroke-width:0.5;" width="66" x="109" y="25.1328"/><text fill="#000000" font-family="sans-serif" font-size="14" lengthAdjust="spacing" textLength="52" x="116" y="45.1279">Client A</text><rect fill="#A8CDE2" height="30.2969" rx="2.5" ry="2.5" style="stroke:#181818;stroke-width:0.5;" width="66" x="109" y="888.8828"/><text fill="#000000" font-family="sans-serif" font-size="14" lengthAdjust="spacing" textLength="52" x="116" y="908.8779">Client A</text><rect fill="#FFEDCC" height="30.2969" rx="2.5" ry="2.5" style="stroke:#181818;stroke-width:0.5;" width="67" x="185" y="25.1328"/><text fill="#000000" font-family="sans-serif" font-size="14" lengthAdjust="spacing" textLength="53" x="192" y="45.1279">Client B</text><rect fill="#FFEDCC" height="30.2969" rx="2.5" ry="2.5" style="stroke:#181818;stroke-width:0.5;" width="67" x="185" y="888.8828"/><text fill="#000000" font-family="sans-serif" font-size="14" lengthAdjust="spacing" textLength="53" x="192" y="908.8779">Client B</text><rect fill="#E2E2F0" height="30.2969" rx="2.5" ry="2.5" style="stroke:#181818;stroke-width:0.5;" width="97" x="335" y="25.1328"/><text fill="#000000" font-family="sans-serif" font-size="14" font-weight="bold" lengthAdjust="spacing" textLength="83" x="342" y="45.1279">EventLoop</text><rect fill="#E2E2F0" height="30.2969" rx="2.5" ry="2.5" style="stroke:#181818;stroke-width:0.5;" width="97" x="335" y="888.8828"/><text fill="#000000" font-family="sans-serif" font-size="14" font-weight="bold" lengthAdjust="spacing" textLength="83" x="342" y="908.8779">EventLoop</text><rect fill="#E2E2F0" height="30.2969" rx="2.5" ry="2.5" style="stroke:#181818;stroke-width:0.5;" width="126" x="442" y="25.1328"/><text fill="#000000" font-family="sans-serif" font-size="14" font-weight="bold" lengthAdjust="spacing" textLength="112" x="449" y="45.1279">StreamReader</text><rect fill="#E2E2F0" height="30.2969" rx="2.5" ry="2.5" style="stroke:#181818;stroke-width:0.5;" width="126" x="442" y="888.8828"/><text fill="#000000" font-family="sans-serif" font-size="14" font-weight="bold" lengthAdjust="spacing" textLength="112" x="449" y="908.8779">StreamReader</text><rect fill="#E2E2F0" height="30.2969" rx="2.5" ry="2.5" style="stroke:#181818;stroke-width:0.5;" width="119" x="578" y="25.1328"/><text fill="#000000" font-family="sans-serif" font-size="14" font-weight="bold" lengthAdjust="spacing" textLength="105" x="585" y="45.1279">StreamWriter</text><rect fill="#E2E2F0" height="30.2969" rx="2.5" ry="2.5" style="stroke:#181818;stroke-width:0.5;" width="119" x="578" y="888.8828"/><text fill="#000000" font-family="sans-serif" font-size="14" font-weight="bold" lengthAdjust="spacing" textLength="105" x="585" y="908.8779">StreamWriter</text><rect fill="#E2E2F0" height="30.2969" rx="2.5" ry="2.5" style="stroke:#181818;stroke-width:0.5;" width="106" x="707" y="25.1328"/><text fill="#000000" font-family="sans-serif" font-size="14" font-weight="bold" lengthAdjust="spacing" textLength="92" x="714" y="45.1279">RESTServer</text><rect fill="#E2E2F0" height="30.2969" rx="2.5" ry="2.5" style="stroke:#181818;stroke-width:0.5;" width="106" x="707" y="888.8828"/><text fill="#000000" font-family="sans-serif" font-size="14" font-weight="bold" lengthAdjust="spacing" textLength="92" x="714" y="908.8779">RESTServer</text><rect fill="#E2E2F0" height="30.2969" rx="2.5" ry="2.5" style="stroke:#181818;stroke-width:0.5;" width="133" x="823" y="25.1328"/><text fill="#000000" font-family="sans-serif" font-size="14" font-weight="bold" lengthAdjust="spacing" textLength="119" x="830" y="45.1279">HTTPResponse</text><rect fill="#E2E2F0" height="30.2969" rx="2.5" ry="2.5" style="stroke:#181818;stroke-width:0.5;" width="133" x="823" y="888.8828"/><text fill="#000000" font-family="sans-serif" font-size="14" font-weight="bold" lengthAdjust="spacing" textLength="119" x="830" y="908.8779">HTTPResponse</text><rect fill="#E2E2F0" height="30.2969" rx="2.5" ry="2.5" style="stroke:#181818;stroke-width:0.5;" width="81" x="966" y="25.1328"/><text fill="#000000" font-family="sans-serif" font-size="14" font-weight="bold" lengthAdjust="spacing" textLength="67" x="973" y="45.1279">PWMLED</text><rect fill="#E2E2F0" height="30.2969" rx="2.5" ry="2.5" style="stroke:#181818;stroke-width:0.5;" width="81" x="966" y="888.8828"/><text fill="#000000" font-family="sans-serif" font-size="14" font-weight="bold" lengthAdjust="spacing" textLength="67" x="973" y="908.8779">PWMLED</text><rect fill="#E2E2F0" height="30.2969" rx="2.5" ry="2.5" style="stroke:#181818;stroke-width:0.5;" width="41" x="1057" y="25.1328"/><text fill="#000000" font-family="sans-serif" font-size="14" lengthAdjust="spacing" textLength="27" x="1064" y="45.1279">LED</text><rect fill="#E2E2F0" height="30.2969" rx="2.5" ry="2.5" style="stroke:#181818;stroke-width:0.5;" width="41" x="1057" y="888.8828"/><text fill="#000000" font-family="sans-serif" font-size="14" lengthAdjust="spacing" textLength="27" x="1064" y="908.8779">LED</text><rect fill="#FFFFFF" height="723.0547" style="stroke:#181818;stroke-width:1.0;" width="10" x="378.5" y="157.8281"/><rect fill="#A8CDE2" height="363.5938" style="stroke:#181818;stroke-width:1.0;" width="10" x="383.5" y="186.9609"/><rect fill="#FFEDCC" height="301.1953" style="stroke:#181818;stroke-width:1.0;" width="10" x="383.5" y="579.6875"/><rect fill="#A8CDE2" height="334.4609" style="stroke:#181818;stroke-width:1.0;" width="10" x="500" y="216.0938"/><rect fill="#FFEDCC" height="272.0625" style="stroke:#181818;stroke-width:1.0;" width="10" x="500" y="608.8203"/><rect fill="#A8CDE2" height="305.3281" style="stroke:#181818;stroke-width:1.0;" width="10" x="632.5" y="245.2266"/><rect fill="#FFEDCC" height="242.9297" style="stroke:#181818;stroke-width:1.0;" width="10" x="632.5" y="637.9531"/><rect fill="#FFFFFF" height="723.0547" style="stroke:#181818;stroke-width:1.0;" width="10" x="755" y="157.8281"/><rect fill="#A8CDE2" height="217.9297" style="stroke:#181818;stroke-width:1.0;" width="10" x="760" y="274.3594"/><rect fill="#FFEDCC" height="213.7969" style="stroke:#181818;stroke-width:1.0;" width="10" x="760" y="667.0859"/><rect fill="#A8CDE2" height="217.9297" style="stroke:#181818;stroke-width:1.0;" width="10" x="884.5" y="303.4922"/><rect fill="#FFEDCC" height="154.6641" style="stroke:#181818;stroke-width:1.0;" width="10" x="884.5" y="726.2188"/><rect fill="#A8CDE2" height="43.1328" style="stroke:#181818;stroke-width:1.0;" width="10" x="1001.5" y="420.0234"/><rect fill="#FFEDCC" height="38.1328" style="stroke:#181818;stroke-width:1.0;" width="10" x="1001.5" y="842.75"/><rect fill="#FFFFFF" height="247.9297" style="stroke:#181818;stroke-width:1.0;" width="10" x="1072.5" y="449.1563"/><rect fill="#FFFFFF" height="9" style="stroke:#181818;stroke-width:1.0;" width="10" x="1072.5" y="871.8828"/><path d="M5,71.4297 L5,96.4297 L280,96.4297 L280,81.4297 L270,71.4297 L5,71.4297 " fill="#FEFFDD" style="stroke:#181818;stroke-width:0.5;"/><path d="M270,71.4297 L270,81.4297 L280,81.4297 L270,71.4297 " fill="#FEFFDD" style="stroke:#181818;stroke-width:0.5;"/><text fill="#000000" font-family="sans-serif" font-size="13" lengthAdjust="spacing" textLength="254" x="11" y="88.4966">HTTP request includes &#171;resource state&#187;</text><path d="M81,106.5625 L81,131.5625 L356,131.5625 L356,116.5625 L346,106.5625 L81,106.5625 " fill="#FEFFDD" style="stroke:#181818;stroke-width:0.5;"/><path d="M346,106.5625 L346,116.5625 L356,116.5625 L346,106.5625 " fill="#FEFFDD" style="stroke:#181818;stroke-width:0.5;"/><text fill="#000000" font-family="sans-serif" font-size="13" lengthAdjust="spacing" textLength="254" x="87" y="123.6294">HTTP request includes &#171;resource state&#187;</text><polygon fill="#181818" points="399.5,153.8281,389.5,157.8281,399.5,161.8281,395.5,157.8281" style="stroke:#181818;stroke-width:1.0;"/><line style="stroke:#181818;stroke-width:1.0;" x1="393.5" x2="754" y1="157.8281" y2="157.8281"/><text fill="#000000" font-family="sans-serif" font-size="13" lengthAdjust="spacing" textLength="40" x="405.5" y="152.7622">start()</text><polygon fill="#181818" points="371.5,182.9609,381.5,186.9609,371.5,190.9609,375.5,186.9609" style="stroke:#181818;stroke-width:1.0;"/><line style="stroke:#181818;stroke-width:1.0;" x1="142" x2="377.5" y1="186.9609" y2="186.9609"/><text fill="#000000" font-family="sans-serif" font-size="13" font-weight="bold" lengthAdjust="spacing" textLength="136" x="149" y="181.895">PUT /LED HTTP/1.1</text><polygon fill="#181818" points="488,212.0938,498,216.0938,488,220.0938,492,216.0938" style="stroke:#181818;stroke-width:1.0;"/><line style="stroke:#181818;stroke-width:1.0;" x1="393.5" x2="494" y1="216.0938" y2="216.0938"/><text fill="#000000" font-family="sans-serif" font-size="13" lengthAdjust="spacing" text-decoration="underline" textLength="19" x="400.5" y="211.0278">init</text><text fill="#000000" font-family="sans-serif" font-size="13" lengthAdjust="spacing" textLength="10" x="419.5" y="211.0278">()</text><polygon fill="#181818" points="620.5,241.2266,630.5,245.2266,620.5,249.2266,624.5,245.2266" style="stroke:#181818;stroke-width:1.0;"/><line style="stroke:#181818;stroke-width:1.0;" x1="393.5" x2="626.5" y1="245.2266" y2="245.2266"/><text fill="#000000" font-family="sans-serif" font-size="13" lengthAdjust="spacing" text-decoration="underline" textLength="19" x="400.5" y="240.1606">init</text><text fill="#000000" font-family="sans-serif" font-size="13" lengthAdjust="spacing" textLength="10" x="419.5" y="240.1606">()</text><polygon fill="#181818" points="748,270.3594,758,274.3594,748,278.3594,752,274.3594" style="stroke:#181818;stroke-width:1.0;"/><line style="stroke:#181818;stroke-width:1.0;" x1="393.5" x2="754" y1="274.3594" y2="274.3594"/><text fill="#000000" font-family="sans-serif" font-size="13" lengthAdjust="spacing" textLength="103" x="400.5" y="269.2935">dispatch_noun()</text><polygon fill="#181818" points="872.5,299.4922,882.5,303.4922,872.5,307.4922,876.5,303.4922" style="stroke:#181818;stroke-width:1.0;"/><line style="stroke:#181818;stroke-width:1.0;" x1="770" x2="878.5" y1="303.4922" y2="303.4922"/><text fill="#000000" font-family="sans-serif" font-size="13" lengthAdjust="spacing" text-decoration="underline" textLength="19" x="777" y="298.4263">init</text><text fill="#000000" font-family="sans-serif" font-size="13" lengthAdjust="spacing" textLength="10" x="796" y="298.4263">()</text><polygon fill="#181818" points="521,328.625,511,332.625,521,336.625,517,332.625" style="stroke:#181818;stroke-width:1.0;"/><polygon fill="#181818" points="748,328.625,758,332.625,748,336.625,752,332.625" style="stroke:#181818;stroke-width:1.0;"/><line style="stroke:#181818;stroke-width:1.0;" x1="515" x2="754" y1="332.625" y2="332.625"/><text fill="#000000" font-family="sans-serif" font-size="13" lengthAdjust="spacing" textLength="104" x="527" y="327.5591">HTTP &#171;headers&#187;</text><polygon fill="#181818" points="781,357.7578,771,361.7578,781,365.7578,777,361.7578" style="stroke:#181818;stroke-width:1.0;"/><polygon fill="#181818" points="872.5,357.7578,882.5,361.7578,872.5,365.7578,876.5,361.7578" style="stroke:#181818;stroke-width:1.0;"/><line style="stroke:#181818;stroke-width:1.0;" x1="775" x2="878.5" y1="361.7578" y2="361.7578"/><text fill="#000000" font-family="sans-serif" font-size="13" lengthAdjust="spacing" textLength="68" x="787" y="356.6919">&#171;headers&#187;</text><polygon fill="#181818" points="521,386.8906,511,390.8906,521,394.8906,517,390.8906" style="stroke:#181818;stroke-width:1.0;"/><polygon fill="#181818" points="748,386.8906,758,390.8906,748,394.8906,752,390.8906" style="stroke:#181818;stroke-width:1.0;"/><line style="stroke:#181818;stroke-width:1.0;" x1="515" x2="754" y1="390.8906" y2="390.8906"/><text fill="#000000" font-family="sans-serif" font-size="13" lengthAdjust="spacing" textLength="145" x="527" y="385.8247">JSON &#171;resource state&#187;</text><polygon fill="#181818" points="989.5,416.0234,999.5,420.0234,989.5,424.0234,993.5,420.0234" style="stroke:#181818;stroke-width:1.0;"/><line style="stroke:#181818;stroke-width:1.0;" x1="770" x2="995.5" y1="420.0234" y2="420.0234"/><text fill="#000000" font-family="sans-serif" font-size="13" lengthAdjust="spacing" textLength="179" x="777" y="414.9575">set_state(&#171;resource state&#187;)</text><polygon fill="#181818" points="1060.5,445.1563,1070.5,449.1563,1060.5,453.1563,1064.5,449.1563" style="stroke:#181818;stroke-width:1.0;"/><line style="stroke:#181818;stroke-width:1.0;" x1="1011.5" x2="1066.5" y1="449.1563" y2="449.1563"/><text fill="#000000" font-family="sans-serif" font-size="13" font-weight="bold" lengthAdjust="spacing" textLength="18" x="1018.5" y="444.0903">on</text><polygon fill="#181818" points="905.5,459.1563,895.5,463.1563,905.5,467.1563,901.5,463.1563" style="stroke:#181818;stroke-width:1.0;"/><line style="stroke:#181818;stroke-width:1.0;stroke-dasharray:2.0,2.0;" x1="899.5" x2="1005.5" y1="463.1563" y2="463.1563"/><polygon fill="#181818" points="872.5,488.2891,882.5,492.2891,872.5,496.2891,876.5,492.2891" style="stroke:#181818;stroke-width:1.0;"/><line style="stroke:#181818;stroke-width:1.0;" x1="765" x2="878.5" y1="492.2891" y2="492.2891"/><text fill="#000000" font-family="sans-serif" font-size="13" lengthAdjust="spacing" textLength="41" x="772" y="487.2231">send()</text><line style="stroke:#A80036;stroke-width:2.0;" x1="751" x2="769" y1="483.2891" y2="501.2891"/><line style="stroke:#A80036;stroke-width:2.0;" x1="751" x2="769" y1="501.2891" y2="483.2891"/><polygon fill="#181818" points="653.5,517.4219,643.5,521.4219,653.5,525.4219,649.5,521.4219" style="stroke:#181818;stroke-width:1.0;"/><line style="stroke:#181818;stroke-width:1.0;" x1="647.5" x2="888.5" y1="521.4219" y2="521.4219"/><text fill="#000000" font-family="sans-serif" font-size="13" lengthAdjust="spacing" textLength="134" x="659.5" y="516.356">HTTP &#171;HTTP 200 OK&#187;</text><line style="stroke:#A80036;stroke-width:2.0;" x1="880.5" x2="898.5" y1="512.4219" y2="530.4219"/><line style="stroke:#A80036;stroke-width:2.0;" x1="880.5" x2="898.5" y1="530.4219" y2="512.4219"/><polygon fill="#181818" points="153,546.5547,143,550.5547,153,554.5547,149,550.5547" style="stroke:#181818;stroke-width:1.0;"/><line style="stroke:#181818;stroke-width:1.0;" x1="147" x2="636.5" y1="550.5547" y2="550.5547"/><text fill="#000000" font-family="sans-serif" font-size="13" lengthAdjust="spacing" textLength="130" x="159" y="545.4888">HTTP&#171;HTTP 200 OK&#187;</text><line style="stroke:#A80036;stroke-width:2.0;" x1="628.5" x2="646.5" y1="541.5547" y2="559.5547"/><line style="stroke:#A80036;stroke-width:2.0;" x1="628.5" x2="646.5" y1="559.5547" y2="541.5547"/><line style="stroke:#A80036;stroke-width:2.0;" x1="496" x2="514" y1="541.5547" y2="559.5547"/><line style="stroke:#A80036;stroke-width:2.0;" x1="496" x2="514" y1="559.5547" y2="541.5547"/><line style="stroke:#A80036;stroke-width:2.0;" x1="374.5" x2="392.5" y1="541.5547" y2="559.5547"/><line style="stroke:#A80036;stroke-width:2.0;" x1="374.5" x2="392.5" y1="559.5547" y2="541.5547"/><polygon fill="#181818" points="371.5,575.6875,381.5,579.6875,371.5,583.6875,375.5,579.6875" style="stroke:#181818;stroke-width:1.0;"/><line style="stroke:#181818;stroke-width:1.0;" x1="218.5" x2="377.5" y1="579.6875" y2="579.6875"/><text fill="#000000" font-family="sans-serif" font-size="13" font-weight="bold" lengthAdjust="spacing" textLength="136" x="225.5" y="574.6216">PUT /LED HTTP/1.1</text><polygon fill="#181818" points="488,604.8203,498,608.8203,488,612.8203,492,608.8203" style="stroke:#181818;stroke-width:1.0;"/><line style="stroke:#181818;stroke-width:1.0;" x1="393.5" x2="494" y1="608.8203" y2="608.8203"/><text fill="#000000" font-family="sans-serif" font-size="13" lengthAdjust="spacing" text-decoration="underline" textLength="19" x="400.5" y="603.7544">init</text><text fill="#000000" font-family="sans-serif" font-size="13" lengthAdjust="spacing" textLength="10" x="419.5" y="603.7544">()</text><polygon fill="#181818" points="620.5,633.9531,630.5,637.9531,620.5,641.9531,624.5,637.9531" style="stroke:#181818;stroke-width:1.0;"/><line style="stroke:#181818;stroke-width:1.0;" x1="393.5" x2="626.5" y1="637.9531" y2="637.9531"/><text fill="#000000" font-family="sans-serif" font-size="13" lengthAdjust="spacing" text-decoration="underline" textLength="19" x="400.5" y="632.8872">init</text><text fill="#000000" font-family="sans-serif" font-size="13" lengthAdjust="spacing" textLength="10" x="419.5" y="632.8872">()</text><polygon fill="#181818" points="748,663.0859,758,667.0859,748,671.0859,752,667.0859" style="stroke:#181818;stroke-width:1.0;"/><line style="stroke:#181818;stroke-width:1.0;" x1="393.5" x2="754" y1="667.0859" y2="667.0859"/><text fill="#000000" font-family="sans-serif" font-size="13" lengthAdjust="spacing" textLength="103" x="400.5" y="662.02">dispatch_noun()</text><polygon fill="#181818" points="872.5,722.2188,882.5,726.2188,872.5,730.2188,876.5,726.2188" style="stroke:#181818;stroke-width:1.0;"/><line style="stroke:#181818;stroke-width:1.0;" x1="770" x2="878.5" y1="726.2188" y2="726.2188"/><text fill="#000000" font-family="sans-serif" font-size="13" lengthAdjust="spacing" text-decoration="underline" textLength="19" x="777" y="721.1528">init</text><text fill="#000000" font-family="sans-serif" font-size="13" lengthAdjust="spacing" textLength="10" x="796" y="721.1528">()</text><polygon fill="#181818" points="521,751.3516,511,755.3516,521,759.3516,517,755.3516" style="stroke:#181818;stroke-width:1.0;"/><polygon fill="#181818" points="748,751.3516,758,755.3516,748,759.3516,752,755.3516" style="stroke:#181818;stroke-width:1.0;"/><line style="stroke:#181818;stroke-width:1.0;" x1="515" x2="754" y1="755.3516" y2="755.3516"/><text fill="#000000" font-family="sans-serif" font-size="13" lengthAdjust="spacing" textLength="104" x="527" y="750.2856">HTTP &#171;headers&#187;</text><polygon fill="#181818" points="781,780.4844,771,784.4844,781,788.4844,777,784.4844" style="stroke:#181818;stroke-width:1.0;"/><polygon fill="#181818" points="872.5,780.4844,882.5,784.4844,872.5,788.4844,876.5,784.4844" style="stroke:#181818;stroke-width:1.0;"/><line style="stroke:#181818;stroke-width:1.0;" x1="775" x2="878.5" y1="784.4844" y2="784.4844"/><text fill="#000000" font-family="sans-serif" font-size="13" lengthAdjust="spacing" textLength="68" x="787" y="779.4185">&#171;headers&#187;</text><polygon fill="#181818" points="521,809.6172,511,813.6172,521,817.6172,517,813.6172" style="stroke:#181818;stroke-width:1.0;"/><polygon fill="#181818" points="748,809.6172,758,813.6172,748,817.6172,752,813.6172" style="stroke:#181818;stroke-width:1.0;"/><line style="stroke:#181818;stroke-width:1.0;" x1="515" x2="754" y1="813.6172" y2="813.6172"/><text fill="#000000" font-family="sans-serif" font-size="13" lengthAdjust="spacing" textLength="145" x="527" y="808.5513">JSON &#171;resource state&#187;</text><polygon fill="#181818" points="989.5,838.75,999.5,842.75,989.5,846.75,993.5,842.75" style="stroke:#181818;stroke-width:1.0;"/><line style="stroke:#181818;stroke-width:1.0;" x1="770" x2="995.5" y1="842.75" y2="842.75"/><text fill="#000000" font-family="sans-serif" font-size="13" lengthAdjust="spacing" textLength="179" x="777" y="837.6841">set_state(&#171;resource state&#187;)</text><polygon fill="#181818" points="1060.5,867.8828,1070.5,871.8828,1060.5,875.8828,1064.5,871.8828" style="stroke:#181818;stroke-width:1.0;"/><line style="stroke:#181818;stroke-width:1.0;" x1="1011.5" x2="1066.5" y1="871.8828" y2="871.8828"/><text fill="#000000" font-family="sans-serif" font-size="13" font-weight="bold" lengthAdjust="spacing" textLength="21" x="1018.5" y="866.8169">off</text><!--SRC=[rLHTRziW57tdLo3tfRMqDUq-D4LHfAIBr6xT6iMP-cXHcoX8ANY0e_NVxsB0nZQLchtjoRfmpeLxpi4LaPeLh29Su-Jcm2Xy5mac2jjYWS_8bwAarwYA89S1SedFTZjQ5aKVcQQh8-pU2r6bQGDVP2zy1CgqfEHvGqb9fSVPAevyb4ntI5kX8NIpohOPbSSMQ0ii9FJ57oP3_ErskzvGLGckg6Fuqd4-ZZZhnn_tgw_-8kix1_mq00AcGS3N8JvF47eIVt2I40M2C94a-5cKzO7sc6ErOhfu1IWlCJJrdVTQL_6sLedUaX-rQyA5Xi6DOYuCo2Y49VrTKwKnuyMXBgd2inciAL7BWcAb2P3cywQBQJ1ki_otDiwyTtEhoTHWf3w_GAJGx6ZWRgYsjjeXd-IE2RRzsk9BOuQvokNL-wiq7V3Qu2DR6hPLVehpd76cypmyt6t6QDQSLsXsCqApqqnnoLH5TB7FkQZvUDoEsGdahOmVsMPwo9o5CpOUWINxfbR6Ym3MdT27H5jzonv-njqDJLtVWQLKvytcUGmUoWOlhPCC2kW0TXfh1G-zX4K726wDIXfsYakd87eW6oHJI_7YmuLQzK9ddLZDvteomG_VOJZFR4z5tcoWkb1QwcjC_wpRsZtzjWu3lZmvuEv_VMh0nxGt1Nn4UtF07JCmhN7rzBpxA_odUMyLxETzjni6_Yy0]--></g></svg>