<?xml version="1.0" encoding="us-ascii" standalone="no"?><svg xmlns="http://www.w3.org/2000/svg" xmlns:xlink="http://www.w3.org/1999/xlink" contentStyleType="text/css" height="553px" preserveAspectRatio="none" style="width:948px;height:553px;background:#FFFFFF;" version="1.1" viewBox="0 0 948 553" width="948px" zoomAndPan="magnify"><defs/><g><rect fill="#DDDDDD" height="541.7188" style="stroke:#181818;stroke-width:0.5;" width="370" x="139" y="6"/><text fill="#000000" font-family="monospace" font-size="13" font-weight="bold" lengthAdjust="spacing" textLength="56" x="266" y="18.0669">asyncio</text><text fill="#000000" font-family="sans-serif" font-size="13" font-weight="bold" lengthAdjust="spacing" textLength="55" x="327" y="18.0669">module</text><rect fill="#DDDDDD" height="541.7188" style="stroke:#181818;stroke-width:0.5;" width="330" x="511" y="6"/><text fill="#000000" font-family="monospace" font-size="13" font-weight="bold" lengthAdjust="spacing" textLength="32" x="630" y="18.0669">http</text><text fill="#000000" font-family="sans-serif" font-size="13" font-weight="bold" lengthAdjust="spacing" textLength="55" x="667" y="18.0669">module</text><rect fill="#FFFFFF" height="416.8594" style="stroke:#181818;stroke-width:1.0;" width="10" x="186.5" y="87.5625"/><rect fill="#FFFFFF" height="378.7266" style="stroke:#181818;stroke-width:1.0;" width="10" x="191.5" y="116.6953"/><rect fill="#FFFFFF" height="349.5938" style="stroke:#181818;stroke-width:1.0;" width="10" x="308" y="145.8281"/><rect fill="#FFFFFF" height="320.4609" style="stroke:#181818;stroke-width:1.0;" width="10" x="440.5" y="174.9609"/><rect fill="#FFFFFF" height="416.8594" style="stroke:#181818;stroke-width:1.0;" width="10" x="563" y="87.5625"/><rect fill="#FFFFFF" height="233.0625" style="stroke:#181818;stroke-width:1.0;" width="10" x="568" y="204.0938"/><rect fill="#FFFFFF" height="233.0625" style="stroke:#181818;stroke-width:1.0;" width="10" x="765.5" y="233.2266"/><rect fill="#FFFFFF" height="29.1328" style="stroke:#181818;stroke-width:1.0;" width="10" x="889.5" y="320.625"/><line style="stroke:#181818;stroke-width:0.5;stroke-dasharray:5.0,5.0;" x1="31" x2="31" y1="56.4297" y2="513.4219"/><line style="stroke:#181818;stroke-width:0.5;stroke-dasharray:5.0,5.0;" x1="191" x2="191" y1="56.4297" y2="513.4219"/><line style="stroke:#181818;stroke-width:0.5;stroke-dasharray:5.0,5.0;" x1="313" x2="313" y1="56.4297" y2="513.4219"/><line style="stroke:#181818;stroke-width:0.5;stroke-dasharray:5.0,5.0;" x1="445" x2="445" y1="56.4297" y2="513.4219"/><line style="stroke:#181818;stroke-width:0.5;stroke-dasharray:5.0,5.0;" x1="568" x2="568" y1="56.4297" y2="513.4219"/><line style="stroke:#181818;stroke-width:0.5;stroke-dasharray:5.0,5.0;" x1="770" x2="770" y1="56.4297" y2="513.4219"/><line style="stroke:#181818;stroke-width:0.5;stroke-dasharray:5.0,5.0;" x1="894" x2="894" y1="56.4297" y2="513.4219"/><rect fill="#E2E2F0" height="30.2969" rx="2.5" ry="2.5" style="stroke:#181818;stroke-width:0.5;" width="53" x="5" y="25.1328"/><text fill="#000000" font-family="sans-serif" font-size="14" lengthAdjust="spacing" textLength="39" x="12" y="45.1279">Client</text><rect fill="#E2E2F0" height="30.2969" rx="2.5" ry="2.5" style="stroke:#181818;stroke-width:0.5;" width="53" x="5" y="512.4219"/><text fill="#000000" font-family="sans-serif" font-size="14" lengthAdjust="spacing" textLength="39" x="12" y="532.417">Client</text><rect fill="#E2E2F0" height="30.2969" rx="2.5" ry="2.5" style="stroke:#181818;stroke-width:0.5;" width="97" x="143" y="25.1328"/><text fill="#000000" font-family="sans-serif" font-size="14" font-weight="bold" lengthAdjust="spacing" textLength="83" x="150" y="45.1279">EventLoop</text><rect fill="#E2E2F0" height="30.2969" rx="2.5" ry="2.5" style="stroke:#181818;stroke-width:0.5;" width="97" x="143" y="512.4219"/><text fill="#000000" font-family="sans-serif" font-size="14" font-weight="bold" lengthAdjust="spacing" textLength="83" x="150" y="532.417">EventLoop</text><rect fill="#E2E2F0" height="30.2969" rx="2.5" ry="2.5" style="stroke:#181818;stroke-width:0.5;" width="126" x="250" y="25.1328"/><text fill="#000000" font-family="sans-serif" font-size="14" font-weight="bold" lengthAdjust="spacing" textLength="112" x="257" y="45.1279">StreamReader</text><rect fill="#E2E2F0" height="30.2969" rx="2.5" ry="2.5" style="stroke:#181818;stroke-width:0.5;" width="126" x="250" y="512.4219"/><text fill="#000000" font-family="sans-serif" font-size="14" font-weight="bold" lengthAdjust="spacing" textLength="112" x="257" y="532.417">StreamReader</text><rect fill="#E2E2F0" height="30.2969" rx="2.5" ry="2.5" style="stroke:#181818;stroke-width:0.5;" width="119" x="386" y="25.1328"/><text fill="#000000" font-family="sans-serif" font-size="14" font-weight="bold" lengthAdjust="spacing" textLength="105" x="393" y="45.1279">StreamWriter</text><rect fill="#E2E2F0" height="30.2969" rx="2.5" ry="2.5" style="stroke:#181818;stroke-width:0.5;" width="119" x="386" y="512.4219"/><text fill="#000000" font-family="sans-serif" font-size="14" font-weight="bold" lengthAdjust="spacing" textLength="105" x="393" y="532.417">StreamWriter</text><rect fill="#E2E2F0" height="30.2969" rx="2.5" ry="2.5" style="stroke:#181818;stroke-width:0.5;" width="106" x="515" y="25.1328"/><text fill="#000000" font-family="sans-serif" font-size="14" font-weight="bold" lengthAdjust="spacing" textLength="92" x="522" y="45.1279">RESTServer</text><rect fill="#E2E2F0" height="30.2969" rx="2.5" ry="2.5" style="stroke:#181818;stroke-width:0.5;" width="106" x="515" y="512.4219"/><text fill="#000000" font-family="sans-serif" font-size="14" font-weight="bold" lengthAdjust="spacing" textLength="92" x="522" y="532.417">RESTServer</text><rect fill="#E2E2F0" height="30.2969" rx="2.5" ry="2.5" style="stroke:#181818;stroke-width:0.5;" width="133" x="704" y="25.1328"/><text fill="#000000" font-family="sans-serif" font-size="14" font-weight="bold" lengthAdjust="spacing" textLength="119" x="711" y="45.1279">HTTPResponse</text><rect fill="#E2E2F0" height="30.2969" rx="2.5" ry="2.5" style="stroke:#181818;stroke-width:0.5;" width="133" x="704" y="512.4219"/><text fill="#000000" font-family="sans-serif" font-size="14" font-weight="bold" lengthAdjust="spacing" textLength="119" x="711" y="532.417">HTTPResponse</text><rect fill="#E2E2F0" height="30.2969" rx="2.5" ry="2.5" style="stroke:#181818;stroke-width:0.5;" width="95" x="847" y="25.1328"/><text fill="#000000" font-family="sans-serif" font-size="14" font-weight="bold" lengthAdjust="spacing" textLength="81" x="854" y="45.1279">SimpleLED</text><rect fill="#E2E2F0" height="30.2969" rx="2.5" ry="2.5" style="stroke:#181818;stroke-width:0.5;" width="95" x="847" y="512.4219"/><text fill="#000000" font-family="sans-serif" font-size="14" font-weight="bold" lengthAdjust="spacing" textLength="81" x="854" y="532.417">SimpleLED</text><rect fill="#FFFFFF" height="416.8594" style="stroke:#181818;stroke-width:1.0;" width="10" x="186.5" y="87.5625"/><rect fill="#FFFFFF" height="378.7266" style="stroke:#181818;stroke-width:1.0;" width="10" x="191.5" y="116.6953"/><rect fill="#FFFFFF" height="349.5938" style="stroke:#181818;stroke-width:1.0;" width="10" x="308" y="145.8281"/><rect fill="#FFFFFF" height="320.4609" style="stroke:#181818;stroke-width:1.0;" width="10" x="440.5" y="174.9609"/><rect fill="#FFFFFF" height="416.8594" style="stroke:#181818;stroke-width:1.0;" width="10" x="563" y="87.5625"/><rect fill="#FFFFFF" height="233.0625" style="stroke:#181818;stroke-width:1.0;" width="10" x="568" y="204.0938"/><rect fill="#FFFFFF" height="233.0625" style="stroke:#181818;stroke-width:1.0;" width="10" x="765.5" y="233.2266"/><rect fill="#FFFFFF" height="29.1328" style="stroke:#181818;stroke-width:1.0;" width="10" x="889.5" y="320.625"/><polygon fill="#181818" points="207.5,83.5625,197.5,87.5625,207.5,91.5625,203.5,87.5625" style="stroke:#181818;stroke-width:1.0;"/><line style="stroke:#181818;stroke-width:1.0;" x1="201.5" x2="562" y1="87.5625" y2="87.5625"/><text fill="#000000" font-family="sans-serif" font-size="13" lengthAdjust="spacing" textLength="40" x="213.5" y="82.4966">start()</text><polygon fill="#181818" points="179.5,112.6953,189.5,116.6953,179.5,120.6953,183.5,116.6953" style="stroke:#181818;stroke-width:1.0;"/><line style="stroke:#181818;stroke-width:1.0;" x1="31.5" x2="185.5" y1="116.6953" y2="116.6953"/><text fill="#000000" font-family="sans-serif" font-size="13" font-weight="bold" lengthAdjust="spacing" textLength="131" x="38.5" y="111.6294">GET /led HTTP 1.1</text><polygon fill="#181818" points="296,141.8281,306,145.8281,296,149.8281,300,145.8281" style="stroke:#181818;stroke-width:1.0;"/><line style="stroke:#181818;stroke-width:1.0;" x1="201.5" x2="302" y1="145.8281" y2="145.8281"/><text fill="#000000" font-family="sans-serif" font-size="13" lengthAdjust="spacing" text-decoration="underline" textLength="19" x="208.5" y="140.7622">init</text><text fill="#000000" font-family="sans-serif" font-size="13" lengthAdjust="spacing" textLength="10" x="227.5" y="140.7622">()</text><polygon fill="#181818" points="428.5,170.9609,438.5,174.9609,428.5,178.9609,432.5,174.9609" style="stroke:#181818;stroke-width:1.0;"/><line style="stroke:#181818;stroke-width:1.0;" x1="201.5" x2="434.5" y1="174.9609" y2="174.9609"/><text fill="#000000" font-family="sans-serif" font-size="13" lengthAdjust="spacing" text-decoration="underline" textLength="19" x="208.5" y="169.895">init</text><text fill="#000000" font-family="sans-serif" font-size="13" lengthAdjust="spacing" textLength="10" x="227.5" y="169.895">()</text><polygon fill="#181818" points="556,200.0938,566,204.0938,556,208.0938,560,204.0938" style="stroke:#181818;stroke-width:1.0;"/><line style="stroke:#181818;stroke-width:1.0;" x1="201.5" x2="562" y1="204.0938" y2="204.0938"/><text fill="#000000" font-family="sans-serif" font-size="13" lengthAdjust="spacing" textLength="103" x="208.5" y="199.0278">dispatch_noun()</text><polygon fill="#181818" points="753.5,229.2266,763.5,233.2266,753.5,237.2266,757.5,233.2266" style="stroke:#181818;stroke-width:1.0;"/><line style="stroke:#181818;stroke-width:1.0;" x1="578" x2="759.5" y1="233.2266" y2="233.2266"/><text fill="#000000" font-family="sans-serif" font-size="13" lengthAdjust="spacing" text-decoration="underline" textLength="19" x="585" y="228.1606">init</text><text fill="#000000" font-family="sans-serif" font-size="13" lengthAdjust="spacing" textLength="10" x="604" y="228.1606">()</text><polygon fill="#181818" points="329,258.3594,319,262.3594,329,266.3594,325,262.3594" style="stroke:#181818;stroke-width:1.0;"/><polygon fill="#181818" points="556,258.3594,566,262.3594,556,266.3594,560,262.3594" style="stroke:#181818;stroke-width:1.0;"/><line style="stroke:#181818;stroke-width:1.0;" x1="323" x2="562" y1="262.3594" y2="262.3594"/><text fill="#000000" font-family="sans-serif" font-size="13" lengthAdjust="spacing" textLength="104" x="335" y="257.2935">HTTP &#171;headers&#187;</text><polygon fill="#181818" points="589,287.4922,579,291.4922,589,295.4922,585,291.4922" style="stroke:#181818;stroke-width:1.0;"/><polygon fill="#181818" points="753.5,287.4922,763.5,291.4922,753.5,295.4922,757.5,291.4922" style="stroke:#181818;stroke-width:1.0;"/><line style="stroke:#181818;stroke-width:1.0;" x1="583" x2="759.5" y1="291.4922" y2="291.4922"/><text fill="#000000" font-family="sans-serif" font-size="13" lengthAdjust="spacing" textLength="68" x="595" y="286.4263">&#171;headers&#187;</text><polygon fill="#181818" points="877.5,316.625,887.5,320.625,877.5,324.625,881.5,320.625" style="stroke:#181818;stroke-width:1.0;"/><line style="stroke:#181818;stroke-width:1.0;" x1="578" x2="883.5" y1="320.625" y2="320.625"/><text fill="#000000" font-family="sans-serif" font-size="13" lengthAdjust="spacing" textLength="71" x="585" y="315.5591">get_state()</text><polygon fill="#181818" points="589,345.7578,579,349.7578,589,353.7578,585,349.7578" style="stroke:#181818;stroke-width:1.0;"/><line style="stroke:#181818;stroke-width:1.0;" x1="583" x2="893.5" y1="349.7578" y2="349.7578"/><text fill="#000000" font-family="sans-serif" font-size="13" lengthAdjust="spacing" textLength="109" x="595" y="344.6919">&#171;resource state&#187;</text><polygon fill="#181818" points="753.5,374.8906,763.5,378.8906,753.5,382.8906,757.5,378.8906" style="stroke:#181818;stroke-width:1.0;"/><line style="stroke:#181818;stroke-width:1.0;" x1="578" x2="759.5" y1="378.8906" y2="378.8906"/><text fill="#000000" font-family="sans-serif" font-size="13" lengthAdjust="spacing" textLength="145" x="585" y="373.8247">JSON &#171;resource state&#187;</text><polygon fill="#181818" points="589,404.0234,579,408.0234,589,412.0234,585,408.0234" style="stroke:#181818;stroke-width:1.0;"/><polygon fill="#181818" points="753.5,404.0234,763.5,408.0234,753.5,412.0234,757.5,408.0234" style="stroke:#181818;stroke-width:1.0;"/><line style="stroke:#181818;stroke-width:1.0;" x1="583" x2="759.5" y1="408.0234" y2="408.0234"/><text fill="#000000" font-family="sans-serif" font-size="13" lengthAdjust="spacing" textLength="68" x="595" y="402.9575">&#171;headers&#187;</text><polygon fill="#181818" points="753.5,433.1563,763.5,437.1563,753.5,441.1563,757.5,437.1563" style="stroke:#181818;stroke-width:1.0;"/><line style="stroke:#181818;stroke-width:1.0;" x1="573" x2="759.5" y1="437.1563" y2="437.1563"/><text fill="#000000" font-family="sans-serif" font-size="13" lengthAdjust="spacing" textLength="41" x="580" y="432.0903">send()</text><line style="stroke:#A80036;stroke-width:2.0;" x1="559" x2="577" y1="428.1563" y2="446.1563"/><line style="stroke:#A80036;stroke-width:2.0;" x1="559" x2="577" y1="446.1563" y2="428.1563"/><polygon fill="#181818" points="461.5,462.2891,451.5,466.2891,461.5,470.2891,457.5,466.2891" style="stroke:#181818;stroke-width:1.0;"/><line style="stroke:#181818;stroke-width:1.0;" x1="455.5" x2="769.5" y1="466.2891" y2="466.2891"/><text fill="#000000" font-family="sans-serif" font-size="13" lengthAdjust="spacing" textLength="291" x="467.5" y="461.2231">HTTP &#171;headers&#187; &#171;JSON state representation&#187;</text><line style="stroke:#A80036;stroke-width:2.0;" x1="761.5" x2="779.5" y1="457.2891" y2="475.2891"/><line style="stroke:#A80036;stroke-width:2.0;" x1="761.5" x2="779.5" y1="475.2891" y2="457.2891"/><polygon fill="#181818" points="42.5,491.4219,32.5,495.4219,42.5,499.4219,38.5,495.4219" style="stroke:#181818;stroke-width:1.0;"/><line style="stroke:#181818;stroke-width:1.0;" x1="36.5" x2="444.5" y1="495.4219" y2="495.4219"/><text fill="#000000" font-family="sans-serif" font-size="13" lengthAdjust="spacing" textLength="291" x="48.5" y="490.356">HTTP &#171;headers&#187; &#171;JSON state representation&#187;</text><line style="stroke:#A80036;stroke-width:2.0;" x1="436.5" x2="454.5" y1="486.4219" y2="504.4219"/><line style="stroke:#A80036;stroke-width:2.0;" x1="436.5" x2="454.5" y1="504.4219" y2="486.4219"/><line style="stroke:#A80036;stroke-width:2.0;" x1="304" x2="322" y1="486.4219" y2="504.4219"/><line style="stroke:#A80036;stroke-width:2.0;" x1="304" x2="322" y1="504.4219" y2="486.4219"/><line style="stroke:#A80036;stroke-width:2.0;" x1="182.5" x2="200.5" y1="486.4219" y2="504.4219"/><line style="stroke:#A80036;stroke-width:2.0;" x1="182.5" x2="200.5" y1="504.4219" y2="486.4219"/><!--SRC=[fLFHIiCm57tlLrpwf0LrGtqPOo1QT3Aqh0KVIsmlBj0b8Sc6-tlJfcdJjJw8J-M6SqxEERaLH6fQK46OXiUA8jE1y8x2A8gFvd33kOYY48Y2X_J4YdDGgYMI_HP9YTBXx3ID_91KzqWx1UVGRPncASfZ1xG3S6bquNPsZd_9icIBId2ci6MuiUNSZJWftOiAD_6JyvAiM-pzB0W- -JU48L4cCULX27jU7YeSQ8phc0hk8Y8hmOWwvPtMObhMHXqSkIozIDl7rSgwM83I1dzn6P12qoFHw6IwsReDx4jxn2XwZZEugR24kaMONy-ZQ4HhFWtBHbn0dbD6TPxxTxhy7joc_mNkNh-3MzCBAAaIH1UxdF43cqZbvNVTJ5_HDUSOIpz34tYvX5qpArYjV5YlF8JuvIVh1NoXpatz6WVPahN9PLRAIsLa92f-a0L2GwZLIXnoffAzfkzlq-o_sUqXocoIiLkYqfAVkbgxdyP_kd5BzTHuiZua2kFCh1NHb3CRokhszRTgjR1TmN_fkitfvdRnkhdPsXy0]--></g></svg>