<?xml version="1.0" encoding="us-ascii" standalone="no"?><svg xmlns="http://www.w3.org/2000/svg" xmlns:xlink="http://www.w3.org/1999/xlink" contentStyleType="text/css" height="544px" preserveAspectRatio="none" style="width:991px;height:544px;background:#FFFFFF;" version="1.1" viewBox="0 0 991 544" width="991px" zoomAndPan="magnify"><defs/><g><rect fill="#DDDDDD" height="532.5859" style="stroke:#181818;stroke-width:0.5;" width="370" x="255" y="6"/><text fill="#000000" font-family="monospace" font-size="13" font-weight="bold" lengthAdjust="spacing" textLength="56" x="382" y="18.0669">asyncio</text><text fill="#000000" font-family="sans-serif" font-size="13" font-weight="bold" lengthAdjust="spacing" textLength="55" x="443" y="18.0669">module</text><rect fill="#DDDDDD" height="532.5859" style="stroke:#181818;stroke-width:0.5;" width="257" x="627" y="6"/><text fill="#000000" font-family="monospace" font-size="13" font-weight="bold" lengthAdjust="spacing" textLength="32" x="709.5" y="18.0669">http</text><text fill="#000000" font-family="sans-serif" font-size="13" font-weight="bold" lengthAdjust="spacing" textLength="55" x="746.5" y="18.0669">module</text><rect fill="#FFFFFF" height="372.5938" style="stroke:#181818;stroke-width:1.0;" width="10" x="302.5" y="122.6953"/><rect fill="#FFFFFF" height="334.4609" style="stroke:#181818;stroke-width:1.0;" width="10" x="307.5" y="151.8281"/><rect fill="#FFFFFF" height="305.3281" style="stroke:#181818;stroke-width:1.0;" width="10" x="424" y="180.9609"/><rect fill="#FFFFFF" height="276.1953" style="stroke:#181818;stroke-width:1.0;" width="10" x="556.5" y="210.0938"/><rect fill="#FFFFFF" height="372.5938" style="stroke:#181818;stroke-width:1.0;" width="10" x="679" y="122.6953"/><rect fill="#FFFFFF" height="188.7969" style="stroke:#181818;stroke-width:1.0;" width="10" x="684" y="239.2266"/><rect fill="#FFFFFF" height="188.7969" style="stroke:#181818;stroke-width:1.0;" width="10" x="808.5" y="268.3594"/><rect fill="#FFFFFF" height="14" style="stroke:#181818;stroke-width:1.0;" width="10" x="932.5" y="384.8906"/><line style="stroke:#181818;stroke-width:0.5;stroke-dasharray:5.0,5.0;" x1="142" x2="142" y1="56.4297" y2="504.2891"/><line style="stroke:#181818;stroke-width:0.5;stroke-dasharray:5.0,5.0;" x1="307" x2="307" y1="56.4297" y2="504.2891"/><line style="stroke:#181818;stroke-width:0.5;stroke-dasharray:5.0,5.0;" x1="429" x2="429" y1="56.4297" y2="504.2891"/><line style="stroke:#181818;stroke-width:0.5;stroke-dasharray:5.0,5.0;" x1="561" x2="561" y1="56.4297" y2="504.2891"/><line style="stroke:#181818;stroke-width:0.5;stroke-dasharray:5.0,5.0;" x1="684" x2="684" y1="56.4297" y2="504.2891"/><line style="stroke:#181818;stroke-width:0.5;stroke-dasharray:5.0,5.0;" x1="813" x2="813" y1="56.4297" y2="504.2891"/><line style="stroke:#181818;stroke-width:0.5;stroke-dasharray:5.0,5.0;" x1="937" x2="937" y1="56.4297" y2="504.2891"/><rect fill="#E2E2F0" height="30.2969" rx="2.5" ry="2.5" style="stroke:#181818;stroke-width:0.5;" width="53" x="116" y="25.1328"/><text fill="#000000" font-family="sans-serif" font-size="14" lengthAdjust="spacing" textLength="39" x="123" y="45.1279">Client</text><rect fill="#E2E2F0" height="30.2969" rx="2.5" ry="2.5" style="stroke:#181818;stroke-width:0.5;" width="53" x="116" y="503.2891"/><text fill="#000000" font-family="sans-serif" font-size="14" lengthAdjust="spacing" textLength="39" x="123" y="523.2842">Client</text><rect fill="#E2E2F0" height="30.2969" rx="2.5" ry="2.5" style="stroke:#181818;stroke-width:0.5;" width="97" x="259" y="25.1328"/><text fill="#000000" font-family="sans-serif" font-size="14" font-weight="bold" lengthAdjust="spacing" textLength="83" x="266" y="45.1279">EventLoop</text><rect fill="#E2E2F0" height="30.2969" rx="2.5" ry="2.5" style="stroke:#181818;stroke-width:0.5;" width="97" x="259" y="503.2891"/><text fill="#000000" font-family="sans-serif" font-size="14" font-weight="bold" lengthAdjust="spacing" textLength="83" x="266" y="523.2842">EventLoop</text><rect fill="#E2E2F0" height="30.2969" rx="2.5" ry="2.5" style="stroke:#181818;stroke-width:0.5;" width="126" x="366" y="25.1328"/><text fill="#000000" font-family="sans-serif" font-size="14" font-weight="bold" lengthAdjust="spacing" textLength="112" x="373" y="45.1279">StreamReader</text><rect fill="#E2E2F0" height="30.2969" rx="2.5" ry="2.5" style="stroke:#181818;stroke-width:0.5;" width="126" x="366" y="503.2891"/><text fill="#000000" font-family="sans-serif" font-size="14" font-weight="bold" lengthAdjust="spacing" textLength="112" x="373" y="523.2842">StreamReader</text><rect fill="#E2E2F0" height="30.2969" rx="2.5" ry="2.5" style="stroke:#181818;stroke-width:0.5;" width="119" x="502" y="25.1328"/><text fill="#000000" font-family="sans-serif" font-size="14" font-weight="bold" lengthAdjust="spacing" textLength="105" x="509" y="45.1279">StreamWriter</text><rect fill="#E2E2F0" height="30.2969" rx="2.5" ry="2.5" style="stroke:#181818;stroke-width:0.5;" width="119" x="502" y="503.2891"/><text fill="#000000" font-family="sans-serif" font-size="14" font-weight="bold" lengthAdjust="spacing" textLength="105" x="509" y="523.2842">StreamWriter</text><rect fill="#E2E2F0" height="30.2969" rx="2.5" ry="2.5" style="stroke:#181818;stroke-width:0.5;" width="106" x="631" y="25.1328"/><text fill="#000000" font-family="sans-serif" font-size="14" font-weight="bold" lengthAdjust="spacing" textLength="92" x="638" y="45.1279">RESTServer</text><rect fill="#E2E2F0" height="30.2969" rx="2.5" ry="2.5" style="stroke:#181818;stroke-width:0.5;" width="106" x="631" y="503.2891"/><text fill="#000000" font-family="sans-serif" font-size="14" font-weight="bold" lengthAdjust="spacing" textLength="92" x="638" y="523.2842">RESTServer</text><rect fill="#E2E2F0" height="30.2969" rx="2.5" ry="2.5" style="stroke:#181818;stroke-width:0.5;" width="133" x="747" y="25.1328"/><text fill="#000000" font-family="sans-serif" font-size="14" font-weight="bold" lengthAdjust="spacing" textLength="119" x="754" y="45.1279">HTTPResponse</text><rect fill="#E2E2F0" height="30.2969" rx="2.5" ry="2.5" style="stroke:#181818;stroke-width:0.5;" width="133" x="747" y="503.2891"/><text fill="#000000" font-family="sans-serif" font-size="14" font-weight="bold" lengthAdjust="spacing" textLength="119" x="754" y="523.2842">HTTPResponse</text><rect fill="#E2E2F0" height="30.2969" rx="2.5" ry="2.5" style="stroke:#181818;stroke-width:0.5;" width="95" x="890" y="25.1328"/><text fill="#000000" font-family="sans-serif" font-size="14" font-weight="bold" lengthAdjust="spacing" textLength="81" x="897" y="45.1279">SimpleLED</text><rect fill="#E2E2F0" height="30.2969" rx="2.5" ry="2.5" style="stroke:#181818;stroke-width:0.5;" width="95" x="890" y="503.2891"/><text fill="#000000" font-family="sans-serif" font-size="14" font-weight="bold" lengthAdjust="spacing" textLength="81" x="897" y="523.2842">SimpleLED</text><rect fill="#FFFFFF" height="372.5938" style="stroke:#181818;stroke-width:1.0;" width="10" x="302.5" y="122.6953"/><rect fill="#FFFFFF" height="334.4609" style="stroke:#181818;stroke-width:1.0;" width="10" x="307.5" y="151.8281"/><rect fill="#FFFFFF" height="305.3281" style="stroke:#181818;stroke-width:1.0;" width="10" x="424" y="180.9609"/><rect fill="#FFFFFF" height="276.1953" style="stroke:#181818;stroke-width:1.0;" width="10" x="556.5" y="210.0938"/><rect fill="#FFFFFF" height="372.5938" style="stroke:#181818;stroke-width:1.0;" width="10" x="679" y="122.6953"/><rect fill="#FFFFFF" height="188.7969" style="stroke:#181818;stroke-width:1.0;" width="10" x="684" y="239.2266"/><rect fill="#FFFFFF" height="188.7969" style="stroke:#181818;stroke-width:1.0;" width="10" x="808.5" y="268.3594"/><rect fill="#FFFFFF" height="14" style="stroke:#181818;stroke-width:1.0;" width="10" x="932.5" y="384.8906"/><path d="M5,71.4297 L5,96.4297 L280,96.4297 L280,81.4297 L270,71.4297 L5,71.4297 " fill="#FEFFDD" style="stroke:#181818;stroke-width:0.5;"/><path d="M270,71.4297 L270,81.4297 L280,81.4297 L270,71.4297 " fill="#FEFFDD" style="stroke:#181818;stroke-width:0.5;"/><text fill="#000000" font-family="sans-serif" font-size="13" lengthAdjust="spacing" textLength="254" x="11" y="88.4966">HTTP request includes &#171;resource state&#187;</text><polygon fill="#181818" points="323.5,118.6953,313.5,122.6953,323.5,126.6953,319.5,122.6953" style="stroke:#181818;stroke-width:1.0;"/><line style="stroke:#181818;stroke-width:1.0;" x1="317.5" x2="678" y1="122.6953" y2="122.6953"/><text fill="#000000" font-family="sans-serif" font-size="13" lengthAdjust="spacing" textLength="40" x="329.5" y="117.6294">start()</text><polygon fill="#181818" points="295.5,147.8281,305.5,151.8281,295.5,155.8281,299.5,151.8281" style="stroke:#181818;stroke-width:1.0;"/><line style="stroke:#181818;stroke-width:1.0;" x1="142.5" x2="301.5" y1="151.8281" y2="151.8281"/><text fill="#000000" font-family="sans-serif" font-size="13" font-weight="bold" lengthAdjust="spacing" textLength="136" x="149.5" y="146.7622">PUT /LED HTTP/1.1</text><polygon fill="#181818" points="412,176.9609,422,180.9609,412,184.9609,416,180.9609" style="stroke:#181818;stroke-width:1.0;"/><line style="stroke:#181818;stroke-width:1.0;" x1="317.5" x2="418" y1="180.9609" y2="180.9609"/><text fill="#000000" font-family="sans-serif" font-size="13" lengthAdjust="spacing" text-decoration="underline" textLength="19" x="324.5" y="175.895">init</text><text fill="#000000" font-family="sans-serif" font-size="13" lengthAdjust="spacing" textLength="10" x="343.5" y="175.895">()</text><polygon fill="#181818" points="544.5,206.0938,554.5,210.0938,544.5,214.0938,548.5,210.0938" style="stroke:#181818;stroke-width:1.0;"/><line style="stroke:#181818;stroke-width:1.0;" x1="317.5" x2="550.5" y1="210.0938" y2="210.0938"/><text fill="#000000" font-family="sans-serif" font-size="13" lengthAdjust="spacing" text-decoration="underline" textLength="19" x="324.5" y="205.0278">init</text><text fill="#000000" font-family="sans-serif" font-size="13" lengthAdjust="spacing" textLength="10" x="343.5" y="205.0278">()</text><polygon fill="#181818" points="672,235.2266,682,239.2266,672,243.2266,676,239.2266" style="stroke:#181818;stroke-width:1.0;"/><line style="stroke:#181818;stroke-width:1.0;" x1="317.5" x2="678" y1="239.2266" y2="239.2266"/><text fill="#000000" font-family="sans-serif" font-size="13" lengthAdjust="spacing" textLength="103" x="324.5" y="234.1606">dispatch_noun()</text><polygon fill="#181818" points="796.5,264.3594,806.5,268.3594,796.5,272.3594,800.5,268.3594" style="stroke:#181818;stroke-width:1.0;"/><line style="stroke:#181818;stroke-width:1.0;" x1="694" x2="802.5" y1="268.3594" y2="268.3594"/><text fill="#000000" font-family="sans-serif" font-size="13" lengthAdjust="spacing" text-decoration="underline" textLength="19" x="701" y="263.2935">init</text><text fill="#000000" font-family="sans-serif" font-size="13" lengthAdjust="spacing" textLength="10" x="720" y="263.2935">()</text><polygon fill="#181818" points="445,293.4922,435,297.4922,445,301.4922,441,297.4922" style="stroke:#181818;stroke-width:1.0;"/><polygon fill="#181818" points="672,293.4922,682,297.4922,672,301.4922,676,297.4922" style="stroke:#181818;stroke-width:1.0;"/><line style="stroke:#181818;stroke-width:1.0;" x1="439" x2="678" y1="297.4922" y2="297.4922"/><text fill="#000000" font-family="sans-serif" font-size="13" lengthAdjust="spacing" textLength="104" x="451" y="292.4263">HTTP &#171;headers&#187;</text><polygon fill="#181818" points="705,322.625,695,326.625,705,330.625,701,326.625" style="stroke:#181818;stroke-width:1.0;"/><polygon fill="#181818" points="796.5,322.625,806.5,326.625,796.5,330.625,800.5,326.625" style="stroke:#181818;stroke-width:1.0;"/><line style="stroke:#181818;stroke-width:1.0;" x1="699" x2="802.5" y1="326.625" y2="326.625"/><text fill="#000000" font-family="sans-serif" font-size="13" lengthAdjust="spacing" textLength="68" x="711" y="321.5591">&#171;headers&#187;</text><polygon fill="#181818" points="445,351.7578,435,355.7578,445,359.7578,441,355.7578" style="stroke:#181818;stroke-width:1.0;"/><polygon fill="#181818" points="672,351.7578,682,355.7578,672,359.7578,676,355.7578" style="stroke:#181818;stroke-width:1.0;"/><line style="stroke:#181818;stroke-width:1.0;" x1="439" x2="678" y1="355.7578" y2="355.7578"/><text fill="#000000" font-family="sans-serif" font-size="13" lengthAdjust="spacing" textLength="145" x="451" y="350.6919">JSON &#171;resource state&#187;</text><polygon fill="#181818" points="920.5,380.8906,930.5,384.8906,920.5,388.8906,924.5,384.8906" style="stroke:#181818;stroke-width:1.0;"/><line style="stroke:#181818;stroke-width:1.0;" x1="694" x2="926.5" y1="384.8906" y2="384.8906"/><text fill="#000000" font-family="sans-serif" font-size="13" lengthAdjust="spacing" textLength="179" x="701" y="379.8247">set_state(&#171;resource state&#187;)</text><polygon fill="#181818" points="705,394.8906,695,398.8906,705,402.8906,701,398.8906" style="stroke:#181818;stroke-width:1.0;"/><line style="stroke:#181818;stroke-width:1.0;stroke-dasharray:2.0,2.0;" x1="699" x2="936.5" y1="398.8906" y2="398.8906"/><polygon fill="#181818" points="796.5,424.0234,806.5,428.0234,796.5,432.0234,800.5,428.0234" style="stroke:#181818;stroke-width:1.0;"/><line style="stroke:#181818;stroke-width:1.0;" x1="689" x2="802.5" y1="428.0234" y2="428.0234"/><text fill="#000000" font-family="sans-serif" font-size="13" lengthAdjust="spacing" textLength="41" x="696" y="422.9575">send()</text><line style="stroke:#A80036;stroke-width:2.0;" x1="675" x2="693" y1="419.0234" y2="437.0234"/><line style="stroke:#A80036;stroke-width:2.0;" x1="675" x2="693" y1="437.0234" y2="419.0234"/><polygon fill="#181818" points="577.5,453.1563,567.5,457.1563,577.5,461.1563,573.5,457.1563" style="stroke:#181818;stroke-width:1.0;"/><line style="stroke:#181818;stroke-width:1.0;" x1="571.5" x2="812.5" y1="457.1563" y2="457.1563"/><text fill="#000000" font-family="sans-serif" font-size="13" lengthAdjust="spacing" textLength="134" x="583.5" y="452.0903">HTTP &#171;HTTP 200 OK&#187;</text><line style="stroke:#A80036;stroke-width:2.0;" x1="804.5" x2="822.5" y1="448.1563" y2="466.1563"/><line style="stroke:#A80036;stroke-width:2.0;" x1="804.5" x2="822.5" y1="466.1563" y2="448.1563"/><polygon fill="#181818" points="153.5,482.2891,143.5,486.2891,153.5,490.2891,149.5,486.2891" style="stroke:#181818;stroke-width:1.0;"/><line style="stroke:#181818;stroke-width:1.0;" x1="147.5" x2="560.5" y1="486.2891" y2="486.2891"/><text fill="#000000" font-family="sans-serif" font-size="13" lengthAdjust="spacing" textLength="130" x="159.5" y="481.2231">HTTP&#171;HTTP 200 OK&#187;</text><line style="stroke:#A80036;stroke-width:2.0;" x1="552.5" x2="570.5" y1="477.2891" y2="495.2891"/><line style="stroke:#A80036;stroke-width:2.0;" x1="552.5" x2="570.5" y1="495.2891" y2="477.2891"/><line style="stroke:#A80036;stroke-width:2.0;" x1="420" x2="438" y1="477.2891" y2="495.2891"/><line style="stroke:#A80036;stroke-width:2.0;" x1="420" x2="438" y1="495.2891" y2="477.2891"/><line style="stroke:#A80036;stroke-width:2.0;" x1="298.5" x2="316.5" y1="477.2891" y2="495.2891"/><line style="stroke:#A80036;stroke-width:2.0;" x1="298.5" x2="316.5" y1="495.2891" y2="477.2891"/><!--SRC=[TLDTIyCm57tFhxZqIGlg_7ePOo0wS2gkh1CVIsm32sn9JMw7-_UcJT9cM_OKRdhEoJtdtjPK8IzvJGN2yuOpWQGEhf8qdUtCvOUKTPecG3KyvNjH7eDoL8nkbunMJ7cShUB8RyLnGDgA74ENitoLCxNhWRO0gOmkt8-EyQ-hLRPakfP2CyVmfUCyd71olgqtx6Fsudl9vWxxE2BaH_v1ab1j77EP9B2LLRDX1ngdSSICUujCL614lV8QiOxBMgi7LzxB828a6cTj96vqRGAWs6_3D08NvQQfc8R9nDnfsQYIWKPgEDDf9zBo2N6fNasjbt6BKNXnIMY9VDV2NJDzRJqJ-sX0JDFiQmKt9areExcvlRvDqnDQTtGi6zGOYe8BZaKHlkbJ3E0smpDmlqCzt3OzXehhccAvBeHiHCHLuDyd77-Ypzyp9g67BdgJzBghTHjn01kK3o5HgRTyyHaVMZYhR6ucnR3eFbx4u64ysPmeXeqISR_Qh8FnQhO5bTptqVI_JnY_SzeTTwCHBDvDPvuvXEJmBTKkYcMU8_e1zhMRVrzto_CF]--></g></svg>