<?xml version="1.0" encoding="us-ascii" standalone="no"?><svg xmlns="http://www.w3.org/2000/svg" xmlns:xlink="http://www.w3.org/1999/xlink" contentStyleType="text/css" height="857px" preserveAspectRatio="none" style="width:2084px;height:857px;background:#FFFFFF;" version="1.1" viewBox="0 0 2084 857" width="2084px" zoomAndPan="magnify"><defs/><g><!--cluster urest--><g id="cluster_urest"><path d="M9.5,6 L50.5,6 A5.25,5.25 0 0 1 54,9.5 L61,28.2969 L1719.5,28.2969 A3.5,3.5 0 0 1 1723,31.7969 L1723,847 A3.5,3.5 0 0 1 1719.5,850.5 L9.5,850.5 A3.5,3.5 0 0 1 6,847 L6,9.5 A3.5,3.5 0 0 1 9.5,6 " fill="none" style="stroke:#696969;stroke-width:1.0;"/><line style="stroke:#696969;stroke-width:1.0;" x1="6" x2="61" y1="28.2969" y2="28.2969"/><text fill="#000000" font-family="sans-serif" font-size="14" font-weight="bold" lengthAdjust="spacing" textLength="42" x="10" y="20.9951">urest</text></g><!--cluster api--><g id="cluster_api"><path d="M387.5,394 L409.5,394 A5.25,5.25 0 0 1 413,397.5 L420,416.2969 L640.5,416.2969 A3.5,3.5 0 0 1 644,419.7969 L644,637.5 A3.5,3.5 0 0 1 640.5,641 L387.5,641 A3.5,3.5 0 0 1 384,637.5 L384,397.5 A3.5,3.5 0 0 1 387.5,394 " fill="none" style="stroke:#696969;stroke-width:1.0;"/><line style="stroke:#696969;stroke-width:1.0;" x1="384" x2="420" y1="416.2969" y2="416.2969"/><text fill="#000000" font-family="sans-serif" font-size="14" font-weight="bold" lengthAdjust="spacing" textLength="23" x="388" y="408.9951">api</text></g><!--cluster base--><g id="cluster_base"><rect fill="none" height="180" rx="3.5" ry="3.5" style="stroke:#696969;stroke-width:1.0;" width="212" x="408" y="437"/><text fill="#000000" font-family="sans-serif" font-size="14" font-weight="bold" lengthAdjust="spacing" textLength="38" x="495" y="451.9951">base</text></g><!--cluster http--><g id="cluster_http"><path d="M789.5,49 L820.5,49 A5.25,5.25 0 0 1 824,52.5 L831,71.2969 L1411.5,71.2969 A3.5,3.5 0 0 1 1415,74.7969 L1415,823 A3.5,3.5 0 0 1 1411.5,826.5 L789.5,826.5 A3.5,3.5 0 0 1 786,823 L786,52.5 A3.5,3.5 0 0 1 789.5,49 " fill="none" style="stroke:#696969;stroke-width:1.0;"/><line style="stroke:#696969;stroke-width:1.0;" x1="786" x2="831" y1="71.2969" y2="71.2969"/><text fill="#000000" font-family="sans-serif" font-size="14" font-weight="bold" lengthAdjust="spacing" textLength="32" x="790" y="63.9951">http</text></g><!--cluster response--><g id="cluster_response"><rect fill="none" height="394" rx="3.5" ry="3.5" style="stroke:#696969;stroke-width:1.0;" width="188" x="810" y="408.5"/><text fill="#000000" font-family="sans-serif" font-size="14" font-weight="bold" lengthAdjust="spacing" textLength="75" x="866.5" y="423.4951">response</text></g><!--cluster server--><g id="cluster_server"><rect fill="none" height="484.5" rx="3.5" ry="3.5" style="stroke:#696969;stroke-width:1.0;" width="369" x="1022" y="92"/><text fill="#000000" font-family="sans-serif" font-size="14" font-weight="bold" lengthAdjust="spacing" textLength="52" x="1180.5" y="106.9951">server</text></g><!--cluster utils--><g id="cluster_utils"><path d="M1442.5,150.5 L1474.5,150.5 A5.25,5.25 0 0 1 1478,154 L1485,172.7969 L1695.5,172.7969 A3.5,3.5 0 0 1 1699,176.2969 L1699,313 A3.5,3.5 0 0 1 1695.5,316.5 L1442.5,316.5 A3.5,3.5 0 0 1 1439,313 L1439,154 A3.5,3.5 0 0 1 1442.5,150.5 " fill="none" style="stroke:#696969;stroke-width:1.0;"/><line style="stroke:#696969;stroke-width:1.0;" x1="1439" x2="1485" y1="172.7969" y2="172.7969"/><text fill="#000000" font-family="sans-serif" font-size="14" font-weight="bold" lengthAdjust="spacing" textLength="33" x="1443" y="165.4951">utils</text></g><!--cluster network_connect--><g id="cluster_network_connect"><rect fill="none" height="99" rx="3.5" ry="3.5" style="stroke:#696969;stroke-width:1.0;" width="212" x="1463" y="193.5"/><text fill="#000000" font-family="sans-serif" font-size="14" font-weight="bold" lengthAdjust="spacing" textLength="137" x="1500.5" y="208.4951">network_connect</text></g><!--cluster examples--><g id="cluster_examples"><path d="M33.5,110 L107.5,110 A5.25,5.25 0 0 1 111,113.5 L118,132.2969 L758.5,132.2969 A3.5,3.5 0 0 1 762,135.7969 L762,353.5 A3.5,3.5 0 0 1 758.5,357 L33.5,357 A3.5,3.5 0 0 1 30,353.5 L30,113.5 A3.5,3.5 0 0 1 33.5,110 " fill="none" style="stroke:#696969;stroke-width:1.0;"/><line style="stroke:#696969;stroke-width:1.0;" x1="30" x2="118" y1="132.2969" y2="132.2969"/><text fill="#000000" font-family="sans-serif" font-size="14" font-weight="bold" lengthAdjust="spacing" textLength="75" x="34" y="124.9951">examples</text></g><!--cluster echo--><g id="cluster_echo"><rect fill="none" height="180" rx="3.5" ry="3.5" style="stroke:#696969;stroke-width:1.0;" width="212" x="526" y="153"/><text fill="#000000" font-family="sans-serif" font-size="14" font-weight="bold" lengthAdjust="spacing" textLength="39" x="612.5" y="167.9951">echo</text></g><!--cluster pwmled--><g id="cluster_pwmled"><rect fill="none" height="180" rx="3.5" ry="3.5" style="stroke:#696969;stroke-width:1.0;" width="212" x="290" y="153"/><text fill="#000000" font-family="sans-serif" font-size="14" font-weight="bold" lengthAdjust="spacing" textLength="62" x="365" y="167.9951">pwmled</text></g><!--cluster simpleled--><g id="cluster_simpleled"><rect fill="none" height="180" rx="3.5" ry="3.5" style="stroke:#696969;stroke-width:1.0;" width="212" x="54" y="153"/><text fill="#000000" font-family="sans-serif" font-size="14" font-weight="bold" lengthAdjust="spacing" textLength="75" x="122.5" y="167.9951">simpleled</text></g><!--cluster errno--><g id="cluster_errno"><path d="M1750.5,477.5 L1793.5,477.5 A5.25,5.25 0 0 1 1797,481 L1804,499.7969 L2002.5,499.7969 A3.5,3.5 0 0 1 2006,503.2969 L2006,774.5 A3.5,3.5 0 0 1 2002.5,778 L1750.5,778 A3.5,3.5 0 0 1 1747,774.5 L1747,481 A3.5,3.5 0 0 1 1750.5,477.5 " fill="none" style="stroke:#696969;stroke-width:1.0;"/><line style="stroke:#696969;stroke-width:1.0;" x1="1747" x2="1804" y1="499.7969" y2="499.7969"/><text fill="#000000" font-family="sans-serif" font-size="14" font-weight="bold" lengthAdjust="spacing" textLength="44" x="1751" y="492.4951">errno</text></g><!--class APIBase--><g id="elem_APIBase"><rect codeLine="5" fill="#F1F1F1" height="129.4844" id="APIBase" rx="3.5" ry="3.5" style="stroke:#181818;stroke-width:0.5;" width="179" x="424.5" y="472"/><ellipse cx="481.75" cy="488" fill="#A9DCDF" rx="11" ry="11" style="stroke:#181818;stroke-width:1.0;"/><path d="M481.8594,483.3438 L480.7031,488.4219 L483.0313,488.4219 L481.8594,483.3438 Z M480.375,481.1094 L483.3594,481.1094 L486.7188,493.5 L484.2656,493.5 L483.5,490.4375 L480.2188,490.4375 L479.4688,493.5 L477.0313,493.5 L480.375,481.1094 Z " fill="#000000"/><text fill="#000000" font-family="sans-serif" font-size="14" font-style="italic" lengthAdjust="spacing" textLength="56" x="502.25" y="492.8467">APIBase</text><line style="stroke:#181818;stroke-width:0.5;" x1="425.5" x2="602.5" y1="504" y2="504"/><rect fill="none" height="6" style="stroke:#C82930;stroke-width:1.0;" width="6" x="432.5" y="514.6484"/><text fill="#000000" font-family="sans-serif" font-size="14" lengthAdjust="spacing" textLength="153" x="444.5" y="520.9951">_state_attributes : dict</text><line style="stroke:#181818;stroke-width:0.5;" x1="425.5" x2="602.5" y1="528.2969" y2="528.2969"/><ellipse cx="435.5" cy="541.9453" fill="#84BE84" rx="3" ry="3" style="stroke:#038048;stroke-width:1.0;"/><text fill="#000000" font-family="sans-serif" font-size="14" font-style="italic" lengthAdjust="spacing" textLength="95" x="444.5" y="545.292">delete_state()</text><ellipse cx="435.5" cy="558.2422" fill="#84BE84" rx="3" ry="3" style="stroke:#038048;stroke-width:1.0;"/><text fill="#000000" font-family="sans-serif" font-size="14" font-style="italic" lengthAdjust="spacing" textLength="74" x="444.5" y="561.5889">get_state()</text><ellipse cx="435.5" cy="574.5391" fill="#84BE84" rx="3" ry="3" style="stroke:#038048;stroke-width:1.0;"/><text fill="#000000" font-family="sans-serif" font-size="14" font-style="italic" lengthAdjust="spacing" textLength="72" x="444.5" y="577.8857">set_state()</text><ellipse cx="435.5" cy="590.8359" fill="#84BE84" rx="3" ry="3" style="stroke:#038048;stroke-width:1.0;"/><text fill="#000000" font-family="sans-serif" font-size="14" font-style="italic" lengthAdjust="spacing" textLength="100" x="444.5" y="594.1826">update_state()</text></g><!--class HTTPResponse--><g id="elem_HTTPResponse"><rect codeLine="17" fill="#F1F1F1" height="178.375" id="HTTPResponse" rx="3.5" ry="3.5" style="stroke:#181818;stroke-width:0.5;" width="140" x="834" y="447.5"/><ellipse cx="849" cy="463.5" fill="#ADD1B2" rx="11" ry="11" style="stroke:#181818;stroke-width:1.0;"/><path d="M851.9688,469.1406 Q851.3906,469.4375 850.75,469.5781 Q850.1094,469.7344 849.4063,469.7344 Q846.9063,469.7344 845.5781,468.0938 Q844.2656,466.4375 844.2656,463.3125 Q844.2656,460.1875 845.5781,458.5313 Q846.9063,456.875 849.4063,456.875 Q850.1094,456.875 850.75,457.0313 Q851.4063,457.1875 851.9688,457.4844 L851.9688,460.2031 Q851.3438,459.625 850.75,459.3594 Q850.1563,459.0781 849.5313,459.0781 Q848.1875,459.0781 847.5,460.1563 Q846.8125,461.2188 846.8125,463.3125 Q846.8125,465.4063 847.5,466.4844 Q848.1875,467.5469 849.5313,467.5469 Q850.1563,467.5469 850.75,467.2813 Q851.3438,467 851.9688,466.4219 L851.9688,469.1406 Z " fill="#000000"/><text fill="#000000" font-family="sans-serif" font-size="14" lengthAdjust="spacing" textLength="108" x="863" y="468.3467">HTTPResponse</text><line style="stroke:#181818;stroke-width:0.5;" x1="835" x2="973" y1="479.5" y2="479.5"/><rect fill="none" height="6" style="stroke:#C82930;stroke-width:1.0;" width="6" x="842" y="490.1484"/><text fill="#000000" font-family="sans-serif" font-size="14" lengthAdjust="spacing" textLength="50" x="854" y="496.4951">_status</text><rect fill="none" height="6" style="stroke:#C82930;stroke-width:1.0;" width="6" x="842" y="506.4453"/><text fill="#000000" font-family="sans-serif" font-size="14" lengthAdjust="spacing" textLength="41" x="854" y="512.792">_body</text><rect fill="none" height="6" style="stroke:#C82930;stroke-width:1.0;" width="6" x="842" y="522.7422"/><text fill="#000000" font-family="sans-serif" font-size="14" lengthAdjust="spacing" textLength="75" x="854" y="529.0889">_mimetype</text><rect fill="none" height="6" style="stroke:#C82930;stroke-width:1.0;" width="6" x="842" y="539.0391"/><text fill="#000000" font-family="sans-serif" font-size="14" lengthAdjust="spacing" textLength="44" x="854" y="545.3857">_close</text><rect fill="none" height="6" style="stroke:#C82930;stroke-width:1.0;" width="6" x="842" y="555.3359"/><text fill="#000000" font-family="sans-serif" font-size="14" lengthAdjust="spacing" textLength="56" x="854" y="561.6826">_header</text><ellipse cx="845" cy="574.6328" fill="none" rx="3" ry="3" style="stroke:#038048;stroke-width:1.0;"/><text fill="#000000" font-family="sans-serif" font-size="14" lengthAdjust="spacing" textLength="34" x="854" y="577.9795">body</text><ellipse cx="845" cy="590.9297" fill="none" rx="3" ry="3" style="stroke:#038048;stroke-width:1.0;"/><text fill="#000000" font-family="sans-serif" font-size="14" lengthAdjust="spacing" textLength="43" x="854" y="594.2764">status</text><line style="stroke:#181818;stroke-width:0.5;" x1="835" x2="973" y1="601.5781" y2="601.5781"/><ellipse cx="845" cy="615.2266" fill="#84BE84" rx="3" ry="3" style="stroke:#038048;stroke-width:1.0;"/><text fill="#000000" font-family="sans-serif" font-size="14" lengthAdjust="spacing" textLength="45" x="854" y="618.5732">send()</text></g><!--class HTTPStatus--><g id="elem_HTTPStatus"><rect codeLine="27" fill="#F1F1F1" height="96.8906" id="HTTPStatus" rx="3.5" ry="3.5" style="stroke:#181818;stroke-width:0.5;" width="113" x="847.5" y="689.5"/><ellipse cx="862.5" cy="705.5" fill="#EB937F" rx="11" ry="11" style="stroke:#181818;stroke-width:1.0;"/><path d="M866.6094,711.5 L858.8906,711.5 L858.8906,699.1094 L866.6094,699.1094 L866.6094,701.2656 L861.3438,701.2656 L861.3438,703.9375 L866.1094,703.9375 L866.1094,706.0938 L861.3438,706.0938 L861.3438,709.3438 L866.6094,709.3438 L866.6094,711.5 Z " fill="#000000"/><text fill="#000000" font-family="sans-serif" font-size="14" lengthAdjust="spacing" textLength="81" x="876.5" y="710.3467">HTTPStatus</text><line style="stroke:#181818;stroke-width:0.5;" x1="848.5" x2="959.5" y1="721.5" y2="721.5"/><ellipse cx="858.5" cy="735.1484" fill="none" rx="3" ry="3" style="stroke:#038048;stroke-width:1.0;"/><text fill="#000000" font-family="sans-serif" font-size="14" lengthAdjust="spacing" textLength="20" x="867.5" y="738.4951">OK</text><ellipse cx="858.5" cy="751.4453" fill="none" rx="3" ry="3" style="stroke:#038048;stroke-width:1.0;"/><text fill="#000000" font-family="sans-serif" font-size="14" lengthAdjust="spacing" textLength="57" x="867.5" y="754.792">NOT_OK</text><ellipse cx="858.5" cy="767.7422" fill="none" rx="3" ry="3" style="stroke:#038048;stroke-width:1.0;"/><text fill="#000000" font-family="sans-serif" font-size="14" lengthAdjust="spacing" textLength="87" x="867.5" y="771.0889">NOT_FOUND</text><line style="stroke:#181818;stroke-width:0.5;" x1="848.5" x2="959.5" y1="778.3906" y2="778.3906"/></g><!--class RESTClientError--><g id="elem_RESTClientError"><rect codeLine="34" fill="#F1F1F1" height="48" id="RESTClientError" rx="3.5" ry="3.5" style="stroke:#181818;stroke-width:0.5;" width="141" x="1048.5" y="512.5"/><ellipse cx="1063.5" cy="528.5" fill="#ADD1B2" rx="11" ry="11" style="stroke:#181818;stroke-width:1.0;"/><path d="M1066.4688,534.1406 Q1065.8906,534.4375 1065.25,534.5781 Q1064.6094,534.7344 1063.9063,534.7344 Q1061.4063,534.7344 1060.0781,533.0938 Q1058.7656,531.4375 1058.7656,528.3125 Q1058.7656,525.1875 1060.0781,523.5313 Q1061.4063,521.875 1063.9063,521.875 Q1064.6094,521.875 1065.25,522.0313 Q1065.9063,522.1875 1066.4688,522.4844 L1066.4688,525.2031 Q1065.8438,524.625 1065.25,524.3594 Q1064.6563,524.0781 1064.0313,524.0781 Q1062.6875,524.0781 1062,525.1563 Q1061.3125,526.2188 1061.3125,528.3125 Q1061.3125,530.4063 1062,531.4844 Q1062.6875,532.5469 1064.0313,532.5469 Q1064.6563,532.5469 1065.25,532.2813 Q1065.8438,532 1066.4688,531.4219 L1066.4688,534.1406 Z " fill="#000000"/><text fill="#000000" font-family="sans-serif" font-size="14" lengthAdjust="spacing" textLength="109" x="1077.5" y="533.3467">RESTClientError</text><line style="stroke:#181818;stroke-width:0.5;" x1="1049.5" x2="1188.5" y1="544.5" y2="544.5"/><line style="stroke:#181818;stroke-width:0.5;" x1="1049.5" x2="1188.5" y1="552.5" y2="552.5"/></g><!--class RESTParseError--><g id="elem_RESTParseError"><rect codeLine="36" fill="#F1F1F1" height="48" id="RESTParseError" rx="3.5" ry="3.5" style="stroke:#181818;stroke-width:0.5;" width="141" x="1230.5" y="512.5"/><ellipse cx="1245.5" cy="528.5" fill="#ADD1B2" rx="11" ry="11" style="stroke:#181818;stroke-width:1.0;"/><path d="M1248.4688,534.1406 Q1247.8906,534.4375 1247.25,534.5781 Q1246.6094,534.7344 1245.9063,534.7344 Q1243.4063,534.7344 1242.0781,533.0938 Q1240.7656,531.4375 1240.7656,528.3125 Q1240.7656,525.1875 1242.0781,523.5313 Q1243.4063,521.875 1245.9063,521.875 Q1246.6094,521.875 1247.25,522.0313 Q1247.9063,522.1875 1248.4688,522.4844 L1248.4688,525.2031 Q1247.8438,524.625 1247.25,524.3594 Q1246.6563,524.0781 1246.0313,524.0781 Q1244.6875,524.0781 1244,525.1563 Q1243.3125,526.2188 1243.3125,528.3125 Q1243.3125,530.4063 1244,531.4844 Q1244.6875,532.5469 1246.0313,532.5469 Q1246.6563,532.5469 1247.25,532.2813 Q1247.8438,532 1248.4688,531.4219 L1248.4688,534.1406 Z " fill="#000000"/><text fill="#000000" font-family="sans-serif" font-size="14" lengthAdjust="spacing" textLength="109" x="1259.5" y="533.3467">RESTParseError</text><line style="stroke:#181818;stroke-width:0.5;" x1="1231.5" x2="1370.5" y1="544.5" y2="544.5"/><line style="stroke:#181818;stroke-width:0.5;" x1="1231.5" x2="1370.5" y1="552.5" y2="552.5"/></g><!--class RESTServerError--><g id="elem_RESTServerError"><rect codeLine="38" fill="#F1F1F1" height="48" id="RESTServerError" rx="3.5" ry="3.5" style="stroke:#181818;stroke-width:0.5;" width="146" x="1229" y="228.5"/><ellipse cx="1244" cy="244.5" fill="#ADD1B2" rx="11" ry="11" style="stroke:#181818;stroke-width:1.0;"/><path d="M1246.9688,250.1406 Q1246.3906,250.4375 1245.75,250.5781 Q1245.1094,250.7344 1244.4063,250.7344 Q1241.9063,250.7344 1240.5781,249.0938 Q1239.2656,247.4375 1239.2656,244.3125 Q1239.2656,241.1875 1240.5781,239.5313 Q1241.9063,237.875 1244.4063,237.875 Q1245.1094,237.875 1245.75,238.0313 Q1246.4063,238.1875 1246.9688,238.4844 L1246.9688,241.2031 Q1246.3438,240.625 1245.75,240.3594 Q1245.1563,240.0781 1244.5313,240.0781 Q1243.1875,240.0781 1242.5,241.1563 Q1241.8125,242.2188 1241.8125,244.3125 Q1241.8125,246.4063 1242.5,247.4844 Q1243.1875,248.5469 1244.5313,248.5469 Q1245.1563,248.5469 1245.75,248.2813 Q1246.3438,248 1246.9688,247.4219 L1246.9688,250.1406 Z " fill="#000000"/><text fill="#000000" font-family="sans-serif" font-size="14" lengthAdjust="spacing" textLength="114" x="1258" y="249.3467">RESTServerError</text><line style="stroke:#181818;stroke-width:0.5;" x1="1230" x2="1374" y1="260.5" y2="260.5"/><line style="stroke:#181818;stroke-width:0.5;" x1="1230" x2="1374" y1="268.5" y2="268.5"/></g><!--class RESTServer--><g id="elem_RESTServer"><rect codeLine="41" fill="#F1F1F1" height="243.5625" id="RESTServer" rx="3.5" ry="3.5" style="stroke:#181818;stroke-width:0.5;" width="140" x="1046" y="131"/><ellipse cx="1073.15" cy="147" fill="#ADD1B2" rx="11" ry="11" style="stroke:#181818;stroke-width:1.0;"/><path d="M1076.1188,152.6406 Q1075.5406,152.9375 1074.9,153.0781 Q1074.2594,153.2344 1073.5563,153.2344 Q1071.0563,153.2344 1069.7281,151.5938 Q1068.4156,149.9375 1068.4156,146.8125 Q1068.4156,143.6875 1069.7281,142.0313 Q1071.0563,140.375 1073.5563,140.375 Q1074.2594,140.375 1074.9,140.5313 Q1075.5563,140.6875 1076.1188,140.9844 L1076.1188,143.7031 Q1075.4938,143.125 1074.9,142.8594 Q1074.3063,142.5781 1073.6813,142.5781 Q1072.3375,142.5781 1071.65,143.6563 Q1070.9625,144.7188 1070.9625,146.8125 Q1070.9625,148.9063 1071.65,149.9844 Q1072.3375,151.0469 1073.6813,151.0469 Q1074.3063,151.0469 1074.9,150.7813 Q1075.4938,150.5 1076.1188,149.9219 L1076.1188,152.6406 Z " fill="#000000"/><text fill="#000000" font-family="sans-serif" font-size="14" lengthAdjust="spacing" textLength="81" x="1089.85" y="151.8467">RESTServer</text><line style="stroke:#181818;stroke-width:0.5;" x1="1047" x2="1185" y1="163" y2="163"/><rect fill="none" height="6" style="stroke:#C82930;stroke-width:1.0;" width="6" x="1054" y="173.6484"/><text fill="#000000" font-family="sans-serif" font-size="14" lengthAdjust="spacing" textLength="50" x="1066" y="179.9951">_server</text><rect fill="none" height="6" style="stroke:#C82930;stroke-width:1.0;" width="6" x="1054" y="189.9453"/><text fill="#000000" font-family="sans-serif" font-size="14" lengthAdjust="spacing" textLength="80" x="1066" y="196.292">dict _nouns</text><ellipse cx="1057" cy="209.2422" fill="none" rx="3" ry="3" style="stroke:#038048;stroke-width:1.0;"/><text fill="#000000" font-family="sans-serif" font-size="14" lengthAdjust="spacing" textLength="53" x="1066" y="212.5889">str host</text><ellipse cx="1057" cy="225.5391" fill="none" rx="3" ry="3" style="stroke:#038048;stroke-width:1.0;"/><text fill="#000000" font-family="sans-serif" font-size="14" lengthAdjust="spacing" textLength="49" x="1066" y="228.8857">int port</text><ellipse cx="1057" cy="241.8359" fill="none" rx="3" ry="3" style="stroke:#038048;stroke-width:1.0;"/><text fill="#000000" font-family="sans-serif" font-size="14" lengthAdjust="spacing" textLength="75" x="1066" y="245.1826">int backlog</text><ellipse cx="1057" cy="258.1328" fill="none" rx="3" ry="3" style="stroke:#038048;stroke-width:1.0;"/><text fill="#000000" font-family="sans-serif" font-size="14" lengthAdjust="spacing" textLength="112" x="1066" y="261.4795">int read_timeout</text><ellipse cx="1057" cy="274.4297" fill="none" rx="3" ry="3" style="stroke:#038048;stroke-width:1.0;"/><text fill="#000000" font-family="sans-serif" font-size="14" lengthAdjust="spacing" textLength="114" x="1066" y="277.7764">int write_timeout</text><line style="stroke:#181818;stroke-width:0.5;" x1="1047" x2="1185" y1="285.0781" y2="285.0781"/><rect fill="#F24D5C" height="6" style="stroke:#C82930;stroke-width:1.0;" width="6" x="1054" y="295.7266"/><text fill="#000000" font-family="sans-serif" font-size="14" lengthAdjust="spacing" textLength="86" x="1066" y="302.0732">parse_data()</text><ellipse cx="1057" cy="315.0234" fill="#84BE84" rx="3" ry="3" style="stroke:#038048;stroke-width:1.0;"/><text fill="#000000" font-family="sans-serif" font-size="14" lengthAdjust="spacing" textLength="112" x="1066" y="318.3701">dispatch_noun()</text><ellipse cx="1057" cy="331.3203" fill="#84BE84" rx="3" ry="3" style="stroke:#038048;stroke-width:1.0;"/><text fill="#000000" font-family="sans-serif" font-size="14" lengthAdjust="spacing" textLength="106" x="1066" y="334.667">register_noun()</text><ellipse cx="1057" cy="347.6172" fill="#84BE84" rx="3" ry="3" style="stroke:#038048;stroke-width:1.0;"/><text fill="#000000" font-family="sans-serif" font-size="14" lengthAdjust="spacing" textLength="41" x="1066" y="350.9639">start()</text><ellipse cx="1057" cy="363.9141" fill="#84BE84" rx="3" ry="3" style="stroke:#038048;stroke-width:1.0;"/><text fill="#000000" font-family="sans-serif" font-size="14" lengthAdjust="spacing" textLength="41" x="1066" y="367.2607">stop()</text></g><!--class WirelessNetworkError--><g id="elem_WirelessNetworkError"><rect codeLine="60" fill="#F1F1F1" height="48" id="WirelessNetworkError" rx="3.5" ry="3.5" style="stroke:#181818;stroke-width:0.5;" width="180" x="1479" y="228.5"/><ellipse cx="1494" cy="244.5" fill="#ADD1B2" rx="11" ry="11" style="stroke:#181818;stroke-width:1.0;"/><path d="M1496.9688,250.1406 Q1496.3906,250.4375 1495.75,250.5781 Q1495.1094,250.7344 1494.4063,250.7344 Q1491.9063,250.7344 1490.5781,249.0938 Q1489.2656,247.4375 1489.2656,244.3125 Q1489.2656,241.1875 1490.5781,239.5313 Q1491.9063,237.875 1494.4063,237.875 Q1495.1094,237.875 1495.75,238.0313 Q1496.4063,238.1875 1496.9688,238.4844 L1496.9688,241.2031 Q1496.3438,240.625 1495.75,240.3594 Q1495.1563,240.0781 1494.5313,240.0781 Q1493.1875,240.0781 1492.5,241.1563 Q1491.8125,242.2188 1491.8125,244.3125 Q1491.8125,246.4063 1492.5,247.4844 Q1493.1875,248.5469 1494.5313,248.5469 Q1495.1563,248.5469 1495.75,248.2813 Q1496.3438,248 1496.9688,247.4219 L1496.9688,250.1406 Z " fill="#000000"/><text fill="#000000" font-family="sans-serif" font-size="14" lengthAdjust="spacing" textLength="148" x="1508" y="249.3467">WirelessNetworkError</text><line style="stroke:#181818;stroke-width:0.5;" x1="1480" x2="1658" y1="260.5" y2="260.5"/><line style="stroke:#181818;stroke-width:0.5;" x1="1480" x2="1658" y1="268.5" y2="268.5"/></g><!--class EchoServer--><g id="elem_EchoServer"><rect codeLine="66" fill="#F1F1F1" height="129.4844" id="EchoServer" rx="3.5" ry="3.5" style="stroke:#181818;stroke-width:0.5;" width="179" x="542.5" y="188"/><ellipse cx="588.25" cy="204" fill="#ADD1B2" rx="11" ry="11" style="stroke:#181818;stroke-width:1.0;"/><path d="M591.2188,209.6406 Q590.6406,209.9375 590,210.0781 Q589.3594,210.2344 588.6563,210.2344 Q586.1563,210.2344 584.8281,208.5938 Q583.5156,206.9375 583.5156,203.8125 Q583.5156,200.6875 584.8281,199.0313 Q586.1563,197.375 588.6563,197.375 Q589.3594,197.375 590,197.5313 Q590.6563,197.6875 591.2188,197.9844 L591.2188,200.7031 Q590.5938,200.125 590,199.8594 Q589.4063,199.5781 588.7813,199.5781 Q587.4375,199.5781 586.75,200.6563 Q586.0625,201.7188 586.0625,203.8125 Q586.0625,205.9063 586.75,206.9844 Q587.4375,208.0469 588.7813,208.0469 Q589.4063,208.0469 590,207.7813 Q590.5938,207.5 591.2188,206.9219 L591.2188,209.6406 Z " fill="#000000"/><text fill="#000000" font-family="sans-serif" font-size="14" lengthAdjust="spacing" textLength="79" x="608.75" y="208.8467">EchoServer</text><line style="stroke:#181818;stroke-width:0.5;" x1="543.5" x2="720.5" y1="220" y2="220"/><rect fill="none" height="6" style="stroke:#C82930;stroke-width:1.0;" width="6" x="550.5" y="230.6484"/><text fill="#000000" font-family="sans-serif" font-size="14" lengthAdjust="spacing" textLength="153" x="562.5" y="236.9951">_state_attributes : dict</text><line style="stroke:#181818;stroke-width:0.5;" x1="543.5" x2="720.5" y1="244.2969" y2="244.2969"/><ellipse cx="553.5" cy="257.9453" fill="#84BE84" rx="3" ry="3" style="stroke:#038048;stroke-width:1.0;"/><text fill="#000000" font-family="sans-serif" font-size="14" lengthAdjust="spacing" textLength="96" x="562.5" y="261.292">delete_state()</text><ellipse cx="553.5" cy="274.2422" fill="#84BE84" rx="3" ry="3" style="stroke:#038048;stroke-width:1.0;"/><text fill="#000000" font-family="sans-serif" font-size="14" lengthAdjust="spacing" textLength="75" x="562.5" y="277.5889">get_state()</text><ellipse cx="553.5" cy="290.5391" fill="#84BE84" rx="3" ry="3" style="stroke:#038048;stroke-width:1.0;"/><text fill="#000000" font-family="sans-serif" font-size="14" lengthAdjust="spacing" textLength="74" x="562.5" y="293.8857">set_state()</text><ellipse cx="553.5" cy="306.8359" fill="#84BE84" rx="3" ry="3" style="stroke:#038048;stroke-width:1.0;"/><text fill="#000000" font-family="sans-serif" font-size="14" lengthAdjust="spacing" textLength="101" x="562.5" y="310.1826">update_state()</text></g><!--class PWMLED--><g id="elem_PWMLED"><rect codeLine="75" fill="#F1F1F1" height="129.4844" id="PWMLED" rx="3.5" ry="3.5" style="stroke:#181818;stroke-width:0.5;" width="179" x="306.5" y="188"/><ellipse cx="361.25" cy="204" fill="#ADD1B2" rx="11" ry="11" style="stroke:#181818;stroke-width:1.0;"/><path d="M364.2188,209.6406 Q363.6406,209.9375 363,210.0781 Q362.3594,210.2344 361.6563,210.2344 Q359.1563,210.2344 357.8281,208.5938 Q356.5156,206.9375 356.5156,203.8125 Q356.5156,200.6875 357.8281,199.0313 Q359.1563,197.375 361.6563,197.375 Q362.3594,197.375 363,197.5313 Q363.6563,197.6875 364.2188,197.9844 L364.2188,200.7031 Q363.5938,200.125 363,199.8594 Q362.4063,199.5781 361.7813,199.5781 Q360.4375,199.5781 359.75,200.6563 Q359.0625,201.7188 359.0625,203.8125 Q359.0625,205.9063 359.75,206.9844 Q360.4375,208.0469 361.7813,208.0469 Q362.4063,208.0469 363,207.7813 Q363.5938,207.5 364.2188,206.9219 L364.2188,209.6406 Z " fill="#000000"/><text fill="#000000" font-family="sans-serif" font-size="14" lengthAdjust="spacing" textLength="61" x="381.75" y="208.8467">PWMLED</text><line style="stroke:#181818;stroke-width:0.5;" x1="307.5" x2="484.5" y1="220" y2="220"/><rect fill="none" height="6" style="stroke:#C82930;stroke-width:1.0;" width="6" x="314.5" y="230.6484"/><text fill="#000000" font-family="sans-serif" font-size="14" lengthAdjust="spacing" textLength="153" x="326.5" y="236.9951">_state_attributes : dict</text><line style="stroke:#181818;stroke-width:0.5;" x1="307.5" x2="484.5" y1="244.2969" y2="244.2969"/><ellipse cx="317.5" cy="257.9453" fill="#84BE84" rx="3" ry="3" style="stroke:#038048;stroke-width:1.0;"/><text fill="#000000" font-family="sans-serif" font-size="14" lengthAdjust="spacing" textLength="96" x="326.5" y="261.292">delete_state()</text><ellipse cx="317.5" cy="274.2422" fill="#84BE84" rx="3" ry="3" style="stroke:#038048;stroke-width:1.0;"/><text fill="#000000" font-family="sans-serif" font-size="14" lengthAdjust="spacing" textLength="75" x="326.5" y="277.5889">get_state()</text><ellipse cx="317.5" cy="290.5391" fill="#84BE84" rx="3" ry="3" style="stroke:#038048;stroke-width:1.0;"/><text fill="#000000" font-family="sans-serif" font-size="14" lengthAdjust="spacing" textLength="74" x="326.5" y="293.8857">set_state()</text><ellipse cx="317.5" cy="306.8359" fill="#84BE84" rx="3" ry="3" style="stroke:#038048;stroke-width:1.0;"/><text fill="#000000" font-family="sans-serif" font-size="14" lengthAdjust="spacing" textLength="101" x="326.5" y="310.1826">update_state()</text></g><!--class SimpleLED--><g id="elem_SimpleLED"><rect codeLine="84" fill="#F1F1F1" height="129.4844" id="SimpleLED" rx="3.5" ry="3.5" style="stroke:#181818;stroke-width:0.5;" width="179" x="70.5" y="188"/><ellipse cx="119.25" cy="204" fill="#ADD1B2" rx="11" ry="11" style="stroke:#181818;stroke-width:1.0;"/><path d="M122.2188,209.6406 Q121.6406,209.9375 121,210.0781 Q120.3594,210.2344 119.6563,210.2344 Q117.1563,210.2344 115.8281,208.5938 Q114.5156,206.9375 114.5156,203.8125 Q114.5156,200.6875 115.8281,199.0313 Q117.1563,197.375 119.6563,197.375 Q120.3594,197.375 121,197.5313 Q121.6563,197.6875 122.2188,197.9844 L122.2188,200.7031 Q121.5938,200.125 121,199.8594 Q120.4063,199.5781 119.7813,199.5781 Q118.4375,199.5781 117.75,200.6563 Q117.0625,201.7188 117.0625,203.8125 Q117.0625,205.9063 117.75,206.9844 Q118.4375,208.0469 119.7813,208.0469 Q120.4063,208.0469 121,207.7813 Q121.5938,207.5 122.2188,206.9219 L122.2188,209.6406 Z " fill="#000000"/><text fill="#000000" font-family="sans-serif" font-size="14" lengthAdjust="spacing" textLength="73" x="139.75" y="208.8467">SimpleLED</text><line style="stroke:#181818;stroke-width:0.5;" x1="71.5" x2="248.5" y1="220" y2="220"/><rect fill="none" height="6" style="stroke:#C82930;stroke-width:1.0;" width="6" x="78.5" y="230.6484"/><text fill="#000000" font-family="sans-serif" font-size="14" lengthAdjust="spacing" textLength="153" x="90.5" y="236.9951">_state_attributes : dict</text><line style="stroke:#181818;stroke-width:0.5;" x1="71.5" x2="248.5" y1="244.2969" y2="244.2969"/><ellipse cx="81.5" cy="257.9453" fill="#84BE84" rx="3" ry="3" style="stroke:#038048;stroke-width:1.0;"/><text fill="#000000" font-family="sans-serif" font-size="14" lengthAdjust="spacing" textLength="96" x="90.5" y="261.292">delete_state()</text><ellipse cx="81.5" cy="274.2422" fill="#84BE84" rx="3" ry="3" style="stroke:#038048;stroke-width:1.0;"/><text fill="#000000" font-family="sans-serif" font-size="14" lengthAdjust="spacing" textLength="75" x="90.5" y="277.5889">get_state()</text><ellipse cx="81.5" cy="290.5391" fill="#84BE84" rx="3" ry="3" style="stroke:#038048;stroke-width:1.0;"/><text fill="#000000" font-family="sans-serif" font-size="14" lengthAdjust="spacing" textLength="74" x="90.5" y="293.8857">set_state()</text><ellipse cx="81.5" cy="306.8359" fill="#84BE84" rx="3" ry="3" style="stroke:#038048;stroke-width:1.0;"/><text fill="#000000" font-family="sans-serif" font-size="14" lengthAdjust="spacing" textLength="101" x="90.5" y="310.1826">update_state()</text></g><!--class Exception--><g id="elem_Exception"><rect codeLine="95" fill="#F1F1F1" height="48" id="Exception" rx="3.5" ry="3.5" style="stroke:#181818;stroke-width:0.5;" width="101" x="1763.5" y="714"/><ellipse cx="1778.5" cy="730" fill="#A9DCDF" rx="11" ry="11" style="stroke:#181818;stroke-width:1.0;"/><path d="M1778.6094,725.3438 L1777.4531,730.4219 L1779.7813,730.4219 L1778.6094,725.3438 Z M1777.125,723.1094 L1780.1094,723.1094 L1783.4688,735.5 L1781.0156,735.5 L1780.25,732.4375 L1776.9688,732.4375 L1776.2188,735.5 L1773.7813,735.5 L1777.125,723.1094 Z " fill="#000000"/><text fill="#000000" font-family="sans-serif" font-size="14" font-style="italic" lengthAdjust="spacing" textLength="69" x="1792.5" y="734.8467">Exception</text><line style="stroke:#181818;stroke-width:0.5;" x1="1764.5" x2="1863.5" y1="746" y2="746"/><line style="stroke:#181818;stroke-width:0.5;" x1="1764.5" x2="1863.5" y1="754" y2="754"/></g><!--class IndexError--><g id="elem_IndexError"><rect codeLine="97" fill="#F1F1F1" height="48" id="IndexError" rx="3.5" ry="3.5" style="stroke:#181818;stroke-width:0.5;" width="102" x="1888" y="512.5"/><ellipse cx="1903" cy="528.5" fill="#ADD1B2" rx="11" ry="11" style="stroke:#181818;stroke-width:1.0;"/><path d="M1905.9688,534.1406 Q1905.3906,534.4375 1904.75,534.5781 Q1904.1094,534.7344 1903.4063,534.7344 Q1900.9063,534.7344 1899.5781,533.0938 Q1898.2656,531.4375 1898.2656,528.3125 Q1898.2656,525.1875 1899.5781,523.5313 Q1900.9063,521.875 1903.4063,521.875 Q1904.1094,521.875 1904.75,522.0313 Q1905.4063,522.1875 1905.9688,522.4844 L1905.9688,525.2031 Q1905.3438,524.625 1904.75,524.3594 Q1904.1563,524.0781 1903.5313,524.0781 Q1902.1875,524.0781 1901.5,525.1563 Q1900.8125,526.2188 1900.8125,528.3125 Q1900.8125,530.4063 1901.5,531.4844 Q1902.1875,532.5469 1903.5313,532.5469 Q1904.1563,532.5469 1904.75,532.2813 Q1905.3438,532 1905.9688,531.4219 L1905.9688,534.1406 Z " fill="#000000"/><text fill="#000000" font-family="sans-serif" font-size="14" lengthAdjust="spacing" textLength="70" x="1917" y="533.3467">IndexError</text><line style="stroke:#181818;stroke-width:0.5;" x1="1889" x2="1989" y1="544.5" y2="544.5"/><line style="stroke:#181818;stroke-width:0.5;" x1="1889" x2="1989" y1="552.5" y2="552.5"/></g><!--class KeyError--><g id="elem_KeyError"><rect codeLine="99" fill="#F1F1F1" height="48" id="KeyError" rx="3.5" ry="3.5" style="stroke:#181818;stroke-width:0.5;" width="90" x="1763" y="512.5"/><ellipse cx="1778" cy="528.5" fill="#ADD1B2" rx="11" ry="11" style="stroke:#181818;stroke-width:1.0;"/><path d="M1780.9688,534.1406 Q1780.3906,534.4375 1779.75,534.5781 Q1779.1094,534.7344 1778.4063,534.7344 Q1775.9063,534.7344 1774.5781,533.0938 Q1773.2656,531.4375 1773.2656,528.3125 Q1773.2656,525.1875 1774.5781,523.5313 Q1775.9063,521.875 1778.4063,521.875 Q1779.1094,521.875 1779.75,522.0313 Q1780.4063,522.1875 1780.9688,522.4844 L1780.9688,525.2031 Q1780.3438,524.625 1779.75,524.3594 Q1779.1563,524.0781 1778.5313,524.0781 Q1777.1875,524.0781 1776.5,525.1563 Q1775.8125,526.2188 1775.8125,528.3125 Q1775.8125,530.4063 1776.5,531.4844 Q1777.1875,532.5469 1778.5313,532.5469 Q1779.1563,532.5469 1779.75,532.2813 Q1780.3438,532 1780.9688,531.4219 L1780.9688,534.1406 Z " fill="#000000"/><text fill="#000000" font-family="sans-serif" font-size="14" lengthAdjust="spacing" textLength="58" x="1792" y="533.3467">KeyError</text><line style="stroke:#181818;stroke-width:0.5;" x1="1764" x2="1852" y1="544.5" y2="544.5"/><line style="stroke:#181818;stroke-width:0.5;" x1="1764" x2="1852" y1="552.5" y2="552.5"/></g><!--reverse link IndexError to Exception--><g id="link_IndexError_Exception"><path codeLine="103" d="M1914.78,577.81 C1901.91,599.07 1885.75,625.54 1871,649 C1857.05,671.19 1840.76,696.26 1829.17,713.95 " fill="none" id="IndexError-backto-Exception" style="stroke:#454645;stroke-width:1.0;"/><polygon fill="none" points="1908.79,574.18,1925.12,560.68,1920.78,581.42,1908.79,574.18" style="stroke:#454645;stroke-width:1.0;"/></g><!--reverse link KeyError to Exception--><g id="link_KeyError_Exception"><path codeLine="104" d="M1809.31,581 C1810.54,621.86 1812.33,681.45 1813.3,713.87 " fill="none" id="KeyError-backto-Exception" style="stroke:#454645;stroke-width:1.0;"/><polygon fill="none" points="1802.3,580.98,1808.7,560.78,1816.3,580.56,1802.3,580.98" style="stroke:#454645;stroke-width:1.0;"/></g><!--reverse link HTTPResponse to HTTPStatus--><g id="link_HTTPResponse_HTTPStatus"><path codeLine="106" d="M980.12,491.7 C1033.74,496.13 991.15,572.49 974,629.5 C967.62,650.72 955.62,671.68 943.34,689.39 " fill="none" id="HTTPResponse-backto-HTTPStatus" style="stroke:#454645;stroke-width:1.0;"/><polygon fill="#454645" points="975,491.5,983.8453,495.8313,979.9966,491.6856,984.1423,487.8368,975,491.5" style="stroke:#454645;stroke-width:1.0;"/></g><!--reverse link RESTClientError to Exception--><g id="link_RESTClientError_Exception"><path codeLine="108" d="M1142.3,577.8 C1158.8,602.49 1183.24,632.44 1213,649 C1307.45,701.57 1636.02,726.37 1763.19,734.17 " fill="none" id="RESTClientError-backto-Exception" style="stroke:#454645;stroke-width:1.0;"/><polygon fill="none" points="1136.23,581.29,1131.51,560.63,1148.08,573.84,1136.23,581.29" style="stroke:#454645;stroke-width:1.0;"/></g><!--reverse link RESTParseError to Exception--><g id="link_RESTParseError_Exception"><path codeLine="109" d="M1364.8,569.4 C1413.09,592.93 1481.39,624.9 1543,649 C1618.55,678.55 1708.52,706.36 1763.43,722.52 " fill="none" id="RESTParseError-backto-Exception" style="stroke:#454645;stroke-width:1.0;"/><polygon fill="none" points="1361.57,575.61,1346.69,560.52,1367.73,563.04,1361.57,575.61" style="stroke:#454645;stroke-width:1.0;"/></g><!--reverse link RESTServerError to Exception--><g id="link_RESTServerError_Exception"><path codeLine="110" d="M1341.42,290.73 C1442.3,385.99 1707.63,636.55 1789.55,713.91 " fill="none" id="RESTServerError-backto-Exception" style="stroke:#454645;stroke-width:1.0;"/><polygon fill="none" points="1336.43,295.64,1326.69,276.82,1346.04,285.46,1336.43,295.64" style="stroke:#454645;stroke-width:1.0;"/></g><!--reverse link RESTServer to HTTPResponse--><g id="link_RESTServer_HTTPResponse"><path codeLine="112" d="M1039.73,313.65 C977.96,317.26 943.09,383.95 924.2,443.28 " fill="none" id="RESTServer-backto-HTTPResponse" style="stroke:#454645;stroke-width:1.0;"/><polygon fill="#454645" points="1045,313.5,1035.8891,309.7594,1040.0021,313.6432,1036.1183,317.7561,1045,313.5" style="stroke:#454645;stroke-width:1.0;"/></g><!--reverse link RESTServer to RESTClientError--><g id="link_RESTServer_RESTClientError"><path codeLine="113" d="M1192.09,314.41 C1221.92,326.59 1158.83,457.84 1131.15,512.16 " fill="none" id="RESTServer-backto-RESTClientError" style="stroke:#454645;stroke-width:1.0;"/><polygon fill="#454645" points="1187,313.5,1195.1478,319.0329,1191.9207,314.3869,1196.5668,311.1598,1187,313.5" style="stroke:#454645;stroke-width:1.0;"/></g><!--reverse link RESTServer to IndexError--><g id="link_RESTServer_IndexError"><path codeLine="114" d="M1192.04,314.03 C1213.86,319.25 1187.55,361.49 1211,378 C1240.99,399.11 1840.29,365.97 1871,386 C1914.46,414.35 1930.5,477.95 1936.13,512.35 " fill="none" id="RESTServer-backto-IndexError" style="stroke:#454645;stroke-width:1.0;"/><polygon fill="#454645" points="1187,313.5,1195.5267,318.4291,1191.972,314.0286,1196.3725,310.474,1187,313.5" style="stroke:#454645;stroke-width:1.0;"/></g><!--reverse link RESTServer to APIBase--><g id="link_RESTServer_APIBase"><path codeLine="115" d="M1039.71,329.53 C877.11,331.36 705.22,416.77 603.88,477.02 " fill="none" id="RESTServer-backto-APIBase" style="stroke:#454645;stroke-width:1.0;"/><polygon fill="#454645" points="1045,329.5,1035.9773,325.5515,1040.0001,329.5286,1036.023,333.5514,1045,329.5" style="stroke:#454645;stroke-width:1.0;"/></g><!--reverse link RESTServer to KeyError--><g id="link_RESTServer_KeyError"><path codeLine="116" d="M1192.27,330.25 C1207.88,335.41 1192.59,365.99 1211,378 C1227.77,388.94 1371.36,382.13 1391,386 C1531.36,413.62 1687.89,480.03 1763,514.28 " fill="none" id="RESTServer-backto-KeyError" style="stroke:#454645;stroke-width:1.0;"/><polygon fill="#454645" points="1187,329.5,1195.3502,334.7225,1191.9506,330.2011,1196.472,326.8015,1187,329.5" style="stroke:#454645;stroke-width:1.0;"/></g><!--reverse link RESTServer to RESTParseError--><g id="link_RESTServer_RESTParseError"><path codeLine="117" d="M1192.2,297.85 C1221.6,302.16 1197.05,345.42 1211,378 C1232.44,428.09 1266,482.41 1285.51,512.36 " fill="none" id="RESTServer-backto-RESTParseError" style="stroke:#454645;stroke-width:1.0;"/><polygon fill="#454645" points="1187,297.5,1195.7044,302.108,1191.9882,297.843,1196.2532,294.1269,1187,297.5" style="stroke:#454645;stroke-width:1.0;"/></g><!--reverse link WirelessNetworkError to Exception--><g id="link_WirelessNetworkError_Exception"><path codeLine="119" d="M1679.09,271.46 C1795.78,293.01 1968.61,332.96 2008,386 C2077.7,479.84 2071.32,550.75 2008,649 C1976.65,697.65 1911.13,719.71 1864.93,729.5 " fill="none" id="WirelessNetworkError-backto-Exception" style="stroke:#454645;stroke-width:1.0;"/><polygon fill="none" points="1677.51,278.29,1659.07,267.84,1680,264.51,1677.51,278.29" style="stroke:#454645;stroke-width:1.0;"/></g><!--reverse link EchoServer to APIBase--><g id="link_EchoServer_APIBase"><path codeLine="121" d="M597.6,335.71 C579.47,379.03 557.57,431.37 540.74,471.61 " fill="none" id="EchoServer-backto-APIBase" style="stroke:#454645;stroke-width:1.0;"/><polygon fill="none" points="591.19,332.89,605.37,317.14,604.11,338.29,591.19,332.89" style="stroke:#454645;stroke-width:1.0;"/></g><!--reverse link PWMLED to APIBase--><g id="link_PWMLED_APIBase"><path codeLine="122" d="M430.4,335.71 C448.53,379.03 470.43,431.37 487.26,471.61 " fill="none" id="PWMLED-backto-APIBase" style="stroke:#454645;stroke-width:1.0;"/><polygon fill="none" points="423.89,338.29,422.63,317.14,436.81,332.89,423.89,338.29" style="stroke:#454645;stroke-width:1.0;"/></g><!--reverse link SimpleLED to APIBase--><g id="link_SimpleLED_APIBase"><path codeLine="123" d="M237.24,331.13 C254.2,347.12 272.36,363.49 290,378 C332.5,412.95 382.36,448.5 424.24,476.95 " fill="none" id="SimpleLED-backto-APIBase" style="stroke:#454645;stroke-width:1.0;"/><polygon fill="none" points="232.33,336.11,222.7,317.23,242,325.99,232.33,336.11" style="stroke:#454645;stroke-width:1.0;"/></g><!--SRC=[tLPDRzim3BtdLsYt3KNr0uAWmBPcMD4j2P8CFHgAJIH2RScGwBP1b_y- -Iks4yfni5jzCiJtAEg98la9Tv00Uv4R8nIEb4Z0fY84bXcmoDv7p7tDgaXbjTPTtmWBR39PGeX2RMEuksl1yaziB1eH8WjZOItxkdZubbEweFoxPO55WH08H2Ct6O9bOnR94C-WxxNJ0xjX4SJWM0NtyvT-x1Pm6D0E1MPf93ox7qRDtwXPQBJR8QQagEu6Kgqk25lg-NEzNYnhk5VKp5AMZOxsr7eY4y1z2fGjZBKb3JiG4PWpomqZTt4Aqs7bqgl8gsJ-WSgIujohmWLnwXisVoGMP_Dru3NycF-PtNllx_oEB9WNC0DkQ3bThR_74XHEZT7c17FmC1R2MBY6i2hYeHcz54_M53R2aZz85YYTAVBoqB2TjaYOf4AMQkCpRKJu7EkjnsfSTWNeyb9dFWUlHhg7M6E8oDDSqi0zLq4yQbT7fBjO37V5sKY4WQsq2CQFS4bjq6FHQKzzeCf3XZAsP7rGWA_QF0UXLifbtu0aV9B6bKbhPoMpFx7eSE1D9AdpGKO4uKuF26FgOBrPDx01NApw_QM-lxuFBkhdCgIlIGpH024MJxz_JUy_fWXMvdaoJ8TLWVr0KXn6XzOi1SOeNHtjP12QleMGejIgCfVqqlQW8dXhlz6syH7sNPEhxyK-l4MR_BszBNVdnuqgr95FOaR5-CVpqOJNOmXl3ndZSJLHi8cZ-z1bQ-vuApiAFss7P1GqhTKJhs2r6-F58v_nnkDEN-WzT2tH_pYaLRhQusb2N73GwMojaDpKp_C9drTZ-zLkkYbtWTuqw1vLcYIeBwxea_oa9tAou_NTVztVUDxBUAjJ5QHUFOxKilxpghfVGJpMJDvKn3xwFm00]--></g></svg>