<?xml version="1.0" encoding="us-ascii" standalone="no"?><svg xmlns="http://www.w3.org/2000/svg" xmlns:xlink="http://www.w3.org/1999/xlink" contentStyleType="text/css" height="689px" preserveAspectRatio="none" style="width:2225px;height:689px;background:#FFFFFF;" version="1.1" viewBox="0 0 2225 689" width="2225px" zoomAndPan="magnify"><defs/><g><!--cluster urest--><g id="cluster_urest"><path d="M9.5,6 L50.5,6 A5.25,5.25 0 0 1 54,9.5 L61,28.2969 L2056.5,28.2969 A3.5,3.5 0 0 1 2060,31.7969 L2060,678.5 A3.5,3.5 0 0 1 2056.5,682 L9.5,682 A3.5,3.5 0 0 1 6,678.5 L6,9.5 A3.5,3.5 0 0 1 9.5,6 " fill="none" style="stroke:#696969;stroke-width:1.0;"/><line style="stroke:#696969;stroke-width:1.0;" x1="6" x2="61" y1="28.2969" y2="28.2969"/><text fill="#000000" font-family="sans-serif" font-size="14" font-weight="bold" lengthAdjust="spacing" textLength="42" x="10" y="20.9951">urest</text></g><!--cluster api--><g id="cluster_api"><path d="M269.5,411 L291.5,411 A5.25,5.25 0 0 1 295,414.5 L302,433.2969 L522.5,433.2969 A3.5,3.5 0 0 1 526,436.7969 L526,654.5 A3.5,3.5 0 0 1 522.5,658 L269.5,658 A3.5,3.5 0 0 1 266,654.5 L266,414.5 A3.5,3.5 0 0 1 269.5,411 " fill="none" style="stroke:#696969;stroke-width:1.0;"/><line style="stroke:#696969;stroke-width:1.0;" x1="266" x2="302" y1="433.2969" y2="433.2969"/><text fill="#000000" font-family="sans-serif" font-size="14" font-weight="bold" lengthAdjust="spacing" textLength="23" x="270" y="425.9951">api</text></g><!--cluster base--><g id="cluster_base"><rect fill="none" height="180" rx="3.5" ry="3.5" style="stroke:#696969;stroke-width:1.0;" width="212" x="290" y="454"/><text fill="#000000" font-family="sans-serif" font-size="14" font-weight="bold" lengthAdjust="spacing" textLength="38" x="377" y="468.9951">base</text></g><!--cluster http--><g id="cluster_http"><path d="M789.5,49 L820.5,49 A5.25,5.25 0 0 1 824,52.5 L831,71.2969 L1748.5,71.2969 A3.5,3.5 0 0 1 1752,74.7969 L1752,638.5 A3.5,3.5 0 0 1 1748.5,642 L789.5,642 A3.5,3.5 0 0 1 786,638.5 L786,52.5 A3.5,3.5 0 0 1 789.5,49 " fill="none" style="stroke:#696969;stroke-width:1.0;"/><line style="stroke:#696969;stroke-width:1.0;" x1="786" x2="831" y1="71.2969" y2="71.2969"/><text fill="#000000" font-family="sans-serif" font-size="14" font-weight="bold" lengthAdjust="spacing" textLength="32" x="790" y="63.9951">http</text></g><!--cluster response--><g id="cluster_response"><rect fill="none" height="497" rx="3.5" ry="3.5" style="stroke:#696969;stroke-width:1.0;" width="188" x="810" y="121"/><text fill="#000000" font-family="sans-serif" font-size="14" font-weight="bold" lengthAdjust="spacing" textLength="75" x="866.5" y="135.9951">response</text></g><!--cluster server--><g id="cluster_server"><rect fill="none" height="295" rx="3.5" ry="3.5" style="stroke:#696969;stroke-width:1.0;" width="706" x="1022" y="92"/><text fill="#000000" font-family="sans-serif" font-size="14" font-weight="bold" lengthAdjust="spacing" textLength="52" x="1349" y="106.9951">server</text></g><!--cluster utils--><g id="cluster_utils"><path d="M1779.5,147 L1811.5,147 A5.25,5.25 0 0 1 1815,150.5 L1822,169.2969 L2032.5,169.2969 A3.5,3.5 0 0 1 2036,172.7969 L2036,309.5 A3.5,3.5 0 0 1 2032.5,313 L1779.5,313 A3.5,3.5 0 0 1 1776,309.5 L1776,150.5 A3.5,3.5 0 0 1 1779.5,147 " fill="none" style="stroke:#696969;stroke-width:1.0;"/><line style="stroke:#696969;stroke-width:1.0;" x1="1776" x2="1822" y1="169.2969" y2="169.2969"/><text fill="#000000" font-family="sans-serif" font-size="14" font-weight="bold" lengthAdjust="spacing" textLength="33" x="1780" y="161.9951">utils</text></g><!--cluster network_connect--><g id="cluster_network_connect"><rect fill="none" height="99" rx="3.5" ry="3.5" style="stroke:#696969;stroke-width:1.0;" width="212" x="1800" y="190"/><text fill="#000000" font-family="sans-serif" font-size="14" font-weight="bold" lengthAdjust="spacing" textLength="137" x="1837.5" y="204.9951">network_connect</text></g><!--cluster examples--><g id="cluster_examples"><path d="M33.5,106.5 L107.5,106.5 A5.25,5.25 0 0 1 111,110 L118,128.7969 L758.5,128.7969 A3.5,3.5 0 0 1 762,132.2969 L762,350 A3.5,3.5 0 0 1 758.5,353.5 L33.5,353.5 A3.5,3.5 0 0 1 30,350 L30,110 A3.5,3.5 0 0 1 33.5,106.5 " fill="none" style="stroke:#696969;stroke-width:1.0;"/><line style="stroke:#696969;stroke-width:1.0;" x1="30" x2="118" y1="128.7969" y2="128.7969"/><text fill="#000000" font-family="sans-serif" font-size="14" font-weight="bold" lengthAdjust="spacing" textLength="75" x="34" y="121.4951">examples</text></g><!--cluster echo--><g id="cluster_echo"><rect fill="none" height="180" rx="3.5" ry="3.5" style="stroke:#696969;stroke-width:1.0;" width="212" x="526" y="149.5"/><text fill="#000000" font-family="sans-serif" font-size="14" font-weight="bold" lengthAdjust="spacing" textLength="39" x="612.5" y="164.4951">echo</text></g><!--cluster pwmled--><g id="cluster_pwmled"><rect fill="none" height="180" rx="3.5" ry="3.5" style="stroke:#696969;stroke-width:1.0;" width="212" x="290" y="149.5"/><text fill="#000000" font-family="sans-serif" font-size="14" font-weight="bold" lengthAdjust="spacing" textLength="62" x="365" y="164.4951">pwmled</text></g><!--cluster simpleled--><g id="cluster_simpleled"><rect fill="none" height="180" rx="3.5" ry="3.5" style="stroke:#696969;stroke-width:1.0;" width="212" x="54" y="149.5"/><text fill="#000000" font-family="sans-serif" font-size="14" font-weight="bold" lengthAdjust="spacing" textLength="75" x="122.5" y="164.4951">simpleled</text></g><!--cluster errno--><g id="cluster_errno"><path d="M2087.5,494.5 L2130.5,494.5 A5.25,5.25 0 0 1 2134,498 L2141,516.7969 L2214.5,516.7969 A3.5,3.5 0 0 1 2218,520.2969 L2218,590 A3.5,3.5 0 0 1 2214.5,593.5 L2087.5,593.5 A3.5,3.5 0 0 1 2084,590 L2084,498 A3.5,3.5 0 0 1 2087.5,494.5 " fill="none" style="stroke:#696969;stroke-width:1.0;"/><line style="stroke:#696969;stroke-width:1.0;" x1="2084" x2="2141" y1="516.7969" y2="516.7969"/><text fill="#000000" font-family="sans-serif" font-size="14" font-weight="bold" lengthAdjust="spacing" textLength="44" x="2088" y="509.4951">errno</text></g><!--class APIBase--><g id="elem_APIBase"><rect codeLine="5" fill="#F1F1F1" height="129.4844" id="APIBase" rx="3.5" ry="3.5" style="stroke:#181818;stroke-width:0.5;" width="179" x="306.5" y="489"/><ellipse cx="363.75" cy="505" fill="#A9DCDF" rx="11" ry="11" style="stroke:#181818;stroke-width:1.0;"/><path d="M363.8594,500.3438 L362.7031,505.4219 L365.0313,505.4219 L363.8594,500.3438 Z M362.375,498.1094 L365.3594,498.1094 L368.7188,510.5 L366.2656,510.5 L365.5,507.4375 L362.2188,507.4375 L361.4688,510.5 L359.0313,510.5 L362.375,498.1094 Z " fill="#000000"/><text fill="#000000" font-family="sans-serif" font-size="14" font-style="italic" lengthAdjust="spacing" textLength="56" x="384.25" y="509.8467">APIBase</text><line style="stroke:#181818;stroke-width:0.5;" x1="307.5" x2="484.5" y1="521" y2="521"/><rect fill="none" height="6" style="stroke:#C82930;stroke-width:1.0;" width="6" x="314.5" y="531.6484"/><text fill="#000000" font-family="sans-serif" font-size="14" lengthAdjust="spacing" textLength="153" x="326.5" y="537.9951">_state_attributes : dict</text><line style="stroke:#181818;stroke-width:0.5;" x1="307.5" x2="484.5" y1="545.2969" y2="545.2969"/><ellipse cx="317.5" cy="558.9453" fill="#84BE84" rx="3" ry="3" style="stroke:#038048;stroke-width:1.0;"/><text fill="#000000" font-family="sans-serif" font-size="14" font-style="italic" lengthAdjust="spacing" textLength="95" x="326.5" y="562.292">delete_state()</text><ellipse cx="317.5" cy="575.2422" fill="#84BE84" rx="3" ry="3" style="stroke:#038048;stroke-width:1.0;"/><text fill="#000000" font-family="sans-serif" font-size="14" font-style="italic" lengthAdjust="spacing" textLength="74" x="326.5" y="578.5889">get_state()</text><ellipse cx="317.5" cy="591.5391" fill="#84BE84" rx="3" ry="3" style="stroke:#038048;stroke-width:1.0;"/><text fill="#000000" font-family="sans-serif" font-size="14" font-style="italic" lengthAdjust="spacing" textLength="72" x="326.5" y="594.8857">set_state()</text><ellipse cx="317.5" cy="607.8359" fill="#84BE84" rx="3" ry="3" style="stroke:#038048;stroke-width:1.0;"/><text fill="#000000" font-family="sans-serif" font-size="14" font-style="italic" lengthAdjust="spacing" textLength="100" x="326.5" y="611.1826">update_state()</text></g><!--class HTTPResponse--><g id="elem_HTTPResponse"><rect codeLine="17" fill="#F1F1F1" height="178.375" id="HTTPResponse" rx="3.5" ry="3.5" style="stroke:#181818;stroke-width:0.5;" width="140" x="834" y="160"/><ellipse cx="849" cy="176" fill="#ADD1B2" rx="11" ry="11" style="stroke:#181818;stroke-width:1.0;"/><path d="M851.9688,181.6406 Q851.3906,181.9375 850.75,182.0781 Q850.1094,182.2344 849.4063,182.2344 Q846.9063,182.2344 845.5781,180.5938 Q844.2656,178.9375 844.2656,175.8125 Q844.2656,172.6875 845.5781,171.0313 Q846.9063,169.375 849.4063,169.375 Q850.1094,169.375 850.75,169.5313 Q851.4063,169.6875 851.9688,169.9844 L851.9688,172.7031 Q851.3438,172.125 850.75,171.8594 Q850.1563,171.5781 849.5313,171.5781 Q848.1875,171.5781 847.5,172.6563 Q846.8125,173.7188 846.8125,175.8125 Q846.8125,177.9063 847.5,178.9844 Q848.1875,180.0469 849.5313,180.0469 Q850.1563,180.0469 850.75,179.7813 Q851.3438,179.5 851.9688,178.9219 L851.9688,181.6406 Z " fill="#000000"/><text fill="#000000" font-family="sans-serif" font-size="14" lengthAdjust="spacing" textLength="108" x="863" y="180.8467">HTTPResponse</text><line style="stroke:#181818;stroke-width:0.5;" x1="835" x2="973" y1="192" y2="192"/><rect fill="none" height="6" style="stroke:#C82930;stroke-width:1.0;" width="6" x="842" y="202.6484"/><text fill="#000000" font-family="sans-serif" font-size="14" lengthAdjust="spacing" textLength="50" x="854" y="208.9951">_status</text><rect fill="none" height="6" style="stroke:#C82930;stroke-width:1.0;" width="6" x="842" y="218.9453"/><text fill="#000000" font-family="sans-serif" font-size="14" lengthAdjust="spacing" textLength="41" x="854" y="225.292">_body</text><rect fill="none" height="6" style="stroke:#C82930;stroke-width:1.0;" width="6" x="842" y="235.2422"/><text fill="#000000" font-family="sans-serif" font-size="14" lengthAdjust="spacing" textLength="75" x="854" y="241.5889">_mimetype</text><rect fill="none" height="6" style="stroke:#C82930;stroke-width:1.0;" width="6" x="842" y="251.5391"/><text fill="#000000" font-family="sans-serif" font-size="14" lengthAdjust="spacing" textLength="44" x="854" y="257.8857">_close</text><rect fill="none" height="6" style="stroke:#C82930;stroke-width:1.0;" width="6" x="842" y="267.8359"/><text fill="#000000" font-family="sans-serif" font-size="14" lengthAdjust="spacing" textLength="56" x="854" y="274.1826">_header</text><ellipse cx="845" cy="287.1328" fill="none" rx="3" ry="3" style="stroke:#038048;stroke-width:1.0;"/><text fill="#000000" font-family="sans-serif" font-size="14" lengthAdjust="spacing" textLength="34" x="854" y="290.4795">body</text><ellipse cx="845" cy="303.4297" fill="none" rx="3" ry="3" style="stroke:#038048;stroke-width:1.0;"/><text fill="#000000" font-family="sans-serif" font-size="14" lengthAdjust="spacing" textLength="43" x="854" y="306.7764">status</text><line style="stroke:#181818;stroke-width:0.5;" x1="835" x2="973" y1="314.0781" y2="314.0781"/><ellipse cx="845" cy="327.7266" fill="#84BE84" rx="3" ry="3" style="stroke:#038048;stroke-width:1.0;"/><text fill="#000000" font-family="sans-serif" font-size="14" lengthAdjust="spacing" textLength="45" x="854" y="331.0732">send()</text></g><!--class HTTPStatus--><g id="elem_HTTPStatus"><rect codeLine="27" fill="#F1F1F1" height="96.8906" id="HTTPStatus" rx="3.5" ry="3.5" style="stroke:#181818;stroke-width:0.5;" width="113" x="847.5" y="505"/><ellipse cx="862.5" cy="521" fill="#EB937F" rx="11" ry="11" style="stroke:#181818;stroke-width:1.0;"/><path d="M866.6094,527 L858.8906,527 L858.8906,514.6094 L866.6094,514.6094 L866.6094,516.7656 L861.3438,516.7656 L861.3438,519.4375 L866.1094,519.4375 L866.1094,521.5938 L861.3438,521.5938 L861.3438,524.8438 L866.6094,524.8438 L866.6094,527 Z " fill="#000000"/><text fill="#000000" font-family="sans-serif" font-size="14" lengthAdjust="spacing" textLength="81" x="876.5" y="525.8467">HTTPStatus</text><line style="stroke:#181818;stroke-width:0.5;" x1="848.5" x2="959.5" y1="537" y2="537"/><ellipse cx="858.5" cy="550.6484" fill="none" rx="3" ry="3" style="stroke:#038048;stroke-width:1.0;"/><text fill="#000000" font-family="sans-serif" font-size="14" lengthAdjust="spacing" textLength="20" x="867.5" y="553.9951">OK</text><ellipse cx="858.5" cy="566.9453" fill="none" rx="3" ry="3" style="stroke:#038048;stroke-width:1.0;"/><text fill="#000000" font-family="sans-serif" font-size="14" lengthAdjust="spacing" textLength="57" x="867.5" y="570.292">NOT_OK</text><ellipse cx="858.5" cy="583.2422" fill="none" rx="3" ry="3" style="stroke:#038048;stroke-width:1.0;"/><text fill="#000000" font-family="sans-serif" font-size="14" lengthAdjust="spacing" textLength="87" x="867.5" y="586.5889">NOT_FOUND</text><line style="stroke:#181818;stroke-width:0.5;" x1="848.5" x2="959.5" y1="593.8906" y2="593.8906"/></g><!--class RESTClientError--><g id="elem_RESTClientError"><rect codeLine="34" fill="#F1F1F1" height="48" id="RESTClientError" rx="3.5" ry="3.5" style="stroke:#181818;stroke-width:0.5;" width="141" x="1570.5" y="225"/><ellipse cx="1585.5" cy="241" fill="#ADD1B2" rx="11" ry="11" style="stroke:#181818;stroke-width:1.0;"/><path d="M1588.4688,246.6406 Q1587.8906,246.9375 1587.25,247.0781 Q1586.6094,247.2344 1585.9063,247.2344 Q1583.4063,247.2344 1582.0781,245.5938 Q1580.7656,243.9375 1580.7656,240.8125 Q1580.7656,237.6875 1582.0781,236.0313 Q1583.4063,234.375 1585.9063,234.375 Q1586.6094,234.375 1587.25,234.5313 Q1587.9063,234.6875 1588.4688,234.9844 L1588.4688,237.7031 Q1587.8438,237.125 1587.25,236.8594 Q1586.6563,236.5781 1586.0313,236.5781 Q1584.6875,236.5781 1584,237.6563 Q1583.3125,238.7188 1583.3125,240.8125 Q1583.3125,242.9063 1584,243.9844 Q1584.6875,245.0469 1586.0313,245.0469 Q1586.6563,245.0469 1587.25,244.7813 Q1587.8438,244.5 1588.4688,243.9219 L1588.4688,246.6406 Z " fill="#000000"/><text fill="#000000" font-family="sans-serif" font-size="14" lengthAdjust="spacing" textLength="109" x="1599.5" y="245.8467">RESTClientError</text><line style="stroke:#181818;stroke-width:0.5;" x1="1571.5" x2="1710.5" y1="257" y2="257"/><line style="stroke:#181818;stroke-width:0.5;" x1="1571.5" x2="1710.5" y1="265" y2="265"/></g><!--class RESTParseError--><g id="elem_RESTParseError"><rect codeLine="36" fill="#F1F1F1" height="48" id="RESTParseError" rx="3.5" ry="3.5" style="stroke:#181818;stroke-width:0.5;" width="141" x="1394.5" y="225"/><ellipse cx="1409.5" cy="241" fill="#ADD1B2" rx="11" ry="11" style="stroke:#181818;stroke-width:1.0;"/><path d="M1412.4688,246.6406 Q1411.8906,246.9375 1411.25,247.0781 Q1410.6094,247.2344 1409.9063,247.2344 Q1407.4063,247.2344 1406.0781,245.5938 Q1404.7656,243.9375 1404.7656,240.8125 Q1404.7656,237.6875 1406.0781,236.0313 Q1407.4063,234.375 1409.9063,234.375 Q1410.6094,234.375 1411.25,234.5313 Q1411.9063,234.6875 1412.4688,234.9844 L1412.4688,237.7031 Q1411.8438,237.125 1411.25,236.8594 Q1410.6563,236.5781 1410.0313,236.5781 Q1408.6875,236.5781 1408,237.6563 Q1407.3125,238.7188 1407.3125,240.8125 Q1407.3125,242.9063 1408,243.9844 Q1408.6875,245.0469 1410.0313,245.0469 Q1410.6563,245.0469 1411.25,244.7813 Q1411.8438,244.5 1412.4688,243.9219 L1412.4688,246.6406 Z " fill="#000000"/><text fill="#000000" font-family="sans-serif" font-size="14" lengthAdjust="spacing" textLength="109" x="1423.5" y="245.8467">RESTParseError</text><line style="stroke:#181818;stroke-width:0.5;" x1="1395.5" x2="1534.5" y1="257" y2="257"/><line style="stroke:#181818;stroke-width:0.5;" x1="1395.5" x2="1534.5" y1="265" y2="265"/></g><!--class RESTServerError--><g id="elem_RESTServerError"><rect codeLine="38" fill="#F1F1F1" height="48" id="RESTServerError" rx="3.5" ry="3.5" style="stroke:#181818;stroke-width:0.5;" width="146" x="1213" y="225"/><ellipse cx="1228" cy="241" fill="#ADD1B2" rx="11" ry="11" style="stroke:#181818;stroke-width:1.0;"/><path d="M1230.9688,246.6406 Q1230.3906,246.9375 1229.75,247.0781 Q1229.1094,247.2344 1228.4063,247.2344 Q1225.9063,247.2344 1224.5781,245.5938 Q1223.2656,243.9375 1223.2656,240.8125 Q1223.2656,237.6875 1224.5781,236.0313 Q1225.9063,234.375 1228.4063,234.375 Q1229.1094,234.375 1229.75,234.5313 Q1230.4063,234.6875 1230.9688,234.9844 L1230.9688,237.7031 Q1230.3438,237.125 1229.75,236.8594 Q1229.1563,236.5781 1228.5313,236.5781 Q1227.1875,236.5781 1226.5,237.6563 Q1225.8125,238.7188 1225.8125,240.8125 Q1225.8125,242.9063 1226.5,243.9844 Q1227.1875,245.0469 1228.5313,245.0469 Q1229.1563,245.0469 1229.75,244.7813 Q1230.3438,244.5 1230.9688,243.9219 L1230.9688,246.6406 Z " fill="#000000"/><text fill="#000000" font-family="sans-serif" font-size="14" lengthAdjust="spacing" textLength="114" x="1242" y="245.8467">RESTServerError</text><line style="stroke:#181818;stroke-width:0.5;" x1="1214" x2="1358" y1="257" y2="257"/><line style="stroke:#181818;stroke-width:0.5;" x1="1214" x2="1358" y1="265" y2="265"/></g><!--class RESTServer--><g id="elem_RESTServer"><rect codeLine="41" fill="#F1F1F1" height="243.5625" id="RESTServer" rx="3.5" ry="3.5" style="stroke:#181818;stroke-width:0.5;" width="140" x="1038" y="127"/><ellipse cx="1065.15" cy="143" fill="#ADD1B2" rx="11" ry="11" style="stroke:#181818;stroke-width:1.0;"/><path d="M1068.1188,148.6406 Q1067.5406,148.9375 1066.9,149.0781 Q1066.2594,149.2344 1065.5563,149.2344 Q1063.0563,149.2344 1061.7281,147.5938 Q1060.4156,145.9375 1060.4156,142.8125 Q1060.4156,139.6875 1061.7281,138.0313 Q1063.0563,136.375 1065.5563,136.375 Q1066.2594,136.375 1066.9,136.5313 Q1067.5563,136.6875 1068.1188,136.9844 L1068.1188,139.7031 Q1067.4938,139.125 1066.9,138.8594 Q1066.3063,138.5781 1065.6813,138.5781 Q1064.3375,138.5781 1063.65,139.6563 Q1062.9625,140.7188 1062.9625,142.8125 Q1062.9625,144.9063 1063.65,145.9844 Q1064.3375,147.0469 1065.6813,147.0469 Q1066.3063,147.0469 1066.9,146.7813 Q1067.4938,146.5 1068.1188,145.9219 L1068.1188,148.6406 Z " fill="#000000"/><text fill="#000000" font-family="sans-serif" font-size="14" lengthAdjust="spacing" textLength="81" x="1081.85" y="147.8467">RESTServer</text><line style="stroke:#181818;stroke-width:0.5;" x1="1039" x2="1177" y1="159" y2="159"/><rect fill="none" height="6" style="stroke:#C82930;stroke-width:1.0;" width="6" x="1046" y="169.6484"/><text fill="#000000" font-family="sans-serif" font-size="14" lengthAdjust="spacing" textLength="50" x="1058" y="175.9951">_server</text><rect fill="none" height="6" style="stroke:#C82930;stroke-width:1.0;" width="6" x="1046" y="185.9453"/><text fill="#000000" font-family="sans-serif" font-size="14" lengthAdjust="spacing" textLength="80" x="1058" y="192.292">dict _nouns</text><ellipse cx="1049" cy="205.2422" fill="none" rx="3" ry="3" style="stroke:#038048;stroke-width:1.0;"/><text fill="#000000" font-family="sans-serif" font-size="14" lengthAdjust="spacing" textLength="53" x="1058" y="208.5889">str host</text><ellipse cx="1049" cy="221.5391" fill="none" rx="3" ry="3" style="stroke:#038048;stroke-width:1.0;"/><text fill="#000000" font-family="sans-serif" font-size="14" lengthAdjust="spacing" textLength="49" x="1058" y="224.8857">int port</text><ellipse cx="1049" cy="237.8359" fill="none" rx="3" ry="3" style="stroke:#038048;stroke-width:1.0;"/><text fill="#000000" font-family="sans-serif" font-size="14" lengthAdjust="spacing" textLength="75" x="1058" y="241.1826">int backlog</text><ellipse cx="1049" cy="254.1328" fill="none" rx="3" ry="3" style="stroke:#038048;stroke-width:1.0;"/><text fill="#000000" font-family="sans-serif" font-size="14" lengthAdjust="spacing" textLength="112" x="1058" y="257.4795">int read_timeout</text><ellipse cx="1049" cy="270.4297" fill="none" rx="3" ry="3" style="stroke:#038048;stroke-width:1.0;"/><text fill="#000000" font-family="sans-serif" font-size="14" lengthAdjust="spacing" textLength="114" x="1058" y="273.7764">int write_timeout</text><line style="stroke:#181818;stroke-width:0.5;" x1="1039" x2="1177" y1="281.0781" y2="281.0781"/><ellipse cx="1049" cy="294.7266" fill="#84BE84" rx="3" ry="3" style="stroke:#038048;stroke-width:1.0;"/><text fill="#000000" font-family="sans-serif" font-size="14" lengthAdjust="spacing" textLength="86" x="1058" y="298.0732">parse_data()</text><ellipse cx="1049" cy="311.0234" fill="#84BE84" rx="3" ry="3" style="stroke:#038048;stroke-width:1.0;"/><text fill="#000000" font-family="sans-serif" font-size="14" lengthAdjust="spacing" textLength="112" x="1058" y="314.3701">dispatch_noun()</text><ellipse cx="1049" cy="327.3203" fill="#84BE84" rx="3" ry="3" style="stroke:#038048;stroke-width:1.0;"/><text fill="#000000" font-family="sans-serif" font-size="14" lengthAdjust="spacing" textLength="106" x="1058" y="330.667">register_noun()</text><ellipse cx="1049" cy="343.6172" fill="#84BE84" rx="3" ry="3" style="stroke:#038048;stroke-width:1.0;"/><text fill="#000000" font-family="sans-serif" font-size="14" lengthAdjust="spacing" textLength="41" x="1058" y="346.9639">start()</text><ellipse cx="1049" cy="359.9141" fill="#84BE84" rx="3" ry="3" style="stroke:#038048;stroke-width:1.0;"/><text fill="#000000" font-family="sans-serif" font-size="14" lengthAdjust="spacing" textLength="41" x="1058" y="363.2607">stop()</text></g><!--class WirelessNetworkError--><g id="elem_WirelessNetworkError"><rect codeLine="60" fill="#F1F1F1" height="48" id="WirelessNetworkError" rx="3.5" ry="3.5" style="stroke:#181818;stroke-width:0.5;" width="180" x="1816" y="225"/><ellipse cx="1831" cy="241" fill="#ADD1B2" rx="11" ry="11" style="stroke:#181818;stroke-width:1.0;"/><path d="M1833.9688,246.6406 Q1833.3906,246.9375 1832.75,247.0781 Q1832.1094,247.2344 1831.4063,247.2344 Q1828.9063,247.2344 1827.5781,245.5938 Q1826.2656,243.9375 1826.2656,240.8125 Q1826.2656,237.6875 1827.5781,236.0313 Q1828.9063,234.375 1831.4063,234.375 Q1832.1094,234.375 1832.75,234.5313 Q1833.4063,234.6875 1833.9688,234.9844 L1833.9688,237.7031 Q1833.3438,237.125 1832.75,236.8594 Q1832.1563,236.5781 1831.5313,236.5781 Q1830.1875,236.5781 1829.5,237.6563 Q1828.8125,238.7188 1828.8125,240.8125 Q1828.8125,242.9063 1829.5,243.9844 Q1830.1875,245.0469 1831.5313,245.0469 Q1832.1563,245.0469 1832.75,244.7813 Q1833.3438,244.5 1833.9688,243.9219 L1833.9688,246.6406 Z " fill="#000000"/><text fill="#000000" font-family="sans-serif" font-size="14" lengthAdjust="spacing" textLength="148" x="1845" y="245.8467">WirelessNetworkError</text><line style="stroke:#181818;stroke-width:0.5;" x1="1817" x2="1995" y1="257" y2="257"/><line style="stroke:#181818;stroke-width:0.5;" x1="1817" x2="1995" y1="265" y2="265"/></g><!--class EchoServer--><g id="elem_EchoServer"><rect codeLine="66" fill="#F1F1F1" height="129.4844" id="EchoServer" rx="3.5" ry="3.5" style="stroke:#181818;stroke-width:0.5;" width="179" x="542.5" y="184.5"/><ellipse cx="588.25" cy="200.5" fill="#ADD1B2" rx="11" ry="11" style="stroke:#181818;stroke-width:1.0;"/><path d="M591.2188,206.1406 Q590.6406,206.4375 590,206.5781 Q589.3594,206.7344 588.6563,206.7344 Q586.1563,206.7344 584.8281,205.0938 Q583.5156,203.4375 583.5156,200.3125 Q583.5156,197.1875 584.8281,195.5313 Q586.1563,193.875 588.6563,193.875 Q589.3594,193.875 590,194.0313 Q590.6563,194.1875 591.2188,194.4844 L591.2188,197.2031 Q590.5938,196.625 590,196.3594 Q589.4063,196.0781 588.7813,196.0781 Q587.4375,196.0781 586.75,197.1563 Q586.0625,198.2188 586.0625,200.3125 Q586.0625,202.4063 586.75,203.4844 Q587.4375,204.5469 588.7813,204.5469 Q589.4063,204.5469 590,204.2813 Q590.5938,204 591.2188,203.4219 L591.2188,206.1406 Z " fill="#000000"/><text fill="#000000" font-family="sans-serif" font-size="14" lengthAdjust="spacing" textLength="79" x="608.75" y="205.3467">EchoServer</text><line style="stroke:#181818;stroke-width:0.5;" x1="543.5" x2="720.5" y1="216.5" y2="216.5"/><rect fill="none" height="6" style="stroke:#C82930;stroke-width:1.0;" width="6" x="550.5" y="227.1484"/><text fill="#000000" font-family="sans-serif" font-size="14" lengthAdjust="spacing" textLength="153" x="562.5" y="233.4951">_state_attributes : dict</text><line style="stroke:#181818;stroke-width:0.5;" x1="543.5" x2="720.5" y1="240.7969" y2="240.7969"/><ellipse cx="553.5" cy="254.4453" fill="#84BE84" rx="3" ry="3" style="stroke:#038048;stroke-width:1.0;"/><text fill="#000000" font-family="sans-serif" font-size="14" lengthAdjust="spacing" textLength="96" x="562.5" y="257.792">delete_state()</text><ellipse cx="553.5" cy="270.7422" fill="#84BE84" rx="3" ry="3" style="stroke:#038048;stroke-width:1.0;"/><text fill="#000000" font-family="sans-serif" font-size="14" lengthAdjust="spacing" textLength="75" x="562.5" y="274.0889">get_state()</text><ellipse cx="553.5" cy="287.0391" fill="#84BE84" rx="3" ry="3" style="stroke:#038048;stroke-width:1.0;"/><text fill="#000000" font-family="sans-serif" font-size="14" lengthAdjust="spacing" textLength="74" x="562.5" y="290.3857">set_state()</text><ellipse cx="553.5" cy="303.3359" fill="#84BE84" rx="3" ry="3" style="stroke:#038048;stroke-width:1.0;"/><text fill="#000000" font-family="sans-serif" font-size="14" lengthAdjust="spacing" textLength="101" x="562.5" y="306.6826">update_state()</text></g><!--class PWMLED--><g id="elem_PWMLED"><rect codeLine="75" fill="#F1F1F1" height="129.4844" id="PWMLED" rx="3.5" ry="3.5" style="stroke:#181818;stroke-width:0.5;" width="179" x="306.5" y="184.5"/><ellipse cx="361.25" cy="200.5" fill="#ADD1B2" rx="11" ry="11" style="stroke:#181818;stroke-width:1.0;"/><path d="M364.2188,206.1406 Q363.6406,206.4375 363,206.5781 Q362.3594,206.7344 361.6563,206.7344 Q359.1563,206.7344 357.8281,205.0938 Q356.5156,203.4375 356.5156,200.3125 Q356.5156,197.1875 357.8281,195.5313 Q359.1563,193.875 361.6563,193.875 Q362.3594,193.875 363,194.0313 Q363.6563,194.1875 364.2188,194.4844 L364.2188,197.2031 Q363.5938,196.625 363,196.3594 Q362.4063,196.0781 361.7813,196.0781 Q360.4375,196.0781 359.75,197.1563 Q359.0625,198.2188 359.0625,200.3125 Q359.0625,202.4063 359.75,203.4844 Q360.4375,204.5469 361.7813,204.5469 Q362.4063,204.5469 363,204.2813 Q363.5938,204 364.2188,203.4219 L364.2188,206.1406 Z " fill="#000000"/><text fill="#000000" font-family="sans-serif" font-size="14" lengthAdjust="spacing" textLength="61" x="381.75" y="205.3467">PWMLED</text><line style="stroke:#181818;stroke-width:0.5;" x1="307.5" x2="484.5" y1="216.5" y2="216.5"/><rect fill="none" height="6" style="stroke:#C82930;stroke-width:1.0;" width="6" x="314.5" y="227.1484"/><text fill="#000000" font-family="sans-serif" font-size="14" lengthAdjust="spacing" textLength="153" x="326.5" y="233.4951">_state_attributes : dict</text><line style="stroke:#181818;stroke-width:0.5;" x1="307.5" x2="484.5" y1="240.7969" y2="240.7969"/><ellipse cx="317.5" cy="254.4453" fill="#84BE84" rx="3" ry="3" style="stroke:#038048;stroke-width:1.0;"/><text fill="#000000" font-family="sans-serif" font-size="14" lengthAdjust="spacing" textLength="96" x="326.5" y="257.792">delete_state()</text><ellipse cx="317.5" cy="270.7422" fill="#84BE84" rx="3" ry="3" style="stroke:#038048;stroke-width:1.0;"/><text fill="#000000" font-family="sans-serif" font-size="14" lengthAdjust="spacing" textLength="75" x="326.5" y="274.0889">get_state()</text><ellipse cx="317.5" cy="287.0391" fill="#84BE84" rx="3" ry="3" style="stroke:#038048;stroke-width:1.0;"/><text fill="#000000" font-family="sans-serif" font-size="14" lengthAdjust="spacing" textLength="74" x="326.5" y="290.3857">set_state()</text><ellipse cx="317.5" cy="303.3359" fill="#84BE84" rx="3" ry="3" style="stroke:#038048;stroke-width:1.0;"/><text fill="#000000" font-family="sans-serif" font-size="14" lengthAdjust="spacing" textLength="101" x="326.5" y="306.6826">update_state()</text></g><!--class SimpleLED--><g id="elem_SimpleLED"><rect codeLine="84" fill="#F1F1F1" height="129.4844" id="SimpleLED" rx="3.5" ry="3.5" style="stroke:#181818;stroke-width:0.5;" width="179" x="70.5" y="184.5"/><ellipse cx="119.25" cy="200.5" fill="#ADD1B2" rx="11" ry="11" style="stroke:#181818;stroke-width:1.0;"/><path d="M122.2188,206.1406 Q121.6406,206.4375 121,206.5781 Q120.3594,206.7344 119.6563,206.7344 Q117.1563,206.7344 115.8281,205.0938 Q114.5156,203.4375 114.5156,200.3125 Q114.5156,197.1875 115.8281,195.5313 Q117.1563,193.875 119.6563,193.875 Q120.3594,193.875 121,194.0313 Q121.6563,194.1875 122.2188,194.4844 L122.2188,197.2031 Q121.5938,196.625 121,196.3594 Q120.4063,196.0781 119.7813,196.0781 Q118.4375,196.0781 117.75,197.1563 Q117.0625,198.2188 117.0625,200.3125 Q117.0625,202.4063 117.75,203.4844 Q118.4375,204.5469 119.7813,204.5469 Q120.4063,204.5469 121,204.2813 Q121.5938,204 122.2188,203.4219 L122.2188,206.1406 Z " fill="#000000"/><text fill="#000000" font-family="sans-serif" font-size="14" lengthAdjust="spacing" textLength="73" x="139.75" y="205.3467">SimpleLED</text><line style="stroke:#181818;stroke-width:0.5;" x1="71.5" x2="248.5" y1="216.5" y2="216.5"/><rect fill="none" height="6" style="stroke:#C82930;stroke-width:1.0;" width="6" x="78.5" y="227.1484"/><text fill="#000000" font-family="sans-serif" font-size="14" lengthAdjust="spacing" textLength="153" x="90.5" y="233.4951">_state_attributes : dict</text><line style="stroke:#181818;stroke-width:0.5;" x1="71.5" x2="248.5" y1="240.7969" y2="240.7969"/><ellipse cx="81.5" cy="254.4453" fill="#84BE84" rx="3" ry="3" style="stroke:#038048;stroke-width:1.0;"/><text fill="#000000" font-family="sans-serif" font-size="14" lengthAdjust="spacing" textLength="96" x="90.5" y="257.792">delete_state()</text><ellipse cx="81.5" cy="270.7422" fill="#84BE84" rx="3" ry="3" style="stroke:#038048;stroke-width:1.0;"/><text fill="#000000" font-family="sans-serif" font-size="14" lengthAdjust="spacing" textLength="75" x="90.5" y="274.0889">get_state()</text><ellipse cx="81.5" cy="287.0391" fill="#84BE84" rx="3" ry="3" style="stroke:#038048;stroke-width:1.0;"/><text fill="#000000" font-family="sans-serif" font-size="14" lengthAdjust="spacing" textLength="74" x="90.5" y="290.3857">set_state()</text><ellipse cx="81.5" cy="303.3359" fill="#84BE84" rx="3" ry="3" style="stroke:#038048;stroke-width:1.0;"/><text fill="#000000" font-family="sans-serif" font-size="14" lengthAdjust="spacing" textLength="101" x="90.5" y="306.6826">update_state()</text></g><!--class Exception--><g id="elem_Exception"><rect codeLine="95" fill="#F1F1F1" height="48" id="Exception" rx="3.5" ry="3.5" style="stroke:#181818;stroke-width:0.5;" width="101" x="2100.5" y="529.5"/><ellipse cx="2115.5" cy="545.5" fill="#A9DCDF" rx="11" ry="11" style="stroke:#181818;stroke-width:1.0;"/><path d="M2115.6094,540.8438 L2114.4531,545.9219 L2116.7813,545.9219 L2115.6094,540.8438 Z M2114.125,538.6094 L2117.1094,538.6094 L2120.4688,551 L2118.0156,551 L2117.25,547.9375 L2113.9688,547.9375 L2113.2188,551 L2110.7813,551 L2114.125,538.6094 Z " fill="#000000"/><text fill="#000000" font-family="sans-serif" font-size="14" font-style="italic" lengthAdjust="spacing" textLength="69" x="2129.5" y="550.3467">Exception</text><line style="stroke:#181818;stroke-width:0.5;" x1="2101.5" x2="2200.5" y1="561.5" y2="561.5"/><line style="stroke:#181818;stroke-width:0.5;" x1="2101.5" x2="2200.5" y1="569.5" y2="569.5"/></g><!--reverse link HTTPResponse to HTTPStatus--><g id="link_HTTPResponse_HTTPStatus"><path codeLine="99" d="M979.99,204.52 C1031.34,215.94 960.26,412.12 923.55,504.77 " fill="none" id="HTTPResponse-backto-HTTPStatus" style="stroke:#454645;stroke-width:1.0;"/><polygon fill="#454645" points="975,204,983.5406,208.9049,979.9735,204.5145,984.3638,200.9473,975,204" style="stroke:#454645;stroke-width:1.0;"/></g><!--reverse link RESTClientError to Exception--><g id="link_RESTClientError_Exception"><path codeLine="101" d="M1675.76,287.83 C1706.26,319.43 1752.97,364.15 1800,395 C1899.27,460.12 2029.9,510.74 2100.49,535.6 " fill="none" id="RESTClientError-backto-Exception" style="stroke:#454645;stroke-width:1.0;"/><polygon fill="none" points="1670.45,292.4,1661.77,273.06,1680.61,282.77,1670.45,292.4" style="stroke:#454645;stroke-width:1.0;"/></g><!--reverse link RESTParseError to Exception--><g id="link_RESTParseError_Exception"><path codeLine="102" d="M1480.18,291.84 C1494.18,324.64 1518.12,368.96 1553,395 C1723.97,522.67 1989.91,547.04 2100.31,551.55 " fill="none" id="RESTParseError-backto-Exception" style="stroke:#454645;stroke-width:1.0;"/><polygon fill="none" points="1473.64,294.34,1472.73,273.17,1486.64,289.16,1473.64,294.34" style="stroke:#454645;stroke-width:1.0;"/></g><!--reverse link RESTServerError to Exception--><g id="link_RESTServerError_Exception"><path codeLine="103" d="M1301.54,292.12 C1315.99,325.27 1340.78,369.92 1377,395 C1496.37,477.64 1947.82,531.33 2100.32,547.42 " fill="none" id="RESTServerError-backto-Exception" style="stroke:#454645;stroke-width:1.0;"/><polygon fill="none" points="1294.92,294.41,1293.87,273.24,1307.89,289.14,1294.92,294.41" style="stroke:#454645;stroke-width:1.0;"/></g><!--reverse link WirelessNetworkError to Exception--><g id="link_WirelessNetworkError_Exception"><path codeLine="105" d="M1937.71,289.16 C1989.41,352.99 2090.28,477.53 2132.12,529.19 " fill="none" id="WirelessNetworkError-backto-Exception" style="stroke:#454645;stroke-width:1.0;"/><polygon fill="none" points="1931.97,293.18,1924.82,273.23,1942.85,284.37,1931.97,293.18" style="stroke:#454645;stroke-width:1.0;"/></g><!--reverse link EchoServer to APIBase--><g id="link_EchoServer_APIBase"><path codeLine="107" d="M569.79,329.74 C531.03,379.42 481.84,442.47 445.69,488.8 " fill="none" id="EchoServer-backto-APIBase" style="stroke:#454645;stroke-width:1.0;"/><polygon fill="none" points="564.42,325.25,582.24,313.78,575.46,333.86,564.42,325.25" style="stroke:#454645;stroke-width:1.0;"/></g><!--reverse link PWMLED to APIBase--><g id="link_PWMLED_APIBase"><path codeLine="108" d="M396,333.97 C396,382.96 396,443.78 396,488.8 " fill="none" id="PWMLED-backto-APIBase" style="stroke:#454645;stroke-width:1.0;"/><polygon fill="none" points="389,333.78,396,313.78,403,333.78,389,333.78" style="stroke:#454645;stroke-width:1.0;"/></g><!--reverse link SimpleLED to APIBase--><g id="link_SimpleLED_APIBase"><path codeLine="109" d="M222.21,329.74 C260.97,379.42 310.16,442.47 346.31,488.8 " fill="none" id="SimpleLED-backto-APIBase" style="stroke:#454645;stroke-width:1.0;"/><polygon fill="none" points="216.54,333.86,209.76,313.78,227.58,325.25,216.54,333.86" style="stroke:#454645;stroke-width:1.0;"/></g><!--SRC=[tLR1Rjim3BtxAxHRXo3wW20eiAqfDdHBWYH3ZuPi4x5GMn8akcdHvTydsKxZ99BhNAkJ8Rv7KnJro2-OGmdacIUQ2Om4Ay4ebWAfD1WaRn6nwxZB56_tJlSJPe1Cfoj8aObj0RUt7PXRB36eMOeaBPWnvDlortT7EGMvDIQnGOOGCqJDamh1a0d9U8eNqBU3qpqPaGmAiAoQU_Er7xi570OqGu6LobZWx_le-1KTDuwvon6LDwds1fGK7oIsoUVFpMQvEi23IQsCpvB8xDMtN_8Iy5M1pvOMqdWDER0Cz8LbHBn_iHdsX-LIBx9W9jq2KPNrkTUr2y-fHsJnuDcSBpPnq72_-3k_2zxVvHqPqC-W1zpGQhRU_2Wu29nfBVKPPXzWB9asS0rXNSVZP_HI0bLJspmMzo19B6Gbl9U7ckJIeCV41H8bTSYKiFIfaDk0LTlgYj7MfQn23dQQsuTum7X0ogKqji-LUHwrrH5kBnRJl3wR5w5Xoms23YDiKMiCMAJgqGUVF5J82-FL1m6ua_efJgKGjle65E4ZrrOcZPatpFx2yeS3BwnKreSt8aXpEI2CcONrLjt01l2XwlTBVR- -3nRropIeNLb0DY0HoyS_lsTtdpC9Xhiw6PQ7TOtzHAdOH_lEB0LQ2zaUxMmGchsae91BqPeTCQfdB-hc0dgO0MYtmqycRJidq_6OXD1DNppnriWvFUz5qt_MJHqaVOydGEiqf2jOtQxafRMyMklecQvHhshrkJbe57LwH3jgKvCQZ9ragPjQQJkAdbERDqpR5te5yRtkwR6g- -Z_0G00]--></g></svg>