<?xml version="1.0" encoding="us-ascii" standalone="no"?><svg xmlns="http://www.w3.org/2000/svg" xmlns:xlink="http://www.w3.org/1999/xlink" contentStyleType="text/css" height="598px" preserveAspectRatio="none" style="width:793px;height:598px;background:#FFFFFF;" version="1.1" viewBox="0 0 793 598" width="793px" zoomAndPan="magnify"><defs/><g><!--cluster urest--><g id="cluster_urest"><path d="M9.5,6 L50.5,6 A5.25,5.25 0 0 1 54,9.5 L61,28.2969 L782.5,28.2969 A3.5,3.5 0 0 1 786,31.7969 L786,587.5 A3.5,3.5 0 0 1 782.5,591 L9.5,591 A3.5,3.5 0 0 1 6,587.5 L6,9.5 A3.5,3.5 0 0 1 9.5,6 " fill="none" style="stroke:#696969;stroke-width:1.0;"/><line style="stroke:#696969;stroke-width:1.0;" x1="6" x2="61" y1="28.2969" y2="28.2969"/><text fill="#000000" font-family="sans-serif" font-size="14" font-weight="bold" lengthAdjust="spacing" textLength="42" x="10" y="20.9951">urest</text></g><!--cluster api--><g id="cluster_api"><path d="M269.5,320 L291.5,320 A5.25,5.25 0 0 1 295,323.5 L302,342.2969 L522.5,342.2969 A3.5,3.5 0 0 1 526,345.7969 L526,563.5 A3.5,3.5 0 0 1 522.5,567 L269.5,567 A3.5,3.5 0 0 1 266,563.5 L266,323.5 A3.5,3.5 0 0 1 269.5,320 " fill="none" style="stroke:#696969;stroke-width:1.0;"/><line style="stroke:#696969;stroke-width:1.0;" x1="266" x2="302" y1="342.2969" y2="342.2969"/><text fill="#000000" font-family="sans-serif" font-size="14" font-weight="bold" lengthAdjust="spacing" textLength="23" x="270" y="334.9951">api</text></g><!--cluster base--><g id="cluster_base"><rect fill="none" height="180" rx="3.5" ry="3.5" style="stroke:#696969;stroke-width:1.0;" width="212" x="290" y="363"/><text fill="#000000" font-family="sans-serif" font-size="14" font-weight="bold" lengthAdjust="spacing" textLength="38" x="377" y="377.9951">base</text></g><!--cluster examples--><g id="cluster_examples"><path d="M33.5,49 L107.5,49 A5.25,5.25 0 0 1 111,52.5 L118,71.2969 L758.5,71.2969 A3.5,3.5 0 0 1 762,74.7969 L762,292.5 A3.5,3.5 0 0 1 758.5,296 L33.5,296 A3.5,3.5 0 0 1 30,292.5 L30,52.5 A3.5,3.5 0 0 1 33.5,49 " fill="none" style="stroke:#696969;stroke-width:1.0;"/><line style="stroke:#696969;stroke-width:1.0;" x1="30" x2="118" y1="71.2969" y2="71.2969"/><text fill="#000000" font-family="sans-serif" font-size="14" font-weight="bold" lengthAdjust="spacing" textLength="75" x="34" y="63.9951">examples</text></g><!--cluster echo--><g id="cluster_echo"><rect fill="none" height="180" rx="3.5" ry="3.5" style="stroke:#696969;stroke-width:1.0;" width="212" x="526" y="92"/><text fill="#000000" font-family="sans-serif" font-size="14" font-weight="bold" lengthAdjust="spacing" textLength="39" x="612.5" y="106.9951">echo</text></g><!--cluster pwmled--><g id="cluster_pwmled"><rect fill="none" height="180" rx="3.5" ry="3.5" style="stroke:#696969;stroke-width:1.0;" width="212" x="290" y="92"/><text fill="#000000" font-family="sans-serif" font-size="14" font-weight="bold" lengthAdjust="spacing" textLength="62" x="365" y="106.9951">pwmled</text></g><!--cluster simpleled--><g id="cluster_simpleled"><rect fill="none" height="180" rx="3.5" ry="3.5" style="stroke:#696969;stroke-width:1.0;" width="212" x="54" y="92"/><text fill="#000000" font-family="sans-serif" font-size="14" font-weight="bold" lengthAdjust="spacing" textLength="75" x="122.5" y="106.9951">simpleled</text></g><!--class APIBase--><g id="elem_APIBase"><rect codeLine="5" fill="#F1F1F1" height="129.4844" id="APIBase" rx="3.5" ry="3.5" style="stroke:#181818;stroke-width:0.5;" width="179" x="306.5" y="398"/><ellipse cx="363.75" cy="414" fill="#A9DCDF" rx="11" ry="11" style="stroke:#181818;stroke-width:1.0;"/><path d="M363.8594,409.3438 L362.7031,414.4219 L365.0313,414.4219 L363.8594,409.3438 Z M362.375,407.1094 L365.3594,407.1094 L368.7188,419.5 L366.2656,419.5 L365.5,416.4375 L362.2188,416.4375 L361.4688,419.5 L359.0313,419.5 L362.375,407.1094 Z " fill="#000000"/><text fill="#000000" font-family="sans-serif" font-size="14" font-style="italic" lengthAdjust="spacing" textLength="56" x="384.25" y="418.8467">APIBase</text><line style="stroke:#181818;stroke-width:0.5;" x1="307.5" x2="484.5" y1="430" y2="430"/><rect fill="none" height="6" style="stroke:#C82930;stroke-width:1.0;" width="6" x="314.5" y="440.6484"/><text fill="#000000" font-family="sans-serif" font-size="14" lengthAdjust="spacing" textLength="153" x="326.5" y="446.9951">_state_attributes : dict</text><line style="stroke:#181818;stroke-width:0.5;" x1="307.5" x2="484.5" y1="454.2969" y2="454.2969"/><ellipse cx="317.5" cy="467.9453" fill="#84BE84" rx="3" ry="3" style="stroke:#038048;stroke-width:1.0;"/><text fill="#000000" font-family="sans-serif" font-size="14" font-style="italic" lengthAdjust="spacing" textLength="95" x="326.5" y="471.292">delete_state()</text><ellipse cx="317.5" cy="484.2422" fill="#84BE84" rx="3" ry="3" style="stroke:#038048;stroke-width:1.0;"/><text fill="#000000" font-family="sans-serif" font-size="14" font-style="italic" lengthAdjust="spacing" textLength="74" x="326.5" y="487.5889">get_state()</text><ellipse cx="317.5" cy="500.5391" fill="#84BE84" rx="3" ry="3" style="stroke:#038048;stroke-width:1.0;"/><text fill="#000000" font-family="sans-serif" font-size="14" font-style="italic" lengthAdjust="spacing" textLength="72" x="326.5" y="503.8857">set_state()</text><ellipse cx="317.5" cy="516.8359" fill="#84BE84" rx="3" ry="3" style="stroke:#038048;stroke-width:1.0;"/><text fill="#000000" font-family="sans-serif" font-size="14" font-style="italic" lengthAdjust="spacing" textLength="100" x="326.5" y="520.1826">update_state()</text></g><!--class EchoServer--><g id="elem_EchoServer"><rect codeLine="17" fill="#F1F1F1" height="129.4844" id="EchoServer" rx="3.5" ry="3.5" style="stroke:#181818;stroke-width:0.5;" width="179" x="542.5" y="127"/><ellipse cx="588.25" cy="143" fill="#ADD1B2" rx="11" ry="11" style="stroke:#181818;stroke-width:1.0;"/><path d="M591.2188,148.6406 Q590.6406,148.9375 590,149.0781 Q589.3594,149.2344 588.6563,149.2344 Q586.1563,149.2344 584.8281,147.5938 Q583.5156,145.9375 583.5156,142.8125 Q583.5156,139.6875 584.8281,138.0313 Q586.1563,136.375 588.6563,136.375 Q589.3594,136.375 590,136.5313 Q590.6563,136.6875 591.2188,136.9844 L591.2188,139.7031 Q590.5938,139.125 590,138.8594 Q589.4063,138.5781 588.7813,138.5781 Q587.4375,138.5781 586.75,139.6563 Q586.0625,140.7188 586.0625,142.8125 Q586.0625,144.9063 586.75,145.9844 Q587.4375,147.0469 588.7813,147.0469 Q589.4063,147.0469 590,146.7813 Q590.5938,146.5 591.2188,145.9219 L591.2188,148.6406 Z " fill="#000000"/><text fill="#000000" font-family="sans-serif" font-size="14" lengthAdjust="spacing" textLength="79" x="608.75" y="147.8467">EchoServer</text><line style="stroke:#181818;stroke-width:0.5;" x1="543.5" x2="720.5" y1="159" y2="159"/><rect fill="none" height="6" style="stroke:#C82930;stroke-width:1.0;" width="6" x="550.5" y="169.6484"/><text fill="#000000" font-family="sans-serif" font-size="14" lengthAdjust="spacing" textLength="153" x="562.5" y="175.9951">_state_attributes : dict</text><line style="stroke:#181818;stroke-width:0.5;" x1="543.5" x2="720.5" y1="183.2969" y2="183.2969"/><ellipse cx="553.5" cy="196.9453" fill="#84BE84" rx="3" ry="3" style="stroke:#038048;stroke-width:1.0;"/><text fill="#000000" font-family="sans-serif" font-size="14" lengthAdjust="spacing" textLength="96" x="562.5" y="200.292">delete_state()</text><ellipse cx="553.5" cy="213.2422" fill="#84BE84" rx="3" ry="3" style="stroke:#038048;stroke-width:1.0;"/><text fill="#000000" font-family="sans-serif" font-size="14" lengthAdjust="spacing" textLength="75" x="562.5" y="216.5889">get_state()</text><ellipse cx="553.5" cy="229.5391" fill="#84BE84" rx="3" ry="3" style="stroke:#038048;stroke-width:1.0;"/><text fill="#000000" font-family="sans-serif" font-size="14" lengthAdjust="spacing" textLength="74" x="562.5" y="232.8857">set_state()</text><ellipse cx="553.5" cy="245.8359" fill="#84BE84" rx="3" ry="3" style="stroke:#038048;stroke-width:1.0;"/><text fill="#000000" font-family="sans-serif" font-size="14" lengthAdjust="spacing" textLength="101" x="562.5" y="249.1826">update_state()</text></g><!--class PWMLED--><g id="elem_PWMLED"><rect codeLine="26" fill="#F1F1F1" height="129.4844" id="PWMLED" rx="3.5" ry="3.5" style="stroke:#181818;stroke-width:0.5;" width="179" x="306.5" y="127"/><ellipse cx="361.25" cy="143" fill="#ADD1B2" rx="11" ry="11" style="stroke:#181818;stroke-width:1.0;"/><path d="M364.2188,148.6406 Q363.6406,148.9375 363,149.0781 Q362.3594,149.2344 361.6563,149.2344 Q359.1563,149.2344 357.8281,147.5938 Q356.5156,145.9375 356.5156,142.8125 Q356.5156,139.6875 357.8281,138.0313 Q359.1563,136.375 361.6563,136.375 Q362.3594,136.375 363,136.5313 Q363.6563,136.6875 364.2188,136.9844 L364.2188,139.7031 Q363.5938,139.125 363,138.8594 Q362.4063,138.5781 361.7813,138.5781 Q360.4375,138.5781 359.75,139.6563 Q359.0625,140.7188 359.0625,142.8125 Q359.0625,144.9063 359.75,145.9844 Q360.4375,147.0469 361.7813,147.0469 Q362.4063,147.0469 363,146.7813 Q363.5938,146.5 364.2188,145.9219 L364.2188,148.6406 Z " fill="#000000"/><text fill="#000000" font-family="sans-serif" font-size="14" lengthAdjust="spacing" textLength="61" x="381.75" y="147.8467">PWMLED</text><line style="stroke:#181818;stroke-width:0.5;" x1="307.5" x2="484.5" y1="159" y2="159"/><rect fill="none" height="6" style="stroke:#C82930;stroke-width:1.0;" width="6" x="314.5" y="169.6484"/><text fill="#000000" font-family="sans-serif" font-size="14" lengthAdjust="spacing" textLength="153" x="326.5" y="175.9951">_state_attributes : dict</text><line style="stroke:#181818;stroke-width:0.5;" x1="307.5" x2="484.5" y1="183.2969" y2="183.2969"/><ellipse cx="317.5" cy="196.9453" fill="#84BE84" rx="3" ry="3" style="stroke:#038048;stroke-width:1.0;"/><text fill="#000000" font-family="sans-serif" font-size="14" lengthAdjust="spacing" textLength="96" x="326.5" y="200.292">delete_state()</text><ellipse cx="317.5" cy="213.2422" fill="#84BE84" rx="3" ry="3" style="stroke:#038048;stroke-width:1.0;"/><text fill="#000000" font-family="sans-serif" font-size="14" lengthAdjust="spacing" textLength="75" x="326.5" y="216.5889">get_state()</text><ellipse cx="317.5" cy="229.5391" fill="#84BE84" rx="3" ry="3" style="stroke:#038048;stroke-width:1.0;"/><text fill="#000000" font-family="sans-serif" font-size="14" lengthAdjust="spacing" textLength="74" x="326.5" y="232.8857">set_state()</text><ellipse cx="317.5" cy="245.8359" fill="#84BE84" rx="3" ry="3" style="stroke:#038048;stroke-width:1.0;"/><text fill="#000000" font-family="sans-serif" font-size="14" lengthAdjust="spacing" textLength="101" x="326.5" y="249.1826">update_state()</text></g><!--class SimpleLED--><g id="elem_SimpleLED"><rect codeLine="35" fill="#F1F1F1" height="129.4844" id="SimpleLED" rx="3.5" ry="3.5" style="stroke:#181818;stroke-width:0.5;" width="179" x="70.5" y="127"/><ellipse cx="119.25" cy="143" fill="#ADD1B2" rx="11" ry="11" style="stroke:#181818;stroke-width:1.0;"/><path d="M122.2188,148.6406 Q121.6406,148.9375 121,149.0781 Q120.3594,149.2344 119.6563,149.2344 Q117.1563,149.2344 115.8281,147.5938 Q114.5156,145.9375 114.5156,142.8125 Q114.5156,139.6875 115.8281,138.0313 Q117.1563,136.375 119.6563,136.375 Q120.3594,136.375 121,136.5313 Q121.6563,136.6875 122.2188,136.9844 L122.2188,139.7031 Q121.5938,139.125 121,138.8594 Q120.4063,138.5781 119.7813,138.5781 Q118.4375,138.5781 117.75,139.6563 Q117.0625,140.7188 117.0625,142.8125 Q117.0625,144.9063 117.75,145.9844 Q118.4375,147.0469 119.7813,147.0469 Q120.4063,147.0469 121,146.7813 Q121.5938,146.5 122.2188,145.9219 L122.2188,148.6406 Z " fill="#000000"/><text fill="#000000" font-family="sans-serif" font-size="14" lengthAdjust="spacing" textLength="73" x="139.75" y="147.8467">SimpleLED</text><line style="stroke:#181818;stroke-width:0.5;" x1="71.5" x2="248.5" y1="159" y2="159"/><rect fill="none" height="6" style="stroke:#C82930;stroke-width:1.0;" width="6" x="78.5" y="169.6484"/><text fill="#000000" font-family="sans-serif" font-size="14" lengthAdjust="spacing" textLength="153" x="90.5" y="175.9951">_state_attributes : dict</text><line style="stroke:#181818;stroke-width:0.5;" x1="71.5" x2="248.5" y1="183.2969" y2="183.2969"/><ellipse cx="81.5" cy="196.9453" fill="#84BE84" rx="3" ry="3" style="stroke:#038048;stroke-width:1.0;"/><text fill="#000000" font-family="sans-serif" font-size="14" lengthAdjust="spacing" textLength="96" x="90.5" y="200.292">delete_state()</text><ellipse cx="81.5" cy="213.2422" fill="#84BE84" rx="3" ry="3" style="stroke:#038048;stroke-width:1.0;"/><text fill="#000000" font-family="sans-serif" font-size="14" lengthAdjust="spacing" textLength="75" x="90.5" y="216.5889">get_state()</text><ellipse cx="81.5" cy="229.5391" fill="#84BE84" rx="3" ry="3" style="stroke:#038048;stroke-width:1.0;"/><text fill="#000000" font-family="sans-serif" font-size="14" lengthAdjust="spacing" textLength="74" x="90.5" y="232.8857">set_state()</text><ellipse cx="81.5" cy="245.8359" fill="#84BE84" rx="3" ry="3" style="stroke:#038048;stroke-width:1.0;"/><text fill="#000000" font-family="sans-serif" font-size="14" lengthAdjust="spacing" textLength="101" x="90.5" y="249.1826">update_state()</text></g><!--reverse link EchoServer to APIBase--><g id="link_EchoServer_APIBase"><path codeLine="46" d="M562.68,271.51 C527.41,311.71 485.1,359.94 451.94,397.74 " fill="none" id="EchoServer-backto-APIBase" style="stroke:#454645;stroke-width:1.0;"/><polygon fill="none" points="557.62,266.67,576.07,256.25,568.14,275.9,557.62,266.67" style="stroke:#454645;stroke-width:1.0;"/></g><!--reverse link PWMLED to APIBase--><g id="link_PWMLED_APIBase"><path codeLine="47" d="M396,276.34 C396,315.53 396,361.44 396,397.74 " fill="none" id="PWMLED-backto-APIBase" style="stroke:#454645;stroke-width:1.0;"/><polygon fill="none" points="389,276.25,396,256.25,403,276.25,389,276.25" style="stroke:#454645;stroke-width:1.0;"/></g><!--reverse link SimpleLED to APIBase--><g id="link_SimpleLED_APIBase"><path codeLine="48" d="M229.32,271.51 C264.59,311.71 306.9,359.94 340.06,397.74 " fill="none" id="SimpleLED-backto-APIBase" style="stroke:#454645;stroke-width:1.0;"/><polygon fill="none" points="223.86,275.9,215.93,256.25,234.38,266.67,223.86,275.9" style="stroke:#454645;stroke-width:1.0;"/></g><!--SRC=[tPJ1IiD048Rl-nJZJP7i0vHGKEn1i53imMEPR8Osi8bXTrA5cdTtDqbDQtNTugrp2iF_xx9VPluhtb19i2qoWnMB2akoDIg2nf1bs0bmDNQnBeRUSJz3Iv2cpwGOgxMcwVH0vWipomOLWz9eBTmj7k-zvLZaAu6LPMHQ8RCfieR9mWJoGl69TBS_j8LRo4cJStNUwvkmTaqS9xInmgREyPVRMp5-YR4nigDtB6ljdlaJM5ARro3OdkVCoPPajcJ-X_HFZc5uOMBHc4unr6-bfZm2nE9b_ZHxk4m8jl1p4iTXsMal24KhtFfqeIJt2oFzSiY3qKy_agGFBkc2IlfGaaFIVBVs0oM7SJd3-FKJv8WuPFy4]--></g></svg>