<?xml version="1.0" encoding="us-ascii" standalone="no"?><svg xmlns="http://www.w3.org/2000/svg" xmlns:xlink="http://www.w3.org/1999/xlink" contentStyleType="text/css" height="327px" preserveAspectRatio="none" style="width:321px;height:327px;background:#FFFFFF;" version="1.1" viewBox="0 0 321 327" width="321px" zoomAndPan="magnify"><defs/><g><!--cluster urest--><g id="cluster_urest"><path d="M9.5,6 L50.5,6 A5.25,5.25 0 0 1 54,9.5 L61,28.2969 L310.5,28.2969 A3.5,3.5 0 0 1 314,31.7969 L314,316.5 A3.5,3.5 0 0 1 310.5,320 L9.5,320 A3.5,3.5 0 0 1 6,316.5 L6,9.5 A3.5,3.5 0 0 1 9.5,6 " fill="none" style="stroke:#696969;stroke-width:1.0;"/><line style="stroke:#696969;stroke-width:1.0;" x1="6" x2="61" y1="28.2969" y2="28.2969"/><text fill="#000000" font-family="sans-serif" font-size="14" font-weight="bold" lengthAdjust="spacing" textLength="42" x="10" y="20.9951">urest</text></g><!--cluster api--><g id="cluster_api"><path d="M33.5,49 L55.5,49 A5.25,5.25 0 0 1 59,52.5 L66,71.2969 L286.5,71.2969 A3.5,3.5 0 0 1 290,74.7969 L290,292.5 A3.5,3.5 0 0 1 286.5,296 L33.5,296 A3.5,3.5 0 0 1 30,292.5 L30,52.5 A3.5,3.5 0 0 1 33.5,49 " fill="none" style="stroke:#696969;stroke-width:1.0;"/><line style="stroke:#696969;stroke-width:1.0;" x1="30" x2="66" y1="71.2969" y2="71.2969"/><text fill="#000000" font-family="sans-serif" font-size="14" font-weight="bold" lengthAdjust="spacing" textLength="23" x="34" y="63.9951">api</text></g><!--cluster base--><g id="cluster_base"><rect fill="none" height="180" rx="3.5" ry="3.5" style="stroke:#696969;stroke-width:1.0;" width="212" x="54" y="92"/><text fill="#000000" font-family="sans-serif" font-size="14" font-weight="bold" lengthAdjust="spacing" textLength="38" x="141" y="106.9951">base</text></g><!--class APIBase--><g id="elem_APIBase"><rect codeLine="5" fill="#F1F1F1" height="129.4844" id="APIBase" rx="3.5" ry="3.5" style="stroke:#181818;stroke-width:0.5;" width="179" x="70.5" y="127"/><ellipse cx="127.75" cy="143" fill="#A9DCDF" rx="11" ry="11" style="stroke:#181818;stroke-width:1.0;"/><path d="M127.8594,138.3438 L126.7031,143.4219 L129.0313,143.4219 L127.8594,138.3438 Z M126.375,136.1094 L129.3594,136.1094 L132.7188,148.5 L130.2656,148.5 L129.5,145.4375 L126.2188,145.4375 L125.4688,148.5 L123.0313,148.5 L126.375,136.1094 Z " fill="#000000"/><text fill="#000000" font-family="sans-serif" font-size="14" font-style="italic" lengthAdjust="spacing" textLength="56" x="148.25" y="147.8467">APIBase</text><line style="stroke:#181818;stroke-width:0.5;" x1="71.5" x2="248.5" y1="159" y2="159"/><rect fill="none" height="6" style="stroke:#C82930;stroke-width:1.0;" width="6" x="78.5" y="169.6484"/><text fill="#000000" font-family="sans-serif" font-size="14" lengthAdjust="spacing" textLength="153" x="90.5" y="175.9951">_state_attributes : dict</text><line style="stroke:#181818;stroke-width:0.5;" x1="71.5" x2="248.5" y1="183.2969" y2="183.2969"/><ellipse cx="81.5" cy="196.9453" fill="#84BE84" rx="3" ry="3" style="stroke:#038048;stroke-width:1.0;"/><text fill="#000000" font-family="sans-serif" font-size="14" font-style="italic" lengthAdjust="spacing" textLength="95" x="90.5" y="200.292">delete_state()</text><ellipse cx="81.5" cy="213.2422" fill="#84BE84" rx="3" ry="3" style="stroke:#038048;stroke-width:1.0;"/><text fill="#000000" font-family="sans-serif" font-size="14" font-style="italic" lengthAdjust="spacing" textLength="74" x="90.5" y="216.5889">get_state()</text><ellipse cx="81.5" cy="229.5391" fill="#84BE84" rx="3" ry="3" style="stroke:#038048;stroke-width:1.0;"/><text fill="#000000" font-family="sans-serif" font-size="14" font-style="italic" lengthAdjust="spacing" textLength="72" x="90.5" y="232.8857">set_state()</text><ellipse cx="81.5" cy="245.8359" fill="#84BE84" rx="3" ry="3" style="stroke:#038048;stroke-width:1.0;"/><text fill="#000000" font-family="sans-serif" font-size="14" font-style="italic" lengthAdjust="spacing" textLength="100" x="90.5" y="249.1826">update_state()</text></g><!--SRC=[ZOrD2i9038NtSuguKyGBI2depfruWPAPXZem7SharKtftMtzeHPH-cqI7jzBLhXABNJpDd64YLoBDko4sYGAwWmDJ2at_fNDSyigb6KNSU1O1Sdp3ss4hIAn0xd0gdGuduvZPIwDxAXGCAHW87dRGfJsL7g7BxLx7-rfIwK46LgFxdhptwq4oqHTAhPDoJ- -zsRQp7FqvWu0]--></g></svg>