<?xml version="1.0" encoding="us-ascii" standalone="no"?><svg xmlns="http://www.w3.org/2000/svg" xmlns:xlink="http://www.w3.org/1999/xlink" contentStyleType="text/css" height="852px" preserveAspectRatio="none" style="width:973px;height:852px;background:#FFFFFF;" version="1.1" viewBox="0 0 973 852" width="973px" zoomAndPan="magnify"><defs/><g><!--cluster urest--><g id="cluster_urest"><path d="M9.5,6 L50.5,6 A5.25,5.25 0 0 1 54,9.5 L61,28.2969 L679.5,28.2969 A3.5,3.5 0 0 1 683,31.7969 L683,841.5 A3.5,3.5 0 0 1 679.5,845 L9.5,845 A3.5,3.5 0 0 1 6,841.5 L6,9.5 A3.5,3.5 0 0 1 9.5,6 " fill="none" style="stroke:#696969;stroke-width:1.0;"/><line style="stroke:#696969;stroke-width:1.0;" x1="6" x2="61" y1="28.2969" y2="28.2969"/><text fill="#000000" font-family="sans-serif" font-size="14" font-weight="bold" lengthAdjust="spacing" textLength="42" x="10" y="20.9951">urest</text></g><!--cluster http--><g id="cluster_http"><path d="M33.5,49 L64.5,49 A5.25,5.25 0 0 1 68,52.5 L75,71.2969 L655.5,71.2969 A3.5,3.5 0 0 1 659,74.7969 L659,817.5 A3.5,3.5 0 0 1 655.5,821 L33.5,821 A3.5,3.5 0 0 1 30,817.5 L30,52.5 A3.5,3.5 0 0 1 33.5,49 " fill="none" style="stroke:#696969;stroke-width:1.0;"/><line style="stroke:#696969;stroke-width:1.0;" x1="30" x2="75" y1="71.2969" y2="71.2969"/><text fill="#000000" font-family="sans-serif" font-size="14" font-weight="bold" lengthAdjust="spacing" textLength="32" x="34" y="63.9951">http</text></g><!--cluster response--><g id="cluster_response"><rect fill="none" height="394" rx="3.5" ry="3.5" style="stroke:#696969;stroke-width:1.0;" width="188" x="54" y="403"/><text fill="#000000" font-family="sans-serif" font-size="14" font-weight="bold" lengthAdjust="spacing" textLength="75" x="110.5" y="417.9951">response</text></g><!--cluster server--><g id="cluster_server"><rect fill="none" height="479" rx="3.5" ry="3.5" style="stroke:#696969;stroke-width:1.0;" width="369" x="266" y="92"/><text fill="#000000" font-family="sans-serif" font-size="14" font-weight="bold" lengthAdjust="spacing" textLength="52" x="424.5" y="106.9951">server</text></g><!--cluster errno--><g id="cluster_errno"><path d="M710.5,472 L753.5,472 A5.25,5.25 0 0 1 757,475.5 L764,494.2969 L962.5,494.2969 A3.5,3.5 0 0 1 966,497.7969 L966,769 A3.5,3.5 0 0 1 962.5,772.5 L710.5,772.5 A3.5,3.5 0 0 1 707,769 L707,475.5 A3.5,3.5 0 0 1 710.5,472 " fill="none" style="stroke:#696969;stroke-width:1.0;"/><line style="stroke:#696969;stroke-width:1.0;" x1="707" x2="764" y1="494.2969" y2="494.2969"/><text fill="#000000" font-family="sans-serif" font-size="14" font-weight="bold" lengthAdjust="spacing" textLength="44" x="711" y="486.9951">errno</text></g><!--class HTTPResponse--><g id="elem_HTTPResponse"><rect codeLine="5" fill="#F1F1F1" height="178.375" id="HTTPResponse" rx="3.5" ry="3.5" style="stroke:#181818;stroke-width:0.5;" width="140" x="78" y="442"/><ellipse cx="93" cy="458" fill="#ADD1B2" rx="11" ry="11" style="stroke:#181818;stroke-width:1.0;"/><path d="M95.9688,463.6406 Q95.3906,463.9375 94.75,464.0781 Q94.1094,464.2344 93.4063,464.2344 Q90.9063,464.2344 89.5781,462.5938 Q88.2656,460.9375 88.2656,457.8125 Q88.2656,454.6875 89.5781,453.0313 Q90.9063,451.375 93.4063,451.375 Q94.1094,451.375 94.75,451.5313 Q95.4063,451.6875 95.9688,451.9844 L95.9688,454.7031 Q95.3438,454.125 94.75,453.8594 Q94.1563,453.5781 93.5313,453.5781 Q92.1875,453.5781 91.5,454.6563 Q90.8125,455.7188 90.8125,457.8125 Q90.8125,459.9063 91.5,460.9844 Q92.1875,462.0469 93.5313,462.0469 Q94.1563,462.0469 94.75,461.7813 Q95.3438,461.5 95.9688,460.9219 L95.9688,463.6406 Z " fill="#000000"/><text fill="#000000" font-family="sans-serif" font-size="14" lengthAdjust="spacing" textLength="108" x="107" y="462.8467">HTTPResponse</text><line style="stroke:#181818;stroke-width:0.5;" x1="79" x2="217" y1="474" y2="474"/><rect fill="none" height="6" style="stroke:#C82930;stroke-width:1.0;" width="6" x="86" y="484.6484"/><text fill="#000000" font-family="sans-serif" font-size="14" lengthAdjust="spacing" textLength="50" x="98" y="490.9951">_status</text><rect fill="none" height="6" style="stroke:#C82930;stroke-width:1.0;" width="6" x="86" y="500.9453"/><text fill="#000000" font-family="sans-serif" font-size="14" lengthAdjust="spacing" textLength="41" x="98" y="507.292">_body</text><rect fill="none" height="6" style="stroke:#C82930;stroke-width:1.0;" width="6" x="86" y="517.2422"/><text fill="#000000" font-family="sans-serif" font-size="14" lengthAdjust="spacing" textLength="75" x="98" y="523.5889">_mimetype</text><rect fill="none" height="6" style="stroke:#C82930;stroke-width:1.0;" width="6" x="86" y="533.5391"/><text fill="#000000" font-family="sans-serif" font-size="14" lengthAdjust="spacing" textLength="44" x="98" y="539.8857">_close</text><rect fill="none" height="6" style="stroke:#C82930;stroke-width:1.0;" width="6" x="86" y="549.8359"/><text fill="#000000" font-family="sans-serif" font-size="14" lengthAdjust="spacing" textLength="56" x="98" y="556.1826">_header</text><ellipse cx="89" cy="569.1328" fill="none" rx="3" ry="3" style="stroke:#038048;stroke-width:1.0;"/><text fill="#000000" font-family="sans-serif" font-size="14" lengthAdjust="spacing" textLength="34" x="98" y="572.4795">body</text><ellipse cx="89" cy="585.4297" fill="none" rx="3" ry="3" style="stroke:#038048;stroke-width:1.0;"/><text fill="#000000" font-family="sans-serif" font-size="14" lengthAdjust="spacing" textLength="43" x="98" y="588.7764">status</text><line style="stroke:#181818;stroke-width:0.5;" x1="79" x2="217" y1="596.0781" y2="596.0781"/><ellipse cx="89" cy="609.7266" fill="#84BE84" rx="3" ry="3" style="stroke:#038048;stroke-width:1.0;"/><text fill="#000000" font-family="sans-serif" font-size="14" lengthAdjust="spacing" textLength="45" x="98" y="613.0732">send()</text></g><!--class HTTPStatus--><g id="elem_HTTPStatus"><rect codeLine="15" fill="#F1F1F1" height="96.8906" id="HTTPStatus" rx="3.5" ry="3.5" style="stroke:#181818;stroke-width:0.5;" width="113" x="91.5" y="684"/><ellipse cx="106.5" cy="700" fill="#EB937F" rx="11" ry="11" style="stroke:#181818;stroke-width:1.0;"/><path d="M110.6094,706 L102.8906,706 L102.8906,693.6094 L110.6094,693.6094 L110.6094,695.7656 L105.3438,695.7656 L105.3438,698.4375 L110.1094,698.4375 L110.1094,700.5938 L105.3438,700.5938 L105.3438,703.8438 L110.6094,703.8438 L110.6094,706 Z " fill="#000000"/><text fill="#000000" font-family="sans-serif" font-size="14" lengthAdjust="spacing" textLength="81" x="120.5" y="704.8467">HTTPStatus</text><line style="stroke:#181818;stroke-width:0.5;" x1="92.5" x2="203.5" y1="716" y2="716"/><ellipse cx="102.5" cy="729.6484" fill="none" rx="3" ry="3" style="stroke:#038048;stroke-width:1.0;"/><text fill="#000000" font-family="sans-serif" font-size="14" lengthAdjust="spacing" textLength="20" x="111.5" y="732.9951">OK</text><ellipse cx="102.5" cy="745.9453" fill="none" rx="3" ry="3" style="stroke:#038048;stroke-width:1.0;"/><text fill="#000000" font-family="sans-serif" font-size="14" lengthAdjust="spacing" textLength="57" x="111.5" y="749.292">NOT_OK</text><ellipse cx="102.5" cy="762.2422" fill="none" rx="3" ry="3" style="stroke:#038048;stroke-width:1.0;"/><text fill="#000000" font-family="sans-serif" font-size="14" lengthAdjust="spacing" textLength="87" x="111.5" y="765.5889">NOT_FOUND</text><line style="stroke:#181818;stroke-width:0.5;" x1="92.5" x2="203.5" y1="772.8906" y2="772.8906"/></g><!--class RESTClientError--><g id="elem_RESTClientError"><rect codeLine="22" fill="#F1F1F1" height="48" id="RESTClientError" rx="3.5" ry="3.5" style="stroke:#181818;stroke-width:0.5;" width="141" x="290.5" y="507"/><ellipse cx="305.5" cy="523" fill="#ADD1B2" rx="11" ry="11" style="stroke:#181818;stroke-width:1.0;"/><path d="M308.4688,528.6406 Q307.8906,528.9375 307.25,529.0781 Q306.6094,529.2344 305.9063,529.2344 Q303.4063,529.2344 302.0781,527.5938 Q300.7656,525.9375 300.7656,522.8125 Q300.7656,519.6875 302.0781,518.0313 Q303.4063,516.375 305.9063,516.375 Q306.6094,516.375 307.25,516.5313 Q307.9063,516.6875 308.4688,516.9844 L308.4688,519.7031 Q307.8438,519.125 307.25,518.8594 Q306.6563,518.5781 306.0313,518.5781 Q304.6875,518.5781 304,519.6563 Q303.3125,520.7188 303.3125,522.8125 Q303.3125,524.9063 304,525.9844 Q304.6875,527.0469 306.0313,527.0469 Q306.6563,527.0469 307.25,526.7813 Q307.8438,526.5 308.4688,525.9219 L308.4688,528.6406 Z " fill="#000000"/><text fill="#000000" font-family="sans-serif" font-size="14" lengthAdjust="spacing" textLength="109" x="319.5" y="527.8467">RESTClientError</text><line style="stroke:#181818;stroke-width:0.5;" x1="291.5" x2="430.5" y1="539" y2="539"/><line style="stroke:#181818;stroke-width:0.5;" x1="291.5" x2="430.5" y1="547" y2="547"/></g><!--class RESTParseError--><g id="elem_RESTParseError"><rect codeLine="24" fill="#F1F1F1" height="48" id="RESTParseError" rx="3.5" ry="3.5" style="stroke:#181818;stroke-width:0.5;" width="141" x="471.5" y="507"/><ellipse cx="486.5" cy="523" fill="#ADD1B2" rx="11" ry="11" style="stroke:#181818;stroke-width:1.0;"/><path d="M489.4688,528.6406 Q488.8906,528.9375 488.25,529.0781 Q487.6094,529.2344 486.9063,529.2344 Q484.4063,529.2344 483.0781,527.5938 Q481.7656,525.9375 481.7656,522.8125 Q481.7656,519.6875 483.0781,518.0313 Q484.4063,516.375 486.9063,516.375 Q487.6094,516.375 488.25,516.5313 Q488.9063,516.6875 489.4688,516.9844 L489.4688,519.7031 Q488.8438,519.125 488.25,518.8594 Q487.6563,518.5781 487.0313,518.5781 Q485.6875,518.5781 485,519.6563 Q484.3125,520.7188 484.3125,522.8125 Q484.3125,524.9063 485,525.9844 Q485.6875,527.0469 487.0313,527.0469 Q487.6563,527.0469 488.25,526.7813 Q488.8438,526.5 489.4688,525.9219 L489.4688,528.6406 Z " fill="#000000"/><text fill="#000000" font-family="sans-serif" font-size="14" lengthAdjust="spacing" textLength="109" x="500.5" y="527.8467">RESTParseError</text><line style="stroke:#181818;stroke-width:0.5;" x1="472.5" x2="611.5" y1="539" y2="539"/><line style="stroke:#181818;stroke-width:0.5;" x1="472.5" x2="611.5" y1="547" y2="547"/></g><!--class RESTServerError--><g id="elem_RESTServerError"><rect codeLine="26" fill="#F1F1F1" height="48" id="RESTServerError" rx="3.5" ry="3.5" style="stroke:#181818;stroke-width:0.5;" width="146" x="473" y="228.5"/><ellipse cx="488" cy="244.5" fill="#ADD1B2" rx="11" ry="11" style="stroke:#181818;stroke-width:1.0;"/><path d="M490.9688,250.1406 Q490.3906,250.4375 489.75,250.5781 Q489.1094,250.7344 488.4063,250.7344 Q485.9063,250.7344 484.5781,249.0938 Q483.2656,247.4375 483.2656,244.3125 Q483.2656,241.1875 484.5781,239.5313 Q485.9063,237.875 488.4063,237.875 Q489.1094,237.875 489.75,238.0313 Q490.4063,238.1875 490.9688,238.4844 L490.9688,241.2031 Q490.3438,240.625 489.75,240.3594 Q489.1563,240.0781 488.5313,240.0781 Q487.1875,240.0781 486.5,241.1563 Q485.8125,242.2188 485.8125,244.3125 Q485.8125,246.4063 486.5,247.4844 Q487.1875,248.5469 488.5313,248.5469 Q489.1563,248.5469 489.75,248.2813 Q490.3438,248 490.9688,247.4219 L490.9688,250.1406 Z " fill="#000000"/><text fill="#000000" font-family="sans-serif" font-size="14" lengthAdjust="spacing" textLength="114" x="502" y="249.3467">RESTServerError</text><line style="stroke:#181818;stroke-width:0.5;" x1="474" x2="618" y1="260.5" y2="260.5"/><line style="stroke:#181818;stroke-width:0.5;" x1="474" x2="618" y1="268.5" y2="268.5"/></g><!--class RESTServer--><g id="elem_RESTServer"><rect codeLine="29" fill="#F1F1F1" height="243.5625" id="RESTServer" rx="3.5" ry="3.5" style="stroke:#181818;stroke-width:0.5;" width="140" x="290" y="131"/><ellipse cx="317.15" cy="147" fill="#ADD1B2" rx="11" ry="11" style="stroke:#181818;stroke-width:1.0;"/><path d="M320.1188,152.6406 Q319.5406,152.9375 318.9,153.0781 Q318.2594,153.2344 317.5563,153.2344 Q315.0563,153.2344 313.7281,151.5938 Q312.4156,149.9375 312.4156,146.8125 Q312.4156,143.6875 313.7281,142.0313 Q315.0563,140.375 317.5563,140.375 Q318.2594,140.375 318.9,140.5313 Q319.5563,140.6875 320.1188,140.9844 L320.1188,143.7031 Q319.4938,143.125 318.9,142.8594 Q318.3063,142.5781 317.6813,142.5781 Q316.3375,142.5781 315.65,143.6563 Q314.9625,144.7188 314.9625,146.8125 Q314.9625,148.9063 315.65,149.9844 Q316.3375,151.0469 317.6813,151.0469 Q318.3063,151.0469 318.9,150.7813 Q319.4938,150.5 320.1188,149.9219 L320.1188,152.6406 Z " fill="#000000"/><text fill="#000000" font-family="sans-serif" font-size="14" lengthAdjust="spacing" textLength="81" x="333.85" y="151.8467">RESTServer</text><line style="stroke:#181818;stroke-width:0.5;" x1="291" x2="429" y1="163" y2="163"/><rect fill="none" height="6" style="stroke:#C82930;stroke-width:1.0;" width="6" x="298" y="173.6484"/><text fill="#000000" font-family="sans-serif" font-size="14" lengthAdjust="spacing" textLength="50" x="310" y="179.9951">_server</text><rect fill="none" height="6" style="stroke:#C82930;stroke-width:1.0;" width="6" x="298" y="189.9453"/><text fill="#000000" font-family="sans-serif" font-size="14" lengthAdjust="spacing" textLength="80" x="310" y="196.292">dict _nouns</text><ellipse cx="301" cy="209.2422" fill="none" rx="3" ry="3" style="stroke:#038048;stroke-width:1.0;"/><text fill="#000000" font-family="sans-serif" font-size="14" lengthAdjust="spacing" textLength="53" x="310" y="212.5889">str host</text><ellipse cx="301" cy="225.5391" fill="none" rx="3" ry="3" style="stroke:#038048;stroke-width:1.0;"/><text fill="#000000" font-family="sans-serif" font-size="14" lengthAdjust="spacing" textLength="49" x="310" y="228.8857">int port</text><ellipse cx="301" cy="241.8359" fill="none" rx="3" ry="3" style="stroke:#038048;stroke-width:1.0;"/><text fill="#000000" font-family="sans-serif" font-size="14" lengthAdjust="spacing" textLength="75" x="310" y="245.1826">int backlog</text><ellipse cx="301" cy="258.1328" fill="none" rx="3" ry="3" style="stroke:#038048;stroke-width:1.0;"/><text fill="#000000" font-family="sans-serif" font-size="14" lengthAdjust="spacing" textLength="112" x="310" y="261.4795">int read_timeout</text><ellipse cx="301" cy="274.4297" fill="none" rx="3" ry="3" style="stroke:#038048;stroke-width:1.0;"/><text fill="#000000" font-family="sans-serif" font-size="14" lengthAdjust="spacing" textLength="114" x="310" y="277.7764">int write_timeout</text><line style="stroke:#181818;stroke-width:0.5;" x1="291" x2="429" y1="285.0781" y2="285.0781"/><rect fill="#F24D5C" height="6" style="stroke:#C82930;stroke-width:1.0;" width="6" x="298" y="295.7266"/><text fill="#000000" font-family="sans-serif" font-size="14" lengthAdjust="spacing" textLength="86" x="310" y="302.0732">parse_data()</text><ellipse cx="301" cy="315.0234" fill="#84BE84" rx="3" ry="3" style="stroke:#038048;stroke-width:1.0;"/><text fill="#000000" font-family="sans-serif" font-size="14" lengthAdjust="spacing" textLength="112" x="310" y="318.3701">dispatch_noun()</text><ellipse cx="301" cy="331.3203" fill="#84BE84" rx="3" ry="3" style="stroke:#038048;stroke-width:1.0;"/><text fill="#000000" font-family="sans-serif" font-size="14" lengthAdjust="spacing" textLength="106" x="310" y="334.667">register_noun()</text><ellipse cx="301" cy="347.6172" fill="#84BE84" rx="3" ry="3" style="stroke:#038048;stroke-width:1.0;"/><text fill="#000000" font-family="sans-serif" font-size="14" lengthAdjust="spacing" textLength="41" x="310" y="350.9639">start()</text><ellipse cx="301" cy="363.9141" fill="#84BE84" rx="3" ry="3" style="stroke:#038048;stroke-width:1.0;"/><text fill="#000000" font-family="sans-serif" font-size="14" lengthAdjust="spacing" textLength="41" x="310" y="367.2607">stop()</text></g><!--class Exception--><g id="elem_Exception"><rect codeLine="48" fill="#F1F1F1" height="48" id="Exception" rx="3.5" ry="3.5" style="stroke:#181818;stroke-width:0.5;" width="101" x="723.5" y="708.5"/><ellipse cx="738.5" cy="724.5" fill="#A9DCDF" rx="11" ry="11" style="stroke:#181818;stroke-width:1.0;"/><path d="M738.6094,719.8438 L737.4531,724.9219 L739.7813,724.9219 L738.6094,719.8438 Z M737.125,717.6094 L740.1094,717.6094 L743.4688,730 L741.0156,730 L740.25,726.9375 L736.9688,726.9375 L736.2188,730 L733.7813,730 L737.125,717.6094 Z " fill="#000000"/><text fill="#000000" font-family="sans-serif" font-size="14" font-style="italic" lengthAdjust="spacing" textLength="69" x="752.5" y="729.3467">Exception</text><line style="stroke:#181818;stroke-width:0.5;" x1="724.5" x2="823.5" y1="740.5" y2="740.5"/><line style="stroke:#181818;stroke-width:0.5;" x1="724.5" x2="823.5" y1="748.5" y2="748.5"/></g><!--class IndexError--><g id="elem_IndexError"><rect codeLine="50" fill="#F1F1F1" height="48" id="IndexError" rx="3.5" ry="3.5" style="stroke:#181818;stroke-width:0.5;" width="102" x="848" y="507"/><ellipse cx="863" cy="523" fill="#ADD1B2" rx="11" ry="11" style="stroke:#181818;stroke-width:1.0;"/><path d="M865.9688,528.6406 Q865.3906,528.9375 864.75,529.0781 Q864.1094,529.2344 863.4063,529.2344 Q860.9063,529.2344 859.5781,527.5938 Q858.2656,525.9375 858.2656,522.8125 Q858.2656,519.6875 859.5781,518.0313 Q860.9063,516.375 863.4063,516.375 Q864.1094,516.375 864.75,516.5313 Q865.4063,516.6875 865.9688,516.9844 L865.9688,519.7031 Q865.3438,519.125 864.75,518.8594 Q864.1563,518.5781 863.5313,518.5781 Q862.1875,518.5781 861.5,519.6563 Q860.8125,520.7188 860.8125,522.8125 Q860.8125,524.9063 861.5,525.9844 Q862.1875,527.0469 863.5313,527.0469 Q864.1563,527.0469 864.75,526.7813 Q865.3438,526.5 865.9688,525.9219 L865.9688,528.6406 Z " fill="#000000"/><text fill="#000000" font-family="sans-serif" font-size="14" lengthAdjust="spacing" textLength="70" x="877" y="527.8467">IndexError</text><line style="stroke:#181818;stroke-width:0.5;" x1="849" x2="949" y1="539" y2="539"/><line style="stroke:#181818;stroke-width:0.5;" x1="849" x2="949" y1="547" y2="547"/></g><!--class KeyError--><g id="elem_KeyError"><rect codeLine="52" fill="#F1F1F1" height="48" id="KeyError" rx="3.5" ry="3.5" style="stroke:#181818;stroke-width:0.5;" width="90" x="723" y="507"/><ellipse cx="738" cy="523" fill="#ADD1B2" rx="11" ry="11" style="stroke:#181818;stroke-width:1.0;"/><path d="M740.9688,528.6406 Q740.3906,528.9375 739.75,529.0781 Q739.1094,529.2344 738.4063,529.2344 Q735.9063,529.2344 734.5781,527.5938 Q733.2656,525.9375 733.2656,522.8125 Q733.2656,519.6875 734.5781,518.0313 Q735.9063,516.375 738.4063,516.375 Q739.1094,516.375 739.75,516.5313 Q740.4063,516.6875 740.9688,516.9844 L740.9688,519.7031 Q740.3438,519.125 739.75,518.8594 Q739.1563,518.5781 738.5313,518.5781 Q737.1875,518.5781 736.5,519.6563 Q735.8125,520.7188 735.8125,522.8125 Q735.8125,524.9063 736.5,525.9844 Q737.1875,527.0469 738.5313,527.0469 Q739.1563,527.0469 739.75,526.7813 Q740.3438,526.5 740.9688,525.9219 L740.9688,528.6406 Z " fill="#000000"/><text fill="#000000" font-family="sans-serif" font-size="14" lengthAdjust="spacing" textLength="58" x="752" y="527.8467">KeyError</text><line style="stroke:#181818;stroke-width:0.5;" x1="724" x2="812" y1="539" y2="539"/><line style="stroke:#181818;stroke-width:0.5;" x1="724" x2="812" y1="547" y2="547"/></g><!--reverse link IndexError to Exception--><g id="link_IndexError_Exception"><path codeLine="56" d="M873.68,572.42 C848.05,613.32 809.33,675.12 788.49,708.37 " fill="none" id="IndexError-backto-Exception" style="stroke:#454645;stroke-width:1.0;"/><polygon fill="none" points="867.87,568.51,884.42,555.28,879.73,575.94,867.87,568.51" style="stroke:#454645;stroke-width:1.0;"/></g><!--reverse link KeyError to Exception--><g id="link_KeyError_Exception"><path codeLine="57" d="M769.31,575.5 C770.54,616.36 772.33,675.95 773.3,708.37 " fill="none" id="KeyError-backto-Exception" style="stroke:#454645;stroke-width:1.0;"/><polygon fill="none" points="762.3,575.48,768.7,555.28,776.3,575.06,762.3,575.48" style="stroke:#454645;stroke-width:1.0;"/></g><!--reverse link HTTPResponse to HTTPStatus--><g id="link_HTTPResponse_HTTPStatus"><path codeLine="59" d="M224.12,486.2 C277.74,490.63 235.15,566.99 218,624 C211.62,645.22 199.62,666.18 187.34,683.89 " fill="none" id="HTTPResponse-backto-HTTPStatus" style="stroke:#454645;stroke-width:1.0;"/><polygon fill="#454645" points="219,486,227.8453,490.3313,223.9966,486.1856,228.1423,482.3368,219,486" style="stroke:#454645;stroke-width:1.0;"/></g><!--reverse link RESTClientError to Exception--><g id="link_RESTClientError_Exception"><path codeLine="61" d="M392.26,570.26 C408.95,588.64 430.82,609.72 454,624 C540.83,677.48 657.46,707.92 723.26,721.94 " fill="none" id="RESTClientError-backto-Exception" style="stroke:#454645;stroke-width:1.0;"/><polygon fill="none" points="386.86,574.72,379.01,555.04,397.42,565.53,386.86,574.72" style="stroke:#454645;stroke-width:1.0;"/></g><!--reverse link RESTParseError to Exception--><g id="link_RESTParseError_Exception"><path codeLine="62" d="M580.9,568.8 C599.21,585.86 621.48,606.23 642,624 C676.52,653.89 717.45,686.86 744.48,708.3 " fill="none" id="RESTParseError-backto-Exception" style="stroke:#454645;stroke-width:1.0;"/><polygon fill="none" points="576.09,573.89,566.28,555.1,585.66,563.67,576.09,573.89" style="stroke:#454645;stroke-width:1.0;"/></g><!--reverse link RESTServerError to Exception--><g id="link_RESTServerError_Exception"><path codeLine="63" d="M572.98,293.62 C590.79,321.29 613.73,359.35 630,395 C674.52,492.56 660.11,527.08 706,624 C720.46,654.54 741.92,686.97 756.86,708.13 " fill="none" id="RESTServerError-backto-Exception" style="stroke:#454645;stroke-width:1.0;"/><polygon fill="none" points="566.99,297.25,561.89,276.69,578.7,289.58,566.99,297.25" style="stroke:#454645;stroke-width:1.0;"/></g><!--reverse link RESTServer to HTTPResponse--><g id="link_RESTServer_HTTPResponse"><path codeLine="65" d="M283.88,313.65 C223.89,317.07 188.99,380.56 169.61,437.87 " fill="none" id="RESTServer-backto-HTTPResponse" style="stroke:#454645;stroke-width:1.0;"/><polygon fill="#454645" points="289,313.5,279.8894,309.7587,284.002,313.6428,280.1179,317.7554,289,313.5" style="stroke:#454645;stroke-width:1.0;"/></g><!--reverse link RESTServer to RESTClientError--><g id="link_RESTServer_RESTClientError"><path codeLine="66" d="M435.97,314.38 C464.97,326.21 401.54,453.6 373.48,506.83 " fill="none" id="RESTServer-backto-RESTClientError" style="stroke:#454645;stroke-width:1.0;"/><polygon fill="#454645" points="431,313.5,439.1661,319.0059,435.9236,314.3706,440.559,311.1281,431,313.5" style="stroke:#454645;stroke-width:1.0;"/></g><!--reverse link RESTServer to IndexError--><g id="link_RESTServer_IndexError"><path codeLine="67" d="M436.04,314.03 C457.89,319.2 431.83,361.11 455,378 C488.8,402.63 795.9,372.27 831,395 C870.1,420.32 887.67,475.43 894.77,506.85 " fill="none" id="RESTServer-backto-IndexError" style="stroke:#454645;stroke-width:1.0;"/><polygon fill="#454645" points="431,313.5,439.5406,318.4049,435.9735,314.0145,440.3638,310.4473,431,313.5" style="stroke:#454645;stroke-width:1.0;"/></g><!--reverse link RESTServer to KeyError--><g id="link_RESTServer_KeyError"><path codeLine="68" d="M436.28,330.24 C451.93,335.34 436.89,365.54 455,378 C488.1,400.78 598.71,377.76 635,395 C687.75,420.06 731.29,475.27 753.03,506.77 " fill="none" id="RESTServer-backto-KeyError" style="stroke:#454645;stroke-width:1.0;"/><polygon fill="#454645" points="431,329.5,439.365,334.6988,435.9526,330.1871,440.4643,326.7747,431,329.5" style="stroke:#454645;stroke-width:1.0;"/></g><!--reverse link RESTServer to RESTParseError--><g id="link_RESTServer_RESTParseError"><path codeLine="69" d="M436.2,297.85 C465.6,302.16 441.04,345.43 455,378 C475.54,425.93 507.6,477.86 526.53,506.92 " fill="none" id="RESTServer-backto-RESTParseError" style="stroke:#454645;stroke-width:1.0;"/><polygon fill="#454645" points="431,297.5,439.7044,302.108,435.9882,297.843,440.2532,294.1269,431,297.5" style="stroke:#454645;stroke-width:1.0;"/></g><!--SRC=[fLJ1Rk8m4BtdAxotLeXy04AzT5bjLQbKGC-HIKR4Qc97uqbRj9j_NvC4S60CY-fJulVUsEDvCpyeXnB4XrgZr1HfMOAjP0gYHh0a_aJ2hUDkJbJrcqF0iIkZBOZfT04fIRqfuE71e-vMMaXhnU_LwdMnfmy9kpKMYIL9jUMGjScst7wfIg1j1HoM5iQoG0uo0pn3He8zPIG2rt80wEpkVW0qWp_GTTdclMn3C5cFnFoPsNoPhv8Wy6l-zl8pS6h3rCW2VW3-HuKMi-NgiL2WQOPey8JJ11Il4YtS8bYsz-4L5oK1rxGOWsGg9P5eKsksU8GYDvOOI6aIbS4Gj9RfUs4s0HITkn9olZHrAC0dAe83XxbvjNlI99CaJ-pLnSYKAoobUPiRoq3OA4k0OOOpDL80CLNGrTrN4pNUo014RVhQoBLxL-dUlQlTx2k5YfJHFTp9E-n9P_3bky07ds4xX9mrsdDYJpRzEnvtfyU7WthMGSzoedRAnRkf5kydMEpFfyca7qPYwkGXTjVLWsYT6UFJJc9lmSkyThf1vVVKrPJFT9F9m58Nazu_qNS2ygzqSyHJGrm9C6WABy3UArVanwQyaCwnUj4_]--></g></svg>